<?xml version="1.0" encoding="UTF-8" standalone="no"?><!DOCTYPE svg PUBLIC "-//W3C//DTD SVG 1.1//EN" "http://www.w3.org/Graphics/SVG/1.1/DTD/svg11.dtd"><svg width="100%" height="100%" viewBox="0 0 57 75" version="1.1" xmlns="http://www.w3.org/2000/svg" xmlns:xlink="http://www.w3.org/1999/xlink" xml:space="preserve" xmlns:serif="http://www.serif.com/" style="fill-rule:evenodd;clip-rule:evenodd;stroke-linejoin:round;stroke-miterlimit:2;"><g id="ICONES"><g id="Speakers"></g><g id="Notes"></g><g id="Sauvegarde"></g><g id="Export"><rect id="MIDI" x="0" y="0" width="56.807" height="74.686" style="fill:none;"/><clipPath id="_clip1"><rect id="MIDI1" serif:id="MIDI" x="0" y="0" width="56.807" height="74.686"/></clipPath><g clip-path="url(#_clip1)"><path id="MIDI2" serif:id="MIDI" d="M1.655,27.094l-0,-23.708c-0,-1.87 1.516,-3.386 3.386,-3.386l48.019,0c1.871,-0 3.387,1.516 3.387,3.386l-0,24.924c0.235,0.421 0.36,0.902 0.36,1.45c0,0 0,15.166 0,15.166c0,0.548 -0.125,1.029 -0.36,1.45l-0,24.924c-0,1.87 -1.516,3.386 -3.387,3.386l-48.019,0c-1.87,0 -3.386,-1.516 -3.386,-3.386l-0,-23.711c-0.283,-0.14 -0.545,-0.331 -0.787,-0.573c-0.582,-0.582 -0.868,-1.28 -0.868,-2.09c-0,0 -0,-15.166 -0,-15.166c-0,-0.867 0.315,-1.572 0.902,-2.133c0.232,-0.223 0.483,-0.401 0.753,-0.533Zm52.675,-0.258l0,-23.45c0,-0.701 -0.568,-1.27 -1.27,-1.27l-48.019,0c-0.701,0 -1.27,0.569 -1.27,1.27l0,23.508c0.785,0.192 1.38,0.678 1.796,1.436c0.013,0.023 0.025,0.046 0.037,0.069l4.992,9.926l4.897,-9.912c0.025,-0.052 0.053,-0.102 0.082,-0.152c0.587,-0.977 1.446,-1.459 2.57,-1.459c0.823,0 1.514,0.292 2.079,0.857c0.554,0.553 0.858,1.246 0.858,2.101c-0,0 -0,15.166 -0,15.166c-0,0.632 -0.174,1.194 -0.518,1.685c0.866,-0.151 1.818,-0.252 2.862,-0.292l0,-30.858l0.015,-0.322l0.045,-0.314l0.073,-0.304l0.099,-0.293l0.196,-0.416l0.25,-0.383l0.297,-0.346l0.342,-0.303l0.381,-0.255l0.416,-0.203l0.448,-0.146l0.37,-0.071l0.469,-0.031l0.459,0.033l0.444,0.093l0.324,0.111l0.23,0.099l0.268,0.145l0.291,0.197l0.313,0.264l0.309,0.338l0.262,0.38l0.146,0.275l0.121,0.29l0.083,0.261c0.253,0.917 0.972,1.841 1.813,2.853l0.134,0.157c0.333,0.313 0.691,0.623 1.058,0.937c1.996,1.709 4.417,3.325 6.528,4.982c1.896,1.488 3.508,3.068 4.649,4.72c0.759,0.437 1.443,0.965 2.055,1.583c0.945,0.954 1.679,2.074 2.197,3.365c0.505,1.259 0.767,2.65 0.767,4.175c-0,1.523 -0.261,2.916 -0.765,4.182c-0.519,1.3 -1.254,2.426 -2.199,3.381c-0.951,0.959 -2.078,1.703 -3.385,2.224c-1.266,0.504 -2.658,0.765 -4.181,0.765l-1.319,-0c-0.755,0.617 -1.242,0.959 -1.242,0.959c-1.463,1.031 -3.475,0.745 -4.593,-0.652c-1.103,-1.377 -0.962,-3.365 0.313,-4.573l-0,-13.858c-0,-0.685 0.195,-1.265 0.557,-1.754c-0.739,-0.819 -1.508,-1.626 -2.265,-2.418l0,24.147c0.172,4.493 -0.973,7.438 -2.484,9.348c-2.489,3.145 -6.187,3.866 -9.138,3.4c-2.322,-0.367 -4.127,-1.536 -4.927,-2.577c-1.701,-2.212 -2.509,-6.193 -0.212,-9.396c0.734,-1.024 1.873,-2.052 3.578,-2.835c-0.363,-0.146 -0.69,-0.367 -0.982,-0.659c-0.582,-0.582 -0.868,-1.28 -0.868,-2.09l0,-3.073l-1.98,4.046c-0.021,0.045 -0.045,0.088 -0.069,0.131c-0.556,0.96 -1.402,1.466 -2.565,1.466c-1.221,-0 -2.126,-0.545 -2.674,-1.697l-1.962,-3.924l-0,3.051c-0,0.81 -0.286,1.508 -0.868,2.09c-0.378,0.377 -0.803,0.63 -1.277,0.761l0,23.523c0,0.701 0.569,1.27 1.27,1.27l48.019,-0c0.702,-0 1.27,-0.569 1.27,-1.27l0,-23.45c-0.154,0.022 -0.314,0.034 -0.481,0.034c-0.855,-0 -1.547,-0.304 -2.1,-0.857c-0.554,-0.553 -0.858,-1.246 -0.858,-2.101l0,-15.166c0,-0.855 0.304,-1.548 0.858,-2.101c0.553,-0.553 1.245,-0.857 2.1,-0.857c0.167,0 0.327,0.012 0.481,0.034Zm-26.247,20.605c-0.453,0.289 -0.98,0.443 -1.589,0.443c-0.342,-0 -0.659,-0.049 -0.951,-0.143l-0,0.695c-5.991,-0.242 -9.028,1.415 -10.385,3.308c-1.68,2.342 -1.074,5.254 0.17,6.872c0.431,0.56 1.261,1.13 2.355,1.485c2.298,0.746 5.77,0.599 8.087,-1.992c1.442,-1.613 2.479,-4.231 2.313,-8.342l-0,-2.326Zm-1.589,-1.25c0.367,-0 0.666,-0.124 0.904,-0.362c0.237,-0.237 0.361,-0.536 0.361,-0.903l-0,-15.166c-0,-0.367 -0.124,-0.666 -0.361,-0.903c-0.238,-0.238 -0.537,-0.362 -0.904,-0.362c-0.366,0 -0.666,0.124 -0.903,0.362c-0.237,0.237 -0.361,0.536 -0.361,0.903c-0,0 -0,15.166 -0,15.166c-0,0.367 0.124,0.666 0.361,0.903c0.237,0.238 0.537,0.362 0.903,0.362Zm27.355,-0c0.367,-0 0.666,-0.124 0.904,-0.362c0.237,-0.237 0.361,-0.536 0.361,-0.903c-0,0 -0,-15.166 -0,-15.166c-0,-0.367 -0.124,-0.666 -0.361,-0.903c-0.238,-0.238 -0.537,-0.362 -0.904,-0.362c-0.366,0 -0.666,0.124 -0.903,0.362c-0.237,0.237 -0.361,0.536 -0.361,0.903l-0,15.166c-0,0.367 0.124,0.666 0.361,0.903c0.237,0.238 0.537,0.362 0.903,0.362Zm-18.984,-0l3.883,-0c1.294,-0 2.479,-0.216 3.554,-0.645c1.084,-0.432 2.02,-1.047 2.809,-1.843c0.787,-0.795 1.397,-1.734 1.829,-2.816c0.429,-1.076 0.645,-2.261 0.645,-3.555c-0,-1.294 -0.217,-2.476 -0.646,-3.544c-0.431,-1.075 -1.041,-2.01 -1.828,-2.805c-0.789,-0.796 -1.725,-1.411 -2.809,-1.843c-1.075,-0.429 -2.26,-0.645 -3.554,-0.645l-3.883,0c-0.367,0 -0.666,0.124 -0.904,0.362c-0.237,0.237 -0.361,0.536 -0.361,0.903c0,0 0,15.166 0,15.166c0,0.367 0.124,0.666 0.361,0.903c0.238,0.238 0.537,0.362 0.904,0.362Zm-24.255,-4.071l6.401,-12.957c0.005,-0.011 0.01,-0.021 0.016,-0.031c0.256,-0.425 0.629,-0.637 1.118,-0.637c0.349,0 0.643,0.122 0.882,0.362c0.237,0.237 0.362,0.536 0.362,0.903c-0,0 -0,15.166 -0,15.166c-0,0.344 -0.119,0.639 -0.355,0.886c-0.242,0.252 -0.538,0.379 -0.889,0.379c-0.364,-0 -0.668,-0.126 -0.914,-0.372c-0.248,-0.249 -0.372,-0.547 -0.372,-0.893l0,-10.387l-5.194,10.616c-0.004,0.009 -0.009,0.018 -0.014,0.026c-0.237,0.411 -0.602,0.621 -1.099,0.621c-0.532,0 -0.92,-0.246 -1.157,-0.753l-5.173,-10.346l0,10.223c0,0.346 -0.123,0.644 -0.372,0.893c-0.248,0.248 -0.546,0.372 -0.892,0.372c-0.346,-0 -0.644,-0.124 -0.893,-0.372c-0.248,-0.249 -0.372,-0.547 -0.372,-0.893c0,0 0,-15.166 0,-15.166c0,-0.369 0.129,-0.671 0.379,-0.91c0.247,-0.236 0.542,-0.355 0.886,-0.355c0.516,0 0.889,0.221 1.126,0.651c0.002,0.005 0.005,0.009 0.007,0.014l6.519,12.96Zm25.519,1.714l2.619,-0c1.242,-0 2.339,-0.277 3.291,-0.837c0.948,-0.558 1.69,-1.324 2.228,-2.299c0.542,-0.983 0.81,-2.105 0.81,-3.366c0,-1.26 -0.268,-2.383 -0.81,-3.366c-0.538,-0.973 -1.279,-1.736 -2.226,-2.287c-0.952,-0.554 -2.051,-0.827 -3.293,-0.827l-2.619,0l0,12.982Zm2.096,-11.289c0.217,0.533 0.384,1.07 0.489,1.611c0.386,1.987 0.381,3.507 0.071,4.738c-0.203,0.806 -0.539,1.478 -0.962,2.076l-0,1.171l0.925,-0c0.621,-0 1.195,-0.087 1.718,-0.272c0.087,-0.108 0.172,-0.217 0.257,-0.328c1.09,-1.415 2.054,-3.022 2.641,-4.731c-0.058,-0.745 -0.246,-1.421 -0.58,-2.026c-0.385,-0.698 -0.915,-1.246 -1.594,-1.641c-0.705,-0.41 -1.522,-0.598 -2.442,-0.598l-0.523,0Zm2.153,-5.638c-0.639,-0.592 -1.339,-1.175 -2.074,-1.753c-2.544,-1.996 -5.534,-3.932 -7.7,-6.04c-0.201,-0.195 -0.395,-0.391 -0.579,-0.59c-0.96,-1.179 -1.688,-2.312 -1.988,-3.401l-0.017,-0.057l-0.086,-0.202l-0.127,-0.193l-0.158,-0.166l-0.184,-0.134l-0.206,-0.099l-0.212,-0.06l-0.205,-0.021l-0.082,0.001l-0.199,0.024l-0.201,0.058l-0.181,0.086l-0.161,0.11l-0.162,0.155l-0.131,0.181l-0.095,0.192l-0.065,0.224l-0.022,0.239l-0,11.484c0.292,-0.094 0.609,-0.143 0.951,-0.143c0.609,0 1.136,0.155 1.589,0.443l-0,-7.081c0.181,0.198 0.37,0.395 0.567,0.59c1.15,1.354 2.497,2.756 3.855,4.189c0.597,0.63 1.196,1.267 1.775,1.91c0.186,-0.033 0.381,-0.051 0.585,-0.051l3.883,0c0.561,0 1.104,0.036 1.63,0.105Z" style="fill:#fff;"/></g></g><g id="Lecture"></g><g id="Autres"></g><g id="Éléments-graphiques" serif:id="Éléments graphiques"></g></g><g id="LINKED"><g id="_8N_L-L" serif:id="8N_L-L"></g><g id="_8N_L-RL" serif:id="8N_L-RL"></g><g id="_8N_L-R" serif:id="8N_L-R"></g><g id="_16N_L-L" serif:id="16N_L-L"></g><g id="_16N_L-RL_FULL" serif:id="16N_L-RL_FULL"></g><g id="_16N_L-RL_DEMI" serif:id="16N_L-RL_DEMI"></g><g id="_16N_L-R" serif:id="16N_L-R"></g></g><g id="RESTS"><g id="_1N_R" serif:id="1N_R"></g><g id="_2N_R" serif:id="2N_R"></g><g id="_4N_R" serif:id="4N_R"></g><g id="_16N_R" serif:id="16N_R"></g><g id="_8N_R" serif:id="8N_R"></g></g><g id="DOTTED"><g id="_4N" serif:id="4N"></g><g id="_8N_L-L1" serif:id="8N_L-L"></g><g id="_8N_L-R1" serif:id="8N_L-R"></g><g id="_2N_R1" serif:id="2N_R"></g><g id="_4N_R1" serif:id="4N_R"></g><g id="_8N_R1" serif:id="8N_R"></g></g></svg>