<?xml version="1.0" encoding="UTF-8" standalone="no"?><!DOCTYPE svg PUBLIC "-//W3C//DTD SVG 1.1//EN" "http://www.w3.org/Graphics/SVG/1.1/DTD/svg11.dtd"><svg width="100%" height="100%" viewBox="0 0 53 68" version="1.1" xmlns="http://www.w3.org/2000/svg" xmlns:xlink="http://www.w3.org/1999/xlink" xml:space="preserve" xmlns:serif="http://www.serif.com/" style="fill-rule:evenodd;clip-rule:evenodd;stroke-linejoin:round;stroke-miterlimit:2;"><g id="ICONES"><g id="Speakers"></g><g id="Notes"></g><g id="Sauvegarde"></g><g id="Export"><rect id="MP3" x="0" y="0" width="52.838" height="67.913" style="fill:none;"/><clipPath id="_clip1"><rect id="MP31" serif:id="MP3" x="0" y="0" width="52.838" height="67.913"/></clipPath><g clip-path="url(#_clip1)"><path id="MP32" serif:id="MP3" d="M18.915,23.51l-0,-18.959l0.02,-0.432l0.06,-0.422l0.097,-0.408l0.134,-0.394l0.264,-0.559l0.335,-0.516l0.4,-0.464l0.459,-0.407l0.512,-0.343l0.56,-0.273l0.6,-0.196l0.498,-0.095l0.631,-0.042l0.086,0.002l0.531,0.042l0.596,0.126l0.436,0.148l0.309,0.134l0.36,0.195l0.391,0.264l0.42,0.355l0.415,0.454l0.352,0.511l0.196,0.369l0.163,0.39l0.112,0.35c0.34,1.233 1.306,2.474 2.437,3.835l0.179,0.211c0.448,0.42 0.928,0.837 1.421,1.259c2.683,2.297 5.937,4.468 8.774,6.695c3.34,2.622 6.025,5.455 7.486,8.444c0.243,0.097 0.48,0.209 0.71,0.335c0.997,0.547 1.789,1.299 2.379,2.253c0.601,0.972 0.909,2.057 0.909,3.259c0,0.822 -0.192,1.621 -0.591,2.394c-0.153,0.297 -0.328,0.581 -0.525,0.851c0.584,0.605 1.022,1.295 1.32,2.067c0.324,0.84 0.487,1.716 0.487,2.627c-0,1.364 -0.34,2.575 -0.991,3.639c-0.649,1.062 -1.537,1.9 -2.671,2.509c-1.093,0.585 -2.302,0.887 -3.633,0.887l0,0c-1.213,0 -2.314,-0.241 -3.307,-0.706c-3.129,3.373 -6.174,5.512 -6.174,5.512c-1.965,1.384 -4.669,1.001 -6.172,-0.876c-1.503,-1.877 -1.286,-4.599 0.494,-6.215c1.315,-1.193 2.649,-2.221 3.847,-3.302c0.967,-0.872 1.86,-1.752 2.353,-3.01c-0.531,0.618 -1.164,1.136 -1.901,1.556c-1.125,0.642 -2.413,0.979 -3.874,0.979l-1.357,0l0,2.997c0,0.854 -0.304,1.547 -0.857,2.1c-0.178,0.179 -0.371,0.331 -0.579,0.456l-0,6.513c0.231,6.037 -1.308,9.996 -3.339,12.562c-3.344,4.226 -8.314,5.195 -12.279,4.569c-3.12,-0.493 -5.545,-2.064 -6.621,-3.463c-2.285,-2.972 -3.371,-8.322 -0.285,-12.626c1.911,-2.666 5.856,-5.344 13.423,-5.632l-0,-1.616c-0.243,0.063 -0.499,0.094 -0.77,0.094c-0.841,0 -1.542,-0.298 -2.111,-0.867c-0.582,-0.583 -0.868,-1.281 -0.868,-2.09l0,-3.074l-1.98,4.047c-0.021,0.044 -0.045,0.088 -0.069,0.13c-0.556,0.961 -1.402,1.466 -2.565,1.466c-1.221,0 -2.126,-0.544 -2.674,-1.696l-1.962,-3.924l-0,3.051c-0,0.809 -0.286,1.507 -0.868,2.09c-0.582,0.582 -1.28,0.867 -2.09,0.867c-0.81,0 -1.508,-0.285 -2.09,-0.867c-0.582,-0.583 -0.868,-1.281 -0.868,-2.09c0,-0 0,-15.166 0,-15.166c0,-0.868 0.315,-1.573 0.902,-2.134c0.573,-0.548 1.258,-0.824 2.056,-0.824c1.2,-0 2.059,0.528 2.609,1.528c0.013,0.023 0.025,0.046 0.037,0.069l4.992,9.925l4.897,-9.912c0.025,-0.051 0.053,-0.102 0.082,-0.151c0.587,-0.978 1.446,-1.459 2.57,-1.459c0.271,-0 0.527,0.031 0.77,0.094Zm25.807,-0.159c-0.188,-0.279 -0.39,-0.555 -0.604,-0.829c-1.334,-1.706 -3.17,-3.342 -5.211,-4.945c-3.418,-2.682 -7.436,-5.284 -10.348,-8.116c-0.269,-0.263 -0.53,-0.526 -0.778,-0.793c-1.289,-1.584 -2.267,-3.107 -2.671,-4.571l-0.023,-0.076l-0.115,-0.272l-0.17,-0.26l-0.213,-0.222l-0.247,-0.18l-0.277,-0.134l-0.286,-0.08l-0.274,-0.028l-0.111,0.001l-0.266,0.032l-0.271,0.078l-0.243,0.115l-0.217,0.149l-0.217,0.208l-0.177,0.243l-0.128,0.259l-0.086,0.301l-0.03,0.32l-0,44.313c-8.05,-0.326 -12.132,1.901 -13.956,4.444c-2.257,3.148 -1.443,7.061 0.229,9.235c0.579,0.753 1.695,1.519 3.164,1.996c3.089,1.002 7.754,0.804 10.867,-2.677c1.938,-2.167 3.332,-5.685 3.109,-11.21l-0,-6.448c-0.286,-0.141 -0.545,-0.33 -0.778,-0.564c-0.553,-0.553 -0.858,-1.246 -0.858,-2.1c0,-0 0,-15.166 0,-15.166c0,-0.855 0.305,-1.548 0.858,-2.101c0.233,-0.234 0.492,-0.423 0.778,-0.564l-0,-12.837c0.244,0.266 0.498,0.53 0.762,0.792c1.545,1.819 3.356,3.703 5.181,5.63c3.219,3.398 6.492,6.949 7.856,10.654c0.159,-0.566 0.4,-1.1 0.724,-1.605c0.608,-0.95 1.431,-1.702 2.477,-2.246c0.761,-0.396 1.61,-0.65 2.55,-0.746Zm-6.457,15.473c-0.392,0.554 -0.84,1.06 -1.324,1.544c-1.378,1.379 -3.028,2.591 -4.646,4.059c-0.667,0.605 -0.748,1.626 -0.185,2.33c0.564,0.704 1.578,0.848 2.315,0.329c-0,-0 2.684,-1.889 5.507,-4.885c-0.296,-0.33 -0.561,-0.689 -0.795,-1.078c-0.427,-0.706 -0.72,-1.472 -0.872,-2.299Zm10.188,-5.751c0.427,0.204 0.803,0.456 1.129,0.754c0.539,0.492 0.935,1.067 1.189,1.725c0.249,0.645 0.373,1.318 0.373,2.018c0,1.032 -0.249,1.95 -0.741,2.756c-0.493,0.805 -1.168,1.438 -2.028,1.899c-0.851,0.457 -1.795,0.687 -2.832,0.687c-1.082,0 -2.052,-0.238 -2.911,-0.71c-0.865,-0.476 -1.547,-1.127 -2.046,-1.954c-0.499,-0.827 -0.751,-1.762 -0.751,-2.807c-0,-0.351 0.107,-0.649 0.314,-0.897c0.224,-0.27 0.525,-0.411 0.907,-0.411c0.382,-0 0.683,0.141 0.908,0.411c0.206,0.248 0.314,0.546 0.314,0.897c-0,0.58 0.136,1.101 0.414,1.561c0.278,0.462 0.661,0.828 1.149,1.1c0.491,0.275 1.038,0.41 1.638,0.41c0.993,0 1.774,-0.262 2.334,-0.816c0.554,-0.547 0.824,-1.258 0.824,-2.126c-0,-0.623 -0.13,-1.169 -0.397,-1.633c-0.263,-0.458 -0.621,-0.816 -1.072,-1.073c-0.456,-0.26 -0.969,-0.387 -1.538,-0.387c-0.349,0 -0.642,-0.122 -0.882,-0.361c-0.237,-0.237 -0.361,-0.537 -0.361,-0.904c-0,-0.348 0.121,-0.642 0.361,-0.881c0.24,-0.24 0.533,-0.362 0.882,-0.362c0.425,0 0.817,-0.105 1.175,-0.318c0.365,-0.216 0.659,-0.504 0.881,-0.862c0.217,-0.35 0.325,-0.736 0.325,-1.158c-0,-0.641 -0.215,-1.178 -0.651,-1.608c-0.442,-0.436 -1.036,-0.644 -1.773,-0.644c-0.534,0 -1.01,0.102 -1.429,0.312c-0.405,0.202 -0.722,0.469 -0.949,0.807c-0.22,0.326 -0.327,0.697 -0.327,1.112c-0,0.358 -0.116,0.657 -0.337,0.9c-0.234,0.256 -0.528,0.386 -0.885,0.386c-0.38,-0 -0.678,-0.137 -0.902,-0.394c-0.211,-0.243 -0.319,-0.533 -0.319,-0.871c-0,-0.875 0.228,-1.666 0.681,-2.375c0.45,-0.702 1.06,-1.255 1.833,-1.657c0.762,-0.396 1.639,-0.598 2.634,-0.598c0.909,0 1.728,0.202 2.458,0.602c0.734,0.403 1.318,0.956 1.753,1.659c0.436,0.707 0.656,1.496 0.656,2.369c0,0.556 -0.133,1.095 -0.403,1.618c-0.259,0.502 -0.6,0.954 -1.024,1.354c-0.184,0.174 -0.375,0.33 -0.574,0.47Zm-20.694,3.777l-0,4.69c-0,0.366 -0.124,0.666 -0.361,0.903c-0.238,0.237 -0.537,0.361 -0.904,0.361c-0.366,0 -0.666,-0.124 -0.903,-0.361c-0.237,-0.237 -0.361,-0.537 -0.361,-0.903c-0,-0 -0,-15.166 -0,-15.166c-0,-0.367 0.124,-0.667 0.361,-0.904c0.237,-0.237 0.537,-0.361 0.903,-0.361l4.315,-0c1.143,-0 2.155,0.254 3.036,0.757c0.888,0.506 1.581,1.203 2.079,2.091c0.494,0.88 0.745,1.897 0.745,3.055c-0,1.128 -0.251,2.129 -0.746,3.002c-0.498,0.88 -1.191,1.573 -2.078,2.079c-0.881,0.503 -1.893,0.757 -3.036,0.757l-3.05,0Zm-17.149,1.883l6.401,-12.957c0.005,-0.01 0.01,-0.02 0.016,-0.03c0.256,-0.426 0.629,-0.637 1.118,-0.637c0.349,-0 0.643,0.122 0.882,0.361c0.237,0.237 0.362,0.537 0.362,0.904c-0,-0 -0,15.166 -0,15.166c-0,0.343 -0.119,0.639 -0.355,0.886c-0.242,0.252 -0.538,0.378 -0.889,0.378c-0.364,0 -0.668,-0.126 -0.914,-0.372c-0.248,-0.248 -0.372,-0.546 -0.372,-0.892l0,-10.388l-5.194,10.617c-0.004,0.009 -0.009,0.017 -0.014,0.026c-0.237,0.411 -0.602,0.621 -1.099,0.621c-0.532,-0 -0.92,-0.247 -1.157,-0.754l-5.173,-10.346l0,10.224c0,0.346 -0.123,0.644 -0.372,0.892c-0.248,0.249 -0.546,0.372 -0.892,0.372c-0.346,0 -0.644,-0.123 -0.893,-0.372c-0.248,-0.248 -0.372,-0.546 -0.372,-0.892c0,-0 0,-15.166 0,-15.166c0,-0.369 0.129,-0.672 0.379,-0.91c0.247,-0.237 0.542,-0.355 0.886,-0.355c0.516,-0 0.889,0.221 1.126,0.651c0.002,0.004 0.005,0.009 0.007,0.014l6.519,12.959Zm36.331,-1.286c-0.234,0.437 -0.48,0.866 -0.738,1.288c0.161,-0.05 0.303,-0.127 0.42,-0.243c0.237,-0.234 0.32,-0.55 0.32,-0.922c0,-0.041 -0,-0.082 -0.002,-0.123Zm-7.154,-5.527c0.095,1.035 0.092,1.958 0.002,2.792c0.371,-0.179 0.792,-0.272 1.267,-0.272c0.933,-0 1.66,0.361 2.209,1.02c0.365,0.438 0.597,0.945 0.676,1.527c0.201,-0.336 0.393,-0.678 0.576,-1.024c-0.355,-0.143 -0.677,-0.361 -0.966,-0.65c-0.553,-0.553 -0.857,-1.246 -0.857,-2.101c-0,-0.3 0.038,-0.582 0.116,-0.848c-0.348,0.15 -0.731,0.225 -1.15,0.225c-0.758,0 -1.376,-0.238 -1.873,-0.669Zm-12.028,2.466l3.05,-0c0.656,-0 1.241,-0.142 1.756,-0.432c0.506,-0.284 0.902,-0.68 1.186,-1.186c0.29,-0.515 0.432,-1.1 0.432,-1.756c-0,-0.683 -0.142,-1.283 -0.432,-1.799c-0.285,-0.508 -0.682,-0.908 -1.19,-1.2c-0.513,-0.295 -1.098,-0.439 -1.752,-0.439l-3.05,-0l-0,6.812Zm1.693,-1.694l1.357,0c0.344,0 0.655,-0.061 0.925,-0.213c0.231,-0.13 0.412,-0.311 0.542,-0.542c0.152,-0.27 0.213,-0.581 0.213,-0.925c0,-0.366 -0.058,-0.692 -0.213,-0.969c-0.134,-0.238 -0.321,-0.425 -0.559,-0.562c-0.265,-0.152 -0.57,-0.214 -0.908,-0.214l-1.357,-0l0,3.425Zm14.995,-2.179c0.359,-0.157 0.753,-0.237 1.183,-0.237c0.112,0 0.217,-0.025 0.311,-0.081c0.127,-0.075 0.229,-0.175 0.307,-0.299c0.049,-0.08 0.07,-0.169 0.07,-0.265c-0,-0.158 -0.039,-0.296 -0.146,-0.402c-0.142,-0.14 -0.349,-0.156 -0.585,-0.156c-0.25,-0 -0.476,0.034 -0.672,0.132c-0.125,0.062 -0.231,0.134 -0.301,0.238c-0.033,0.048 -0.039,0.105 -0.039,0.167c-0,0.323 -0.043,0.624 -0.128,0.903Zm-16.431,-7.097l2.793,-0c0.791,-0 1.531,0.099 2.222,0.291c-1.535,-1.9 -3.299,-3.75 -5.015,-5.547l-0,5.256Z" style="fill:#fff;"/></g></g><g id="Lecture"></g><g id="Autres"></g><g id="Éléments-graphiques" serif:id="Éléments graphiques"></g></g><g id="LINKED"><g id="_8N_L-L" serif:id="8N_L-L"></g><g id="_8N_L-RL" serif:id="8N_L-RL"></g><g id="_8N_L-R" serif:id="8N_L-R"></g><g id="_16N_L-L" serif:id="16N_L-L"></g><g id="_16N_L-RL_FULL" serif:id="16N_L-RL_FULL"></g><g id="_16N_L-RL_DEMI" serif:id="16N_L-RL_DEMI"></g><g id="_16N_L-R" serif:id="16N_L-R"></g></g><g id="RESTS"><g id="_1N_R" serif:id="1N_R"></g><g id="_2N_R" serif:id="2N_R"></g><g id="_4N_R" serif:id="4N_R"></g><g id="_16N_R" serif:id="16N_R"></g><g id="_8N_R" serif:id="8N_R"></g></g><g id="DOTTED"><g id="_4N" serif:id="4N"></g><g id="_8N_L-L1" serif:id="8N_L-L"></g><g id="_8N_L-R1" serif:id="8N_L-R"></g><g id="_2N_R1" serif:id="2N_R"></g><g id="_4N_R1" serif:id="4N_R"></g><g id="_8N_R1" serif:id="8N_R"></g></g></svg>