<?xml version="1.0" encoding="UTF-8" standalone="no"?><!DOCTYPE svg PUBLIC "-//W3C//DTD SVG 1.1//EN" "http://www.w3.org/Graphics/SVG/1.1/DTD/svg11.dtd"><svg width="100%" height="100%" viewBox="0 0 55 75" version="1.1" xmlns="http://www.w3.org/2000/svg" xmlns:xlink="http://www.w3.org/1999/xlink" xml:space="preserve" xmlns:serif="http://www.serif.com/" style="fill-rule:evenodd;clip-rule:evenodd;stroke-linejoin:round;stroke-miterlimit:2;"><g id="ICONES"><g id="Speakers"></g><g id="Notes"></g><g id="Sauvegarde"></g><g id="Export"><rect id="PDF" x="0" y="0" width="54.792" height="74.686" style="fill:none;"/><g id="PDF1" serif:id="PDF"><path id="PDF2" serif:id="PDF" d="M54.792,3.386c0,-1.87 -1.516,-3.386 -3.386,-3.386l-48.02,0c-1.87,0 -3.386,1.516 -3.386,3.386l0,67.914c0,1.87 1.516,3.386 3.386,3.386l48.02,0c1.87,0 3.386,-1.516 3.386,-3.386l0,-67.914Zm-2.116,0c-0,-0.701 -0.569,-1.27 -1.27,-1.27l-48.02,0c-0.701,0 -1.27,0.569 -1.27,1.27l0,67.914c0,0.701 0.569,1.27 1.27,1.27l48.02,-0c0.701,-0 1.27,-0.569 1.27,-1.27l-0,-67.914Zm-43.992,38.544l-0,2.996c-0,0.855 -0.305,1.548 -0.858,2.101c-0.553,0.553 -1.245,0.857 -2.1,0.857c-0.855,-0 -1.548,-0.304 -2.101,-0.857c-0.553,-0.553 -0.857,-1.246 -0.857,-2.101l-0,-15.166c-0,-0.855 0.304,-1.548 0.857,-2.101c0.553,-0.553 1.246,-0.857 2.101,-0.857l4.314,0c1.461,0 2.75,0.338 3.875,0.979c1.16,0.662 2.066,1.573 2.717,2.734c0.628,1.119 0.961,2.41 0.961,3.883c0,1.444 -0.332,2.72 -0.965,3.837c-0.65,1.149 -1.554,2.055 -2.713,2.716c-1.125,0.641 -2.414,0.979 -3.875,0.979l-1.356,-0Zm33.222,-1.683l0,4.679c0,0.798 -0.275,1.483 -0.824,2.056c-0.561,0.587 -1.266,0.902 -2.133,0.902c-0.81,-0 -1.508,-0.286 -2.09,-0.868c-0.582,-0.582 -0.868,-1.28 -0.868,-2.09c-0,0 -0,-15.166 -0,-15.166c-0,-0.855 0.304,-1.548 0.857,-2.101c0.553,-0.553 1.246,-0.857 2.101,-0.857l10.117,0c0.842,0 1.522,0.293 2.066,0.812c0.57,0.545 0.892,1.243 0.892,2.124c0,0.79 -0.278,1.479 -0.857,2.058c-0.553,0.553 -1.246,0.857 -2.101,0.857l-7.16,0l0,1.721l4.636,0c0.855,0 1.548,0.305 2.101,0.858c0.566,0.565 0.857,1.256 0.857,2.079c0,0.822 -0.291,1.513 -0.857,2.079c-0.553,0.553 -1.246,0.857 -2.101,0.857l-4.636,-0Zm-20.604,7.637l3.883,-0c1.523,-0 2.915,-0.261 4.181,-0.765c1.307,-0.521 2.434,-1.265 3.385,-2.224c0.945,-0.955 1.68,-2.081 2.199,-3.381c0.504,-1.266 0.765,-2.659 0.765,-4.182c-0,-1.525 -0.262,-2.916 -0.767,-4.175c-0.518,-1.291 -1.252,-2.411 -2.197,-3.365c-0.951,-0.96 -2.078,-1.704 -3.385,-2.225c-1.266,-0.504 -2.658,-0.765 -4.181,-0.765l-3.883,0c-0.855,0 -1.548,0.304 -2.101,0.857c-0.553,0.553 -0.857,1.246 -0.857,2.101c-0,0 -0,15.166 -0,15.166c-0,0.855 0.304,1.548 0.857,2.101c0.553,0.553 1.246,0.857 2.101,0.857Zm-14.312,-7.648l0,4.69c0,0.367 -0.124,0.666 -0.361,0.903c-0.237,0.238 -0.537,0.362 -0.903,0.362c-0.367,-0 -0.666,-0.124 -0.904,-0.362c-0.237,-0.237 -0.361,-0.536 -0.361,-0.903l0,-15.166c0,-0.367 0.124,-0.666 0.361,-0.903c0.238,-0.238 0.537,-0.362 0.904,-0.362l4.314,0c1.144,0 2.155,0.255 3.036,0.757c0.888,0.506 1.581,1.203 2.08,2.091c0.494,0.88 0.744,1.898 0.744,3.055c0,1.129 -0.25,2.129 -0.745,3.003c-0.498,0.879 -1.191,1.573 -2.079,2.079c-0.881,0.502 -1.892,0.756 -3.036,0.756l-3.05,0Zm33.223,-1.682l0,6.372c0,0.344 -0.118,0.639 -0.354,0.886c-0.239,0.25 -0.541,0.379 -0.91,0.379c-0.346,-0 -0.644,-0.124 -0.893,-0.372c-0.249,-0.249 -0.372,-0.547 -0.372,-0.893c-0,0 -0,-15.166 -0,-15.166c-0,-0.367 0.124,-0.666 0.361,-0.903c0.237,-0.238 0.537,-0.362 0.904,-0.362l10.117,0c0.364,0 0.661,0.119 0.897,0.344c0.24,0.23 0.368,0.528 0.368,0.899c0,0.331 -0.119,0.618 -0.361,0.861c-0.237,0.237 -0.537,0.361 -0.904,0.361l-8.853,-0l0,5.108l6.329,-0c0.367,-0 0.667,0.124 0.904,0.361c0.239,0.24 0.361,0.533 0.361,0.882c0,0.348 -0.122,0.642 -0.361,0.881c-0.237,0.238 -0.537,0.362 -0.904,0.362l-6.329,-0Zm-18.911,7.637l3.883,-0c1.294,-0 2.479,-0.216 3.554,-0.645c1.084,-0.432 2.02,-1.047 2.809,-1.843c0.787,-0.795 1.397,-1.734 1.829,-2.816c0.429,-1.076 0.645,-2.261 0.645,-3.555c-0,-1.294 -0.217,-2.476 -0.646,-3.544c-0.431,-1.075 -1.041,-2.01 -1.828,-2.805c-0.789,-0.796 -1.725,-1.411 -2.809,-1.843c-1.075,-0.429 -2.26,-0.645 -3.554,-0.645l-3.883,0c-0.367,0 -0.667,0.124 -0.904,0.362c-0.237,0.237 -0.361,0.536 -0.361,0.903c0,0 0,15.166 0,15.166c0,0.367 0.124,0.666 0.361,0.903c0.237,0.238 0.537,0.362 0.904,0.362Zm1.264,-2.357l2.619,-0c1.242,-0 2.339,-0.277 3.291,-0.837c0.948,-0.558 1.69,-1.324 2.228,-2.299c0.542,-0.983 0.81,-2.105 0.81,-3.366c0,-1.26 -0.268,-2.383 -0.81,-3.366c-0.538,-0.973 -1.279,-1.736 -2.226,-2.287c-0.952,-0.554 -2.051,-0.827 -3.293,-0.827l-2.619,0l0,12.982Zm1.694,-1.693l0.925,-0c0.916,-0 1.73,-0.19 2.432,-0.603c0.683,-0.402 1.217,-0.955 1.604,-1.658c0.41,-0.743 0.6,-1.595 0.6,-2.548c-0,-0.953 -0.19,-1.805 -0.6,-2.548c-0.385,-0.698 -0.915,-1.246 -1.594,-1.641c-0.705,-0.41 -1.522,-0.598 -2.442,-0.598l-0.925,0l-0,9.596Zm-17.27,-4.369l3.05,-0c0.656,-0 1.242,-0.142 1.756,-0.431c0.506,-0.285 0.902,-0.681 1.187,-1.187c0.289,-0.514 0.431,-1.1 0.431,-1.756c0,-0.683 -0.141,-1.283 -0.431,-1.799c-0.286,-0.507 -0.683,-0.907 -1.19,-1.199c-0.514,-0.295 -1.098,-0.44 -1.753,-0.44l-3.05,-0l0,6.812Zm1.694,-1.693l1.356,-0c0.345,-0 0.656,-0.062 0.926,-0.214c0.231,-0.13 0.411,-0.31 0.541,-0.541c0.152,-0.27 0.214,-0.581 0.214,-0.926c-0,-0.366 -0.058,-0.692 -0.214,-0.968c-0.134,-0.239 -0.32,-0.425 -0.558,-0.562c-0.266,-0.153 -0.571,-0.215 -0.909,-0.215l-1.356,0l-0,3.426Z" style="fill:#fff;"/></g></g><g id="Lecture"></g><g id="Autres"></g><g id="Éléments-graphiques" serif:id="Éléments graphiques"></g></g><g id="LINKED"><g id="_8N_L-L" serif:id="8N_L-L"></g><g id="_8N_L-RL" serif:id="8N_L-RL"></g><g id="_8N_L-R" serif:id="8N_L-R"></g><g id="_16N_L-L" serif:id="16N_L-L"></g><g id="_16N_L-RL_FULL" serif:id="16N_L-RL_FULL"></g><g id="_16N_L-RL_DEMI" serif:id="16N_L-RL_DEMI"></g><g id="_16N_L-R" serif:id="16N_L-R"></g></g><g id="RESTS"><g id="_1N_R" serif:id="1N_R"></g><g id="_2N_R" serif:id="2N_R"></g><g id="_4N_R" serif:id="4N_R"></g><g id="_16N_R" serif:id="16N_R"></g><g id="_8N_R" serif:id="8N_R"></g></g><g id="DOTTED"><g id="_4N" serif:id="4N"></g><g id="_8N_L-L1" serif:id="8N_L-L"></g><g id="_8N_L-R1" serif:id="8N_L-R"></g><g id="_2N_R1" serif:id="2N_R"></g><g id="_4N_R1" serif:id="4N_R"></g><g id="_8N_R1" serif:id="8N_R"></g></g></svg>