<?xml version="1.0" encoding="UTF-8" standalone="no"?><!DOCTYPE svg PUBLIC "-//W3C//DTD SVG 1.1//EN" "http://www.w3.org/Graphics/SVG/1.1/DTD/svg11.dtd"><svg width="100%" height="100%" viewBox="0 0 55 75" version="1.1" xmlns="http://www.w3.org/2000/svg" xmlns:xlink="http://www.w3.org/1999/xlink" xml:space="preserve" xmlns:serif="http://www.serif.com/" style="fill-rule:evenodd;clip-rule:evenodd;stroke-linejoin:round;stroke-miterlimit:2;"><g id="ICONES"><g id="Speakers"></g><g id="Notes"></g><g id="Sauvegarde"></g><g id="Export"></g><g id="Lecture"></g><g id="Autres"></g><g id="Éléments-graphiques" serif:id="Éléments graphiques"></g><rect id="PDF" x="0" y="0" width="54.792" height="74.686" style="fill:none;"/><path id="PDF1" serif:id="PDF" d="M54.792,3.386c0,-1.87 -1.516,-3.386 -3.386,-3.386l-48.02,0c-1.87,0 -3.386,1.516 -3.386,3.386l0,67.914c0,1.87 1.516,3.386 3.386,3.386l48.02,0c1.87,0 3.386,-1.516 3.386,-3.386l0,-67.914Zm-2.116,0c-0,-0.701 -0.569,-1.27 -1.27,-1.27l-48.02,0c-0.701,0 -1.27,0.569 -1.27,1.27l0,67.914c0,0.701 0.569,1.27 1.27,1.27l48.02,-0c0.701,-0 1.27,-0.569 1.27,-1.27l-0,-67.914Z" style="fill:#fff;"/><path d="M23.756,38.094l1.995,-21.253c0.123,-1.31 1.228,-2.308 2.543,-2.298c1.316,0.011 2.405,1.026 2.507,2.338l1.868,24.027c0.656,0.097 1.243,0.448 1.64,0.967c0.467,-0.611 1.203,-0.995 2.012,-0.995l13.608,0c1.399,0 2.534,1.136 2.534,2.535c0,1.398 -1.135,2.534 -2.534,2.534l-11.565,-0l-1.029,4.734c-0.239,1.096 -1.169,1.905 -2.287,1.989c-1.119,0.084 -2.159,-0.577 -2.558,-1.625l-1.941,-5.098l-0.227,-0c-0.874,-0 -1.651,-0.444 -2.107,-1.126l-1.222,13.022c-0.12,1.28 -1.18,2.267 -2.465,2.297c-1.285,0.03 -2.389,-0.908 -2.568,-2.181l-1.687,-12.013c-0.127,0.003 -0.255,-0.004 -0.383,-0.022c-0.28,-0.037 -0.546,-0.12 -0.79,-0.241l-0.527,1.914c-0.275,0.997 -1.128,1.727 -2.155,1.845c-1.028,0.117 -2.024,-0.401 -2.517,-1.311l-1.183,-2.184l-7.855,-0c-1.398,-0 -2.534,-1.136 -2.534,-2.534c0,-1.399 1.136,-2.535 2.534,-2.535l9.365,0c0.31,0 0.612,0.057 0.893,0.163l1.345,-4.885c0.312,-1.132 1.361,-1.902 2.534,-1.86c1.173,0.042 2.164,0.884 2.395,2.035l0.212,1.064c0.256,-0.039 0.52,-0.038 0.784,0.005c0.529,0.086 1.001,0.334 1.365,0.692Zm0.584,13.859l3.279,-34.937c0.032,-0.34 0.319,-0.599 0.66,-0.596c0.342,0.002 0.625,0.266 0.651,0.607l2.001,25.73l1.365,-0c0.273,-0 0.518,0.168 0.615,0.423l1.775,4.662l0.992,-4.567c0.066,-0.303 0.334,-0.518 0.643,-0.518l13.608,-0c0.363,-0 0.658,0.294 0.658,0.658c-0,0.363 -0.295,0.658 -0.658,0.658l-13.077,-0l-1.351,6.212c-0.062,0.284 -0.303,0.495 -0.594,0.516c-0.29,0.022 -0.56,-0.15 -0.664,-0.422l-2.4,-6.306l-1.521,-0c-0.343,-0 -0.629,-0.265 -0.656,-0.607l-1.453,-18.693l-3.088,32.897c-0.031,0.332 -0.306,0.589 -0.64,0.596c-0.334,0.008 -0.62,-0.235 -0.667,-0.566l-2.193,-15.611l-0.81,1.62c-0.126,0.251 -0.397,0.395 -0.676,0.358c-0.278,-0.038 -0.502,-0.248 -0.558,-0.523l-0.773,-3.866l-2.044,7.423c-0.071,0.259 -0.293,0.448 -0.56,0.479c-0.266,0.03 -0.525,-0.104 -0.653,-0.34l-1.715,-3.167l-8.973,-0c-0.363,-0 -0.658,-0.295 -0.658,-0.658c0,-0.364 0.295,-0.658 0.658,-0.658l9.365,-0c0.241,-0 0.463,0.132 0.578,0.344l1.123,2.074l2.346,-8.519c0.081,-0.294 0.354,-0.494 0.658,-0.483c0.305,0.011 0.562,0.229 0.622,0.528l0.941,4.704l0.898,-1.796c0.129,-0.258 0.41,-0.402 0.695,-0.355c0.284,0.046 0.505,0.272 0.545,0.557l1.706,12.142Z" style="fill:#fff;"/></g></svg>