<?xml version="1.0" encoding="UTF-8" standalone="no"?><!DOCTYPE svg PUBLIC "-//W3C//DTD SVG 1.1//EN" "http://www.w3.org/Graphics/SVG/1.1/DTD/svg11.dtd"><svg width="100%" height="100%" viewBox="0 0 16 95" version="1.1" xmlns="http://www.w3.org/2000/svg" xmlns:xlink="http://www.w3.org/1999/xlink" xml:space="preserve" xmlns:serif="http://www.serif.com/" style="fill-rule:evenodd;clip-rule:evenodd;stroke-linejoin:round;stroke-miterlimit:2;"><g id="TEST-ESPACEMENT" serif:id="TEST ESPACEMENT"></g><g id="RYTHM"><g id="RESTS"><g id="_1N_R" serif:id="1N_R"></g><g id="_2N_R" serif:id="2N_R"></g><g id="_4N_R" serif:id="4N_R"></g><g id="_16N_R" serif:id="16N_R"></g><g id="_8N_R" serif:id="8N_R"></g></g><g id="DOTTED"><g id="_4N" serif:id="4N"></g><g id="_8N_L-L" serif:id="8N_L-L"></g><g id="_8N_L-R" serif:id="8N_L-R"></g><g id="_2N_R1" serif:id="2N_R"></g><g id="_4N_R1" serif:id="4N_R"></g><g id="_8N_R1" serif:id="8N_R"></g></g></g><g id="ICONES"><g id="Speakers"></g><g id="Notes"></g><g id="Sauvegarde"></g><g id="Export"></g><g id="Lecture"></g><g id="Autres"></g><g id="Éléments-graphiques" serif:id="Éléments graphiques"></g><g id="Rytmes"></g><rect id="metronome-stick" x="0" y="0" width="15.158" height="94.188" style="fill:none;"/><path d="M4.544,17.128c-0.996,-0.105 -1.393,-0.298 -2.044,-1.073c-0.74,-0.879 -1.582,-1.969 -1.385,-3.102l1.385,-8.476c0.324,-1.865 1.35,-3.227 3.243,-3.227l3.672,0c1.893,-0 2.919,1.362 3.243,3.227l1.312,8.476c0.197,1.133 0.021,1.93 -0.719,2.809c-0.651,0.775 -1.574,1.261 -2.57,1.366l0,71.916c0,2.149 -0.953,3.894 -3.102,3.894c-2.149,-0 -3.035,-1.745 -3.035,-3.894l-0,-71.916Z" style="fill:#454545;"/><path d="M3.579,17.714c-1.023,-0.108 -1.971,-0.608 -2.64,-1.403c-0.76,-0.904 -1.082,-2.097 -0.88,-3.26l1.693,-9.736c0.334,-1.916 1.997,-3.315 3.941,-3.315l3.772,0c1.945,-0 3.608,1.399 3.941,3.315l1.693,9.736c0.203,1.163 -0.119,2.356 -0.879,3.26c-0.67,0.795 -1.618,1.295 -2.641,1.403l0,72.474c0,2.207 -1.792,4 -4,4c-2.207,-0 -4,-1.793 -4,-4l0,-72.474Zm2.5,-2.478l-2.079,0c-0.443,0 -0.863,-0.195 -1.148,-0.534c-0.285,-0.339 -0.406,-0.787 -0.33,-1.223l1.693,-9.736c0.125,-0.718 0.749,-1.243 1.478,-1.243l3.772,0c0.729,-0 1.353,0.525 1.478,1.243l1.693,9.736c0.076,0.436 -0.045,0.884 -0.33,1.223c-0.285,0.339 -0.705,0.534 -1.148,0.534l-2.079,0l0,74.952c0,0.828 -0.672,1.5 -1.5,1.5c-0.828,-0 -1.5,-0.672 -1.5,-1.5l0,-74.952Z" style="fill:#fff;"/></g></svg>