<?xml version="1.0" encoding="UTF-8" standalone="no"?><!DOCTYPE svg PUBLIC "-//W3C//DTD SVG 1.1//EN" "http://www.w3.org/Graphics/SVG/1.1/DTD/svg11.dtd"><svg width="100%" height="100%" viewBox="0 0 91 113" version="1.1" xmlns="http://www.w3.org/2000/svg" xmlns:xlink="http://www.w3.org/1999/xlink" xml:space="preserve" xmlns:serif="http://www.serif.com/" style="fill-rule:evenodd;clip-rule:evenodd;stroke-linejoin:round;stroke-miterlimit:2;"><g id="ICONES"><g id="Speakers"></g><g id="Notes"></g><g id="Sauvegarde"></g><g id="Export"></g><g id="Lecture"></g><g id="Autres"></g><g id="Éléments-graphiques" serif:id="Éléments graphiques"></g></g><g id="RYTHM"><g id="LINKED"><g id="_8N_L-L" serif:id="8N_L-L"></g><g id="_8N_L-RL" serif:id="8N_L-RL"></g><g id="_8N_L-R" serif:id="8N_L-R"></g><g id="_16N_L-L" serif:id="16N_L-L"></g><g id="_16N_L-RL_FULL" serif:id="16N_L-RL_FULL"></g><g id="_16N_L-RL_DEMI" serif:id="16N_L-RL_DEMI"></g><g id="_16N_L-R" serif:id="16N_L-R"></g></g><g id="RESTS"><g id="_1N_R" serif:id="1N_R"></g><g id="_2N_R" serif:id="2N_R"></g><g id="_4N_R" serif:id="4N_R"></g><g id="_16N_R" serif:id="16N_R"></g><g id="_8N_R" serif:id="8N_R"></g></g><g id="DOTTED"><g id="_4N" serif:id="4N"></g><g id="_8N_L-L1" serif:id="8N_L-L"></g><g id="_8N_L-R1" serif:id="8N_L-R"></g><g id="_2N_R1" serif:id="2N_R"></g><g id="_4N_R1" serif:id="4N_R"></g><g id="_8N_R1" serif:id="8N_R"></g></g></g><g id="TEST-ESPACEMENT" serif:id="TEST ESPACEMENT"></g><rect id="metronome-base" x="0" y="0" width="90.009" height="112.528" style="fill:none;"/><path d="M43.838,41.947l0,28.735c0,2.21 -1.791,4 -4,4l-22.862,0c-1.292,0 -2.505,-0.623 -3.255,-1.675c-0.751,-1.051 -0.948,-2.4 -0.529,-3.622l22.862,-66.682c0.555,-1.617 2.075,-2.703 3.784,-2.703l10.333,0c1.709,-0 3.229,1.086 3.783,2.703l22.863,66.682c0.419,1.222 0.222,2.571 -0.529,3.622c-0.751,1.052 -1.963,1.675 -3.255,1.675l-22.862,0c-2.21,0 -4,-1.79 -4,-4l-0,-28.735l-1.167,-1.499l-1.166,1.499Zm-2.5,-0.857l0,29.592c0,0.829 -0.672,1.5 -1.5,1.5l-22.862,0c-0.485,0 -0.94,-0.233 -1.221,-0.628c-0.282,-0.394 -0.356,-0.9 -0.198,-1.358l22.862,-66.682c0.208,-0.607 0.778,-1.014 1.419,-1.014l10.333,0c0.64,-0 1.211,0.407 1.418,1.014l22.863,66.682c0.157,0.458 0.083,0.964 -0.198,1.358c-0.282,0.395 -0.736,0.628 -1.221,0.628l-22.862,0c-0.829,0 -1.5,-0.671 -1.5,-1.5l-0,-29.592l-3.667,-4.715l-3.666,4.715Z" style="fill:#fff;"/><path d="M13.728,76.154c-1.709,-0 -3.229,1.086 -3.784,2.702l-9.728,28.374c-0.419,1.222 -0.222,2.571 0.529,3.623c0.751,1.051 1.963,1.675 3.255,1.675l82.009,-0c1.291,-0 2.504,-0.624 3.255,-1.675c0.75,-1.052 0.947,-2.401 0.528,-3.623l-9.728,-28.374c-0.554,-1.616 -2.074,-2.702 -3.784,-2.702l-62.552,-0Zm0,2.5c-0.641,-0 -1.211,0.407 -1.419,1.013l-9.728,28.374c-0.157,0.458 -0.083,0.964 0.198,1.358c0.282,0.395 0.737,0.629 1.221,0.629l82.009,-0c0.484,-0 0.939,-0.234 1.22,-0.629c0.282,-0.394 0.356,-0.9 0.199,-1.358l-9.729,-28.374c-0.208,-0.606 -0.778,-1.013 -1.419,-1.013l-62.552,-0Z" style="fill:#fff;"/></svg>