<?xml version="1.0" encoding="UTF-8" standalone="no"?><!DOCTYPE svg PUBLIC "-//W3C//DTD SVG 1.1//EN" "http://www.w3.org/Graphics/SVG/1.1/DTD/svg11.dtd"><svg width="100%" height="100%" viewBox="0 0 40 60" version="1.1" xmlns="http://www.w3.org/2000/svg" xmlns:xlink="http://www.w3.org/1999/xlink" xml:space="preserve" xmlns:serif="http://www.serif.com/" style="fill-rule:evenodd;clip-rule:evenodd;stroke-linejoin:round;stroke-miterlimit:2;"><g id="ICONES"><g id="Speakers"></g><g id="Notes"><rect id="Blanche" x="0" y="-0" width="39.522" height="59.696" style="fill:none;"/><g id="Blanche1" serif:id="Blanche"><path id="Blanche2" serif:id="Blanche" d="M15.523,0.402l0.372,-0.181l0.399,-0.13l0.331,-0.063l0.418,-0.028l0.41,0.029l0.396,0.084l0.29,0.098l0.205,0.089l0.239,0.129l0.26,0.176l0.279,0.236l0.275,0.301l0.234,0.34l0.13,0.245l0.109,0.259l0.074,0.233c-0,-0.001 -0,0.002 -0.001,0.009l0.057,0.235l0.039,0.28l0.014,0.287l-0,42.025c0.202,5.16 -1.068,8.552 -2.802,10.743c-2.76,3.487 -6.868,4.27 -10.14,3.753c-2.498,-0.394 -4.461,-1.612 -5.322,-2.732c-2.199,-2.86 -3.094,-8.467 1.623,-12.075c2.018,-1.544 5.343,-2.781 10.596,-2.791l0,-38.93l0.014,-0.287l0.039,-0.28l0.065,-0.272l0.089,-0.261l0.175,-0.372l0.223,-0.342l0.265,-0.308l0.305,-0.271l0.34,-0.228Zm-4.243,44.734c-3.615,0.819 -7.31,3.784 -8.315,6.525c-0.567,1.546 -0.313,2.815 0.382,3.719c0.897,1.167 2.819,1.868 5.447,1.272c3.615,-0.819 7.31,-3.784 8.315,-6.525c0.567,-1.546 0.313,-2.814 -0.382,-3.719c-0.897,-1.167 -2.819,-1.868 -5.447,-1.272Z" style="fill:#fff;"/></g></g><g id="Sauvegarde"></g><g id="Export"></g><g id="Lecture"></g><g id="Autres"></g><g id="Éléments-graphiques" serif:id="Éléments graphiques"></g></g><g id="RYTHM"><g id="LINKED"><g id="_8N_L-L" serif:id="8N_L-L"></g><g id="_8N_L-RL" serif:id="8N_L-RL"></g><g id="_8N_L-R" serif:id="8N_L-R"></g><g id="_16N_L-L" serif:id="16N_L-L"></g><g id="_16N_L-RL_FULL" serif:id="16N_L-RL_FULL"></g><g id="_16N_L-RL_DEMI" serif:id="16N_L-RL_DEMI"></g><g id="_16N_L-R" serif:id="16N_L-R"></g></g><g id="RESTS"><g id="_1N_R" serif:id="1N_R"></g><g id="_2N_R" serif:id="2N_R"></g><g id="_4N_R" serif:id="4N_R"></g><g id="_16N_R" serif:id="16N_R"></g><g id="_8N_R" serif:id="8N_R"></g></g><g id="DOTTED"><g id="_4N" serif:id="4N"></g><g id="_8N_L-L1" serif:id="8N_L-L"></g><g id="_8N_L-R1" serif:id="8N_L-R"></g><g id="_2N_R1" serif:id="2N_R"></g><g id="_4N_R1" serif:id="4N_R"></g><g id="_8N_R1" serif:id="8N_R"></g></g></g></svg>