<?xml version="1.0" encoding="UTF-8" standalone="no"?><!DOCTYPE svg PUBLIC "-//W3C//DTD SVG 1.1//EN" "http://www.w3.org/Graphics/SVG/1.1/DTD/svg11.dtd"><svg width="100%" height="100%" viewBox="0 0 40 60" version="1.1" xmlns="http://www.w3.org/2000/svg" xmlns:xlink="http://www.w3.org/1999/xlink" xml:space="preserve" xmlns:serif="http://www.serif.com/" style="fill-rule:evenodd;clip-rule:evenodd;stroke-linejoin:round;stroke-miterlimit:2;"><g id="ICONES"><g id="Speakers"></g><g id="Notes"><rect id="Croche" x="0" y="-0" width="39.522" height="59.696" style="fill:none;"/><clipPath id="_clip1"><rect id="Croche1" serif:id="Croche" x="0" y="-0" width="39.522" height="59.696"/></clipPath><g clip-path="url(#_clip1)"><path id="Croche2" serif:id="Croche" d="M17.101,0.002l0.352,0.027l0.396,0.084l0.29,0.098l0.205,0.089l0.239,0.129l0.26,0.176l0.279,0.236l0.275,0.301l0.234,0.34l0.13,0.245l0.109,0.259l0.074,0.233c0.264,0.958 0.9,1.935 1.69,2.974c0.275,0.362 0.569,0.728 0.879,1.097c0.458,0.445 0.953,0.884 1.468,1.325c2.459,2.105 5.44,4.096 8.041,6.138c4.351,3.416 7.5,7.185 7.5,11.276c-0,3.947 -1.889,7.757 -4.277,10.86c-3.275,4.254 -7.373,7.134 -7.373,7.134c-1.305,0.919 -3.101,0.665 -4.099,-0.582c-0.998,-1.246 -0.855,-3.054 0.328,-4.127c1.198,-1.088 2.415,-2.026 3.507,-3.011c1.193,-1.077 2.244,-2.19 2.678,-3.911c0.338,-1.344 0.317,-3.002 -0.104,-5.172c-0.722,-3.716 -4.05,-7.2 -7.237,-10.565c-0.987,-1.042 -1.965,-2.074 -2.892,-3.091l-0,32.491c0.202,5.16 -1.068,8.552 -2.802,10.743c-2.76,3.487 -6.868,4.27 -10.14,3.753c-2.498,-0.394 -4.461,-1.612 -5.322,-2.732c-2.199,-2.86 -3.094,-8.467 1.623,-12.075c2.018,-1.544 5.343,-2.781 10.596,-2.791l0,-38.93l0.014,-0.287l0.039,-0.28l0.065,-0.272l0.089,-0.261l0.175,-0.372l0.223,-0.342l0.265,-0.308l0.305,-0.271l0.34,-0.228l0.372,-0.181l0.399,-0.13l0.331,-0.063l0.418,-0.028l0.058,0.002Z" style="fill:#fff;"/></g></g><g id="Sauvegarde"></g><g id="Export"></g><g id="Lecture"></g><g id="Autres"></g><g id="Éléments-graphiques" serif:id="Éléments graphiques"></g></g><g id="RYTHM"><g id="LINKED"><g id="_8N_L-L" serif:id="8N_L-L"></g><g id="_8N_L-RL" serif:id="8N_L-RL"></g><g id="_8N_L-R" serif:id="8N_L-R"></g><g id="_16N_L-L" serif:id="16N_L-L"></g><g id="_16N_L-RL_FULL" serif:id="16N_L-RL_FULL"></g><g id="_16N_L-RL_DEMI" serif:id="16N_L-RL_DEMI"></g><g id="_16N_L-R" serif:id="16N_L-R"></g></g><g id="RESTS"><g id="_1N_R" serif:id="1N_R"></g><g id="_2N_R" serif:id="2N_R"></g><g id="_4N_R" serif:id="4N_R"></g><g id="_16N_R" serif:id="16N_R"></g><g id="_8N_R" serif:id="8N_R"></g></g><g id="DOTTED"><g id="_4N" serif:id="4N"></g><g id="_8N_L-L1" serif:id="8N_L-L"></g><g id="_8N_L-R1" serif:id="8N_L-R"></g><g id="_2N_R1" serif:id="2N_R"></g><g id="_4N_R1" serif:id="4N_R"></g><g id="_8N_R1" serif:id="8N_R"></g></g></g></svg>