<?xml version="1.0" encoding="UTF-8" standalone="no"?><!DOCTYPE svg PUBLIC "-//W3C//DTD SVG 1.1//EN" "http://www.w3.org/Graphics/SVG/1.1/DTD/svg11.dtd"><svg width="100%" height="100%" viewBox="0 0 143 62" version="1.1" xmlns="http://www.w3.org/2000/svg" xmlns:xlink="http://www.w3.org/1999/xlink" xml:space="preserve" xmlns:serif="http://www.serif.com/" style="fill-rule:evenodd;clip-rule:evenodd;stroke-linejoin:round;stroke-miterlimit:2;"><g id="ICONES"><g id="Speakers"></g><g id="Notes"></g><g id="Sauvegarde"></g><g id="Export"></g><g id="Lecture"></g><g id="Autres"></g><g id="Éléments-graphiques" serif:id="Éléments graphiques"></g></g><g id="Son-métronome" serif:id="Son métronome"><g id="With-lines" serif:id="With lines"></g></g><g id="RYTHM"><g id="LINKED"><g id="_8N_L-L" serif:id="8N_L-L"></g><g id="_8N_L-RL" serif:id="8N_L-RL"></g><g id="_8N_L-R" serif:id="8N_L-R"></g><g id="_16N_L-L" serif:id="16N_L-L"></g><g id="_16N_L-RL_FULL" serif:id="16N_L-RL_FULL"></g><g id="_16N_L-RL_DEMI" serif:id="16N_L-RL_DEMI"></g><g id="_16N_L-R" serif:id="16N_L-R"></g></g><g id="RESTS"><g id="_1N_R" serif:id="1N_R"></g><g id="_2N_R" serif:id="2N_R"></g><g id="_4N_R" serif:id="4N_R"></g><g id="_16N_R" serif:id="16N_R"></g><g id="_8N_R" serif:id="8N_R"></g></g><g id="DOTTED"><g id="_4N" serif:id="4N"></g><g id="_8N_L-L1" serif:id="8N_L-L"></g><g id="_8N_L-R1" serif:id="8N_L-R"></g><g id="_2N_R1" serif:id="2N_R"></g><g id="_4N_R1" serif:id="4N_R"></g><g id="_8N_R1" serif:id="8N_R"></g></g></g><rect id="Anacrusis" x="0" y="0" width="142.534" height="61.825" style="fill:none;"/><clipPath id="_clip1"><rect x="0" y="0" width="142.534" height="61.825"/></clipPath><g clip-path="url(#_clip1)"><path id="Anacrusis1" serif:id="Anacrusis" d="M106.908,61.246c-0.926,0.383 -1.931,0.579 -3.018,0.579c-1.452,0 -2.748,-0.318 -3.894,-0.922c-1.225,-0.645 -2.197,-1.586 -2.908,-2.832c-0.66,-1.158 -1.027,-2.56 -1.027,-4.226c0,0 0,-5.587 0,-5.587c0,-0.929 0.33,-1.709 0.969,-2.348c0.639,-0.638 1.419,-0.968 2.348,-0.968c0.964,-0 1.745,0.344 2.369,0.968c0.639,0.639 0.969,1.419 0.969,2.348l-0,5.587c-0,0.371 0.02,0.687 0.16,0.926c0.081,0.138 0.188,0.245 0.327,0.314c0.253,0.125 0.541,0.171 0.859,0.171c0.301,0 0.576,-0.044 0.818,-0.161c0.155,-0.074 0.286,-0.165 0.376,-0.294c0.037,-0.052 0.045,-0.115 0.045,-0.182l0,-6.361c0,-0.98 0.353,-1.753 0.958,-2.358c0.606,-0.606 1.379,-0.958 2.359,-0.958c0.948,-0 1.714,0.331 2.328,0.917c0.644,0.615 1.01,1.403 1.01,2.399l-0,10.1c-0,1.03 -0.381,1.82 -1.01,2.421c-0.614,0.586 -1.38,0.917 -2.328,0.917c-0.66,0 -1.226,-0.16 -1.71,-0.45Zm19.619,-7.352c-0.011,-0.186 -0.016,-0.374 -0.016,-0.564c-0,-1.624 0.353,-3.049 1.016,-4.286c0.697,-1.3 1.662,-2.321 2.889,-3.07c1.223,-0.747 2.628,-1.14 4.225,-1.14c1.589,0 2.968,0.387 4.15,1.108c1.206,0.736 2.144,1.751 2.806,3.053c0.613,1.207 0.937,2.577 0.937,4.12c0,0.997 -0.369,1.768 -0.993,2.36c-0.116,0.111 -0.239,0.213 -0.368,0.304c0.294,0.486 0.428,1.001 0.446,1.523c0.035,0.972 -0.311,1.831 -1.128,2.511c-0.675,0.573 -1.526,1.065 -2.57,1.443c-1.025,0.372 -2.013,0.548 -2.958,0.548c-1.627,-0 -3.063,-0.376 -4.318,-1.089c-1.296,-0.737 -2.313,-1.757 -3.05,-3.064c-0.283,-0.503 -0.513,-1.034 -0.686,-1.593c-0.028,1.194 -0.406,2.243 -1.112,3.154c-0.644,0.832 -1.519,1.504 -2.656,1.973c-0.972,0.401 -2.086,0.619 -3.349,0.619l-0,-0c-1.119,-0 -2.229,-0.187 -3.329,-0.567c-1.265,-0.436 -2.278,-1.108 -3.048,-1.963c-0.703,-0.767 -0.956,-1.641 -0.829,-2.6c0.109,-0.814 0.48,-1.54 1.186,-2.137c0.052,-0.044 0.106,-0.086 0.162,-0.126c0.157,-0.112 0.316,-0.209 0.476,-0.29c-0.966,-1.007 -1.416,-2.185 -1.416,-3.499c0,-1.358 0.404,-2.476 1.123,-3.381c0.658,-0.829 1.524,-1.466 2.621,-1.88c0.913,-0.345 1.916,-0.527 3.011,-0.527c1.376,0 2.557,0.263 3.553,0.736c1.073,0.509 1.934,1.204 2.597,2.067c0.603,0.783 0.786,1.614 0.666,2.458c-0.114,0.797 -0.482,1.502 -1.196,2.051c0.327,0.325 0.592,0.669 0.801,1.024c0.138,0.236 0.257,0.477 0.357,0.724Zm-90.426,-4.253l-0,-48.27c-0,-0.828 0.672,-1.5 1.5,-1.5c0.828,0 1.5,0.672 1.5,1.5l-0,27.477l25.977,0l-0,-27.477c-0,-0.828 0.672,-1.5 1.5,-1.5c0.828,0 1.5,0.672 1.5,1.5l-0,27.477l36.872,0c0.828,0 1.5,0.672 1.5,1.5c-0,0.828 -0.672,1.5 -1.5,1.5l-36.872,0l-0,15.729c0.127,-0.697 0.449,-1.25 0.888,-1.688c0.572,-0.572 1.339,-0.947 2.369,-0.947c0.676,-0 1.24,0.162 1.708,0.435c0.858,-0.374 1.785,-0.564 2.783,-0.564c1.163,-0 2.047,0.233 2.679,0.561c0.726,0.378 1.178,0.893 1.454,1.444c0.223,0.446 0.346,0.939 0.327,1.483c0.688,-0.972 1.56,-1.76 2.616,-2.364c1.268,-0.724 2.703,-1.103 4.313,-1.103c1.615,0 3.049,0.381 4.31,1.108c1.286,0.74 2.299,1.757 3.04,3.053c0.718,1.257 1.104,2.688 1.124,4.335c0,1.615 -0.384,3.054 -1.121,4.326c-0.748,1.29 -1.763,2.303 -3.043,3.04c-1.261,0.727 -2.695,1.108 -4.31,1.108l0,-0c-1.61,-0 -3.045,-0.379 -4.313,-1.103c-1.297,-0.742 -2.316,-1.761 -3.058,-3.058c-0.724,-1.268 -1.103,-2.703 -1.103,-4.313c0,-0.918 0.121,-1.776 0.356,-2.577c-0.148,0.116 -0.303,0.214 -0.463,0.298c-0.509,0.268 -1.118,0.42 -1.843,0.367l-0.693,-0.046c-0.385,-0.035 -0.73,-0.019 -1.029,0.094c-0.151,0.057 -0.281,0.13 -0.369,0.248c-0.049,0.065 -0.048,0.15 -0.048,0.24c-0,0 -0,6.426 -0,6.426c-0,1.029 -0.375,1.797 -0.947,2.369c-0.573,0.572 -1.34,0.947 -2.37,0.947c-1.03,0 -1.797,-0.375 -2.369,-0.947c-0.439,-0.438 -0.761,-0.991 -0.888,-1.688l-0,0.264c-0,0.828 -0.672,1.5 -1.5,1.5c-0.45,0 -0.854,-0.198 -1.129,-0.513c-1.358,0.982 -2.973,1.492 -4.858,1.492l-0,-0c-1.612,-0 -3.041,-0.39 -4.295,-1.135c-1.262,-0.749 -2.258,-1.768 -2.987,-3.061c-0.586,-1.04 -0.941,-2.187 -1.049,-3.443l0,4.215c0,0.996 -0.365,1.784 -1.01,2.399c-0.613,0.586 -1.379,0.917 -2.328,0.917c-0.756,0 -1.397,-0.211 -1.936,-0.594c-1.018,0.462 -2.14,0.702 -3.371,0.702c-1.582,-0 -2.996,-0.39 -4.249,-1.139c-0.208,-0.124 -0.408,-0.256 -0.601,-0.395c-0.275,0.339 -0.694,0.555 -1.164,0.555c-0.828,0 -1.5,-0.672 -1.5,-1.5l-0,-2.295c-0.52,-1.117 -0.788,-2.349 -0.788,-3.7c-0,-1.351 0.269,-2.579 0.788,-3.689Zm-28.868,8.058l-0.807,1.943c-0.289,0.694 -0.735,1.192 -1.284,1.539c-0.53,0.335 -1.127,0.515 -1.797,0.515c-1.37,0 -2.326,-0.612 -2.921,-1.744c-0.536,-1.017 -0.544,-2.01 -0.135,-2.93c-0,0 6.318,-14.999 6.306,-14.972c0.597,-1.464 1.668,-2.136 3.132,-2.136c1.428,-0 2.506,0.653 3.099,2.108l6.198,14.688l0,-8.43c0,-1.014 0.367,-1.789 0.958,-2.38c0.592,-0.592 1.367,-0.958 2.38,-0.958c0.661,-0 1.227,0.16 1.711,0.45c0.926,-0.383 1.931,-0.579 3.017,-0.579c1.453,-0 2.748,0.318 3.894,0.922c1.225,0.645 2.198,1.586 2.909,2.832c0.66,1.158 1.026,2.56 1.026,4.226c0,-0 0,5.587 0,5.587c0,0.929 -0.33,1.709 -0.968,2.348c-0.639,0.638 -1.419,0.968 -2.348,0.968c-0.965,0 -1.746,-0.344 -2.37,-0.968c-0.639,-0.639 -0.968,-1.419 -0.968,-2.348c-0,-0 -0,-5.587 -0,-5.587c-0,-0.371 -0.02,-0.687 -0.161,-0.926c-0.081,-0.138 -0.187,-0.245 -0.327,-0.314c-0.252,-0.125 -0.541,-0.171 -0.859,-0.171c-0.301,-0 -0.575,0.044 -0.818,0.161c-0.155,0.074 -0.286,0.165 -0.376,0.294c-0.036,0.052 -0.045,0.115 -0.045,0.182l0,6.361c0,0.98 -0.352,1.753 -0.958,2.358c-0.605,0.606 -1.378,0.958 -2.359,0.958c-1.013,0 -1.788,-0.366 -2.38,-0.958c-0.336,-0.336 -0.594,-0.724 -0.757,-1.171c-0.082,0.197 -0.186,0.393 -0.311,0.588c-0.66,1.034 -1.599,1.541 -2.805,1.541c-0.67,0 -1.266,-0.18 -1.797,-0.515c-0.494,-0.312 -0.922,-0.758 -1.234,-1.383c-0.027,-0.054 -0.052,-0.109 -0.075,-0.165l-0.797,-1.934l-4.973,0Zm100.109,1.025c-0.212,0.157 -0.439,0.3 -0.679,0.429c-0.83,0.447 -1.754,0.672 -2.773,0.672c-1.104,0 -2.091,-0.233 -2.962,-0.691c-0.886,-0.468 -1.588,-1.151 -2.103,-2.054c-0.504,-0.885 -0.764,-1.962 -0.764,-3.235c0,0 0,-5.587 0,-5.587c0,-0.369 0.129,-0.679 0.383,-0.933c0.254,-0.254 0.565,-0.383 0.934,-0.383c0.387,-0 0.704,0.132 0.955,0.383c0.254,0.254 0.383,0.564 0.383,0.933l-0,5.587c-0,0.785 0.139,1.433 0.436,1.939c0.285,0.486 0.673,0.851 1.165,1.094c0.515,0.254 1.097,0.378 1.745,0.378c0.622,0 1.184,-0.117 1.685,-0.358c0.484,-0.233 0.868,-0.549 1.15,-0.953c0.271,-0.389 0.404,-0.831 0.404,-1.326l0,-6.361c0,-0.39 0.131,-0.703 0.372,-0.944c0.242,-0.241 0.554,-0.372 0.945,-0.372c0.384,-0 0.698,0.126 0.947,0.364c0.255,0.243 0.391,0.558 0.391,0.952l-0,10.1c-0,0.412 -0.139,0.734 -0.391,0.974c-0.249,0.238 -0.563,0.364 -0.947,0.364c-0.391,0 -0.703,-0.131 -0.945,-0.372c-0.162,-0.162 -0.275,-0.361 -0.331,-0.6Zm-20.127,1.08c1.24,-0 2.343,-0.283 3.312,-0.841c0.972,-0.56 1.743,-1.33 2.31,-2.31c0.566,-0.976 0.852,-2.083 0.852,-3.323c-0.015,-1.258 -0.305,-2.369 -0.861,-3.343c-0.561,-0.981 -1.328,-1.752 -2.301,-2.312c-0.969,-0.558 -2.072,-0.841 -3.312,-0.841c-1.239,0 -2.345,0.282 -3.321,0.84c-0.981,0.561 -1.752,1.332 -2.313,2.313c-0.557,0.975 -0.84,2.089 -0.84,3.343c0,1.239 0.282,2.345 0.84,3.321c0.561,0.981 1.332,1.752 2.313,2.313c0.976,0.558 2.082,0.84 3.321,0.84Zm43.952,-5.437c0.084,0.372 0.215,0.718 0.396,1.038c0.335,0.595 0.793,1.063 1.375,1.404c0.586,0.344 1.261,0.512 2.025,0.512c0.462,-0 0.927,-0.081 1.396,-0.242c0.453,-0.155 0.819,-0.346 1.092,-0.582c0.004,-0.003 0.007,-0.006 0.01,-0.009c0.246,-0.2 0.524,-0.305 0.836,-0.316c0.33,-0.012 0.611,0.082 0.846,0.27c0.009,0.007 0.018,0.015 0.027,0.023c0.3,0.277 0.439,0.585 0.451,0.908c0.012,0.355 -0.123,0.664 -0.424,0.915c-0.513,0.436 -1.164,0.8 -1.958,1.088c-0.789,0.287 -1.548,0.428 -2.276,0.428c-1.254,-0 -2.363,-0.279 -3.331,-0.829c-0.975,-0.554 -1.74,-1.322 -2.294,-2.305c-0.549,-0.975 -0.827,-2.087 -0.827,-3.34c-0,-1.265 0.262,-2.378 0.779,-3.342c0.523,-0.976 1.246,-1.745 2.168,-2.307c0.921,-0.562 1.981,-0.847 3.183,-0.847c1.189,0 2.224,0.275 3.107,0.815c0.889,0.543 1.578,1.293 2.066,2.252c0.478,0.941 0.72,2.011 0.72,3.214c0,0.383 -0.131,0.683 -0.37,0.91c-0.233,0.221 -0.531,0.342 -0.903,0.342l-8.094,-0Zm-83.583,3.996c-0.279,0.243 -0.583,0.461 -0.913,0.653c-0.898,0.523 -1.916,0.788 -3.056,0.788c-1.199,-0 -2.273,-0.287 -3.222,-0.856c-0.949,-0.568 -1.701,-1.341 -2.253,-2.321c-0.55,-0.976 -0.827,-2.074 -0.827,-3.297c-0,-1.24 0.286,-2.347 0.852,-3.324c0.567,-0.979 1.34,-1.753 2.32,-2.32c0.976,-0.566 2.077,-0.852 3.302,-0.852c1.226,0 2.323,0.287 3.292,0.853c0.972,0.567 1.741,1.34 2.308,2.319c0.556,0.96 0.849,2.046 0.873,3.26l0,0.056l0,5.058c0,0.394 -0.136,0.709 -0.391,0.952c-0.248,0.238 -0.562,0.364 -0.947,0.364c-0.384,0 -0.698,-0.126 -0.946,-0.364c-0.255,-0.243 -0.392,-0.558 -0.392,-0.952l0,-0.017Zm74.738,-2.44c-0.002,-0.35 -0.184,-0.631 -0.515,-0.86c-0.445,-0.308 -1.183,-0.533 -2.201,-0.702c-1.561,-0.248 -2.699,-0.698 -3.426,-1.317c-0.797,-0.678 -1.186,-1.489 -1.186,-2.422c0,-0.856 0.236,-1.567 0.689,-2.137c0.441,-0.556 1.027,-0.975 1.762,-1.253c0.698,-0.264 1.466,-0.398 2.304,-0.398c1.043,0 1.941,0.185 2.696,0.543c0.771,0.365 1.393,0.86 1.869,1.479c0.235,0.306 0.318,0.627 0.271,0.956c-0.049,0.339 -0.23,0.626 -0.569,0.844c-0.006,0.004 -0.012,0.008 -0.018,0.011c-0.269,0.157 -0.576,0.215 -0.923,0.159c-0.334,-0.054 -0.621,-0.209 -0.858,-0.468l-0.01,-0.011c-0.304,-0.353 -0.656,-0.613 -1.057,-0.777c-0.418,-0.171 -0.9,-0.253 -1.444,-0.253c-0.669,0 -1.208,0.123 -1.609,0.397c-0.316,0.215 -0.491,0.475 -0.491,0.801c-0,0.215 0.054,0.404 0.171,0.563c0.138,0.187 0.383,0.338 0.718,0.481c0.409,0.174 0.983,0.318 1.72,0.439c1.142,0.183 2.042,0.459 2.705,0.817c0.717,0.387 1.221,0.849 1.526,1.368c0.31,0.529 0.466,1.104 0.466,1.725c0,0.79 -0.233,1.483 -0.696,2.079c-0.444,0.574 -1.054,1.026 -1.837,1.349c-0.751,0.309 -1.612,0.468 -2.587,0.468c-0.9,-0 -1.792,-0.152 -2.677,-0.458c-0.918,-0.316 -1.659,-0.794 -2.226,-1.424c-0.266,-0.291 -0.369,-0.62 -0.32,-0.984c0.045,-0.335 0.205,-0.629 0.495,-0.874c0.01,-0.009 0.021,-0.017 0.032,-0.025c0.315,-0.225 0.643,-0.306 0.98,-0.261c0.337,0.045 0.617,0.192 0.841,0.439l0.01,0.011c0.292,0.341 0.681,0.599 1.162,0.782c0.513,0.194 1.08,0.289 1.703,0.289c0.916,0 1.585,-0.128 1.994,-0.443c0.336,-0.26 0.523,-0.566 0.536,-0.933Zm-59.186,-5.338c-0.731,-0.831 -1.651,-1.246 -2.76,-1.246c-0.7,-0 -1.317,0.164 -1.849,0.502c-0.532,0.338 -0.944,0.803 -1.239,1.392c-0.304,0.608 -0.452,1.307 -0.452,2.097c0,0.771 0.157,1.46 0.479,2.064c0.314,0.591 0.754,1.057 1.32,1.396c0.569,0.342 1.222,0.509 1.956,0.509c0.502,0 0.964,-0.066 1.382,-0.201c0.399,-0.129 0.753,-0.328 1.059,-0.598c0.004,-0.003 0.007,-0.006 0.011,-0.009c0.261,-0.217 0.536,-0.329 0.819,-0.351c0.313,-0.024 0.605,0.067 0.87,0.284c0.008,0.006 0.015,0.012 0.022,0.018c0.271,0.249 0.415,0.536 0.449,0.853c0.039,0.364 -0.079,0.679 -0.363,0.937c-1.137,1.044 -2.552,1.572 -4.249,1.572c-1.228,-0 -2.319,-0.288 -3.275,-0.855c-0.957,-0.568 -1.712,-1.342 -2.264,-2.322c-0.55,-0.976 -0.828,-2.074 -0.828,-3.297c0,-1.235 0.266,-2.338 0.791,-3.311c0.53,-0.982 1.256,-1.756 2.175,-2.325c0.922,-0.571 1.983,-0.86 3.186,-0.86c0.95,0 1.826,0.189 2.629,0.563c0.8,0.373 1.506,0.93 2.113,1.675c0.275,0.307 0.357,0.638 0.28,0.982c-0.068,0.304 -0.247,0.578 -0.559,0.801c-0.273,0.198 -0.577,0.267 -0.912,0.205c-0.301,-0.056 -0.567,-0.21 -0.791,-0.475Zm-39.497,-2.671c0.212,-0.157 0.438,-0.3 0.679,-0.429c0.83,-0.447 1.754,-0.672 2.772,-0.672c1.104,-0 2.091,0.233 2.962,0.691c0.887,0.468 1.589,1.151 2.103,2.054c0.505,0.885 0.764,1.962 0.764,3.235c0,-0 0,5.587 0,5.587c0,0.369 -0.129,0.679 -0.383,0.933c-0.253,0.254 -0.564,0.383 -0.933,0.383c-0.388,0 -0.705,-0.132 -0.956,-0.383c-0.253,-0.254 -0.382,-0.564 -0.382,-0.933c-0,-0 -0,-5.587 -0,-5.587c-0,-0.785 -0.139,-1.433 -0.437,-1.939c-0.285,-0.486 -0.673,-0.851 -1.165,-1.094c-0.515,-0.254 -1.097,-0.378 -1.745,-0.378c-0.622,-0 -1.184,0.117 -1.685,0.358c-0.484,0.233 -0.868,0.549 -1.15,0.953c-0.27,0.389 -0.404,0.831 -0.404,1.326l0,6.361c0,0.39 -0.131,0.703 -0.372,0.944c-0.241,0.241 -0.554,0.372 -0.945,0.372c-0.409,0 -0.727,-0.133 -0.966,-0.372c-0.241,-0.241 -0.372,-0.554 -0.372,-0.944c0,-0 0,-10.1 0,-10.1c0,-0.409 0.134,-0.728 0.372,-0.966c0.239,-0.239 0.557,-0.372 0.966,-0.372c0.391,-0 0.704,0.131 0.945,0.372c0.162,0.162 0.276,0.361 0.332,0.6Zm48.987,0.047c0.212,-0.176 0.438,-0.335 0.679,-0.477c0.757,-0.446 1.597,-0.671 2.521,-0.671c0.76,-0 1.344,0.121 1.757,0.336c0.288,0.15 0.477,0.344 0.587,0.563c0.117,0.235 0.15,0.505 0.076,0.814c-0.001,0.004 -0.002,0.008 -0.003,0.012c-0.101,0.381 -0.299,0.616 -0.54,0.743c-0.211,0.111 -0.464,0.164 -0.764,0.142l-0.663,-0.043c-0.719,-0.065 -1.358,0.004 -1.916,0.216c-0.529,0.201 -0.95,0.505 -1.26,0.918c-0.302,0.403 -0.448,0.884 -0.448,1.44c-0,0 -0,6.426 -0,6.426c-0,0.412 -0.133,0.726 -0.362,0.955c-0.229,0.229 -0.543,0.361 -0.955,0.361c-0.412,0 -0.726,-0.132 -0.955,-0.361c-0.229,-0.229 -0.361,-0.543 -0.361,-0.955l-0,-10.122c-0,-0.412 0.132,-0.726 0.361,-0.955c0.229,-0.229 0.543,-0.361 0.955,-0.361c0.412,-0 0.726,0.132 0.955,0.361c0.171,0.171 0.288,0.388 0.336,0.658Zm-66.728,7.738l-1.318,3.174c-0.115,0.276 -0.287,0.479 -0.506,0.617c-0.215,0.136 -0.457,0.206 -0.729,0.206c-0.538,0 -0.918,-0.231 -1.152,-0.675c-0.221,-0.422 -0.234,-0.832 -0.061,-1.222c0,-0 6.318,-14.999 6.316,-14.994c0.245,-0.602 0.677,-0.891 1.279,-0.891c0.584,-0 1.011,0.285 1.256,0.885l6.337,15.015c0.2,0.433 0.171,0.854 -0.091,1.265c-0.264,0.413 -0.638,0.617 -1.12,0.617c-0.271,0 -0.514,-0.07 -0.729,-0.206c-0.207,-0.131 -0.382,-0.324 -0.513,-0.586c-0.005,-0.011 -0.01,-0.022 -0.015,-0.033l-1.308,-3.172l-7.646,0Zm108.801,2.537l-0.05,-0.056l0.05,0.056Zm-70.912,-0.937c-0.723,0 -1.377,-0.169 -1.961,-0.511c-0.583,-0.342 -1.044,-0.815 -1.387,-1.417c-0.345,-0.607 -0.515,-1.288 -0.515,-2.041c0,-0.766 0.169,-1.45 0.514,-2.05c0.343,-0.598 0.807,-1.072 1.392,-1.421c0.582,-0.348 1.235,-0.52 1.957,-0.52c0.734,-0 1.389,0.17 1.965,0.518c0.578,0.349 1.034,0.823 1.37,1.419c0.339,0.601 0.505,1.286 0.505,2.054c0,0.755 -0.167,1.437 -0.506,2.045c-0.335,0.601 -0.79,1.073 -1.365,1.414c-0.577,0.342 -1.234,0.51 -1.969,0.51Zm43.428,0c-0.736,0 -1.397,-0.168 -1.982,-0.511c-0.581,-0.342 -1.04,-0.81 -1.375,-1.405c-0.339,-0.601 -0.505,-1.286 -0.505,-2.053c0,-0.769 0.167,-1.458 0.506,-2.067c0.335,-0.6 0.793,-1.072 1.374,-1.413c0.585,-0.343 1.246,-0.511 1.982,-0.511c0.737,-0 1.398,0.168 1.982,0.511c0.58,0.341 1.034,0.811 1.362,1.41c0.333,0.609 0.497,1.3 0.497,2.07c-0,0.768 -0.163,1.455 -0.496,2.057c-0.328,0.593 -0.783,1.06 -1.363,1.401c-0.584,0.343 -1.245,0.511 -1.982,0.511Zm-43.428,-2c-0.349,0 -0.667,-0.071 -0.948,-0.236c-0.279,-0.164 -0.497,-0.392 -0.661,-0.68c-0.177,-0.312 -0.254,-0.665 -0.254,-1.053c0,-0.393 0.072,-0.747 0.248,-1.054c0.169,-0.294 0.396,-0.529 0.684,-0.701c0.276,-0.165 0.588,-0.236 0.931,-0.236c0.346,-0 0.659,0.066 0.931,0.23c0.279,0.169 0.499,0.4 0.662,0.689c0.176,0.313 0.247,0.673 0.247,1.072c0,0.394 -0.075,0.753 -0.252,1.07c-0.158,0.283 -0.369,0.508 -0.64,0.669c-0.277,0.164 -0.596,0.23 -0.948,0.23Zm21.291,-2.348c-0.476,0.149 -0.98,0.175 -1.515,0.076c-0.732,-0.136 -1.391,-0.492 -1.938,-1.132c-0.332,-0.371 -0.749,-0.556 -1.249,-0.556c-0.292,-0 -0.554,0.049 -0.776,0.19c-0.227,0.144 -0.397,0.347 -0.523,0.598c-0.174,0.348 -0.241,0.751 -0.241,1.203c0,0.419 0.07,0.797 0.244,1.125c0.14,0.262 0.333,0.47 0.584,0.62c0.268,0.162 0.58,0.224 0.927,0.224c0.279,0 0.535,-0.029 0.768,-0.104c0.132,-0.043 0.25,-0.107 0.352,-0.196c0.017,-0.015 0.034,-0.03 0.051,-0.044c0.618,-0.515 1.278,-0.757 1.946,-0.809c0.476,-0.036 0.934,0.023 1.37,0.189l-0,-1.384Zm22.137,2.348c-0.359,0 -0.684,-0.069 -0.969,-0.236c-0.274,-0.161 -0.488,-0.382 -0.646,-0.662c-0.176,-0.312 -0.247,-0.672 -0.247,-1.071c0,-0.405 0.074,-0.772 0.253,-1.092c0.156,-0.281 0.368,-0.504 0.64,-0.663c0.285,-0.167 0.61,-0.236 0.969,-0.236c0.359,-0 0.685,0.069 0.97,0.236c0.264,0.155 0.47,0.372 0.619,0.645c0.179,0.326 0.252,0.698 0.252,1.11c-0,0.405 -0.071,0.771 -0.246,1.089c-0.151,0.272 -0.359,0.488 -0.625,0.644c-0.285,0.167 -0.611,0.236 -0.97,0.236Zm-80.304,-2.039l5.627,-0l-2.803,-6.8l-2.824,6.8Zm58.167,-6.958l-0,-14.454l-25.977,0l-0,14.341c0.124,-0.08 0.251,-0.158 0.381,-0.233c1.274,-0.739 2.707,-1.122 4.305,-1.122c1.602,0 3.033,0.386 4.301,1.126c1.275,0.744 2.285,1.759 3.03,3.044c0.651,1.124 1.033,2.381 1.121,3.775c0.073,-1.369 0.419,-2.604 1.016,-3.709c0.702,-1.301 1.665,-2.324 2.883,-3.077c1.227,-0.759 2.636,-1.159 4.238,-1.159c1.256,0 2.413,0.256 3.473,0.75c0.43,0.2 0.84,0.439 1.229,0.718Zm72.821,5.69c-0.067,-0.301 -0.164,-0.585 -0.293,-0.853c-0.273,-0.571 -0.659,-1.02 -1.162,-1.342c-0.504,-0.324 -1.106,-0.48 -1.803,-0.48c-0.715,0 -1.344,0.165 -1.883,0.504c-0.538,0.338 -0.953,0.805 -1.247,1.399c-0.12,0.243 -0.217,0.501 -0.288,0.772l6.676,-0Zm-76.274,-0.097l0.01,0.012l-0.042,-0.05c0.01,0.013 0.021,0.026 0.032,0.038Z" style="fill:#fff;"/></g></svg>