<?xml version="1.0" encoding="UTF-8" standalone="no"?><!DOCTYPE svg PUBLIC "-//W3C//DTD SVG 1.1//EN" "http://www.w3.org/Graphics/SVG/1.1/DTD/svg11.dtd"><svg width="100%" height="100%" viewBox="0 0 90 86" version="1.1" xmlns="http://www.w3.org/2000/svg" xmlns:xlink="http://www.w3.org/1999/xlink" xml:space="preserve" xmlns:serif="http://www.serif.com/" style="fill-rule:evenodd;clip-rule:evenodd;stroke-linejoin:round;stroke-miterlimit:2;"><g id="ICONES"><g id="Speakers"></g><g id="Notes"></g><g id="Sauvegarde"></g><g id="Export"><rect id="Export1" serif:id="Export" x="0" y="0" width="89.278" height="85.112" style="fill:none;"/><g id="Export2" serif:id="Export"><g id="Boxes"><path d="M59.622,7.112c0.131,0.287 0.281,0.567 0.449,0.838c-1.447,0.543 -2.874,1.096 -4.279,1.662l-51.792,-0c-0.828,-0 -1.5,0.671 -1.5,1.5l0,70c0,0.828 0.672,1.5 1.5,1.5l70,-0c0.828,-0 1.5,-0.672 1.5,-1.5l0,-51.823c0.72,0.724 1.572,1.285 2.5,1.66l0,50.163c0,2.209 -1.791,4 -4,4l-70,-0c-2.209,-0 -4,-1.791 -4,-4l0,-70c0,-2.209 1.791,-4 4,-4l55.622,-0Z" style="fill:#fff;"/><path d="M43.149,15.412c-1.529,0.809 -3.011,1.641 -4.442,2.5l-26.407,0c-0.828,0 -1.5,0.672 -1.5,1.5l0,53.4c0,0.828 0.672,1.5 1.5,1.5l53.4,-0c0.828,-0 1.5,-0.672 1.5,-1.5l-0,-40.097c0.829,-0.731 1.662,-1.455 2.5,-2.173l-0,42.27c-0,2.209 -1.791,4 -4,4l-53.4,-0c-2.209,-0 -4,-1.791 -4,-4l0,-53.4c0,-2.209 1.791,-4 4,-4l30.849,0Z" style="fill:#fff;"/></g><path id="Arrow" d="M65.592,9.667l-2.395,-3.333c-0.912,-1.269 -1.001,-2.953 -0.229,-4.311c0.773,-1.358 2.265,-2.143 3.822,-2.008l18.833,1.629c1.162,0.101 2.223,0.704 2.904,1.651c0.681,0.947 0.914,2.145 0.638,3.279l-4.463,18.369c-0.369,1.518 -1.588,2.683 -3.122,2.981c-1.534,0.299 -3.101,-0.323 -4.013,-1.592l-3.091,-4.301c-10.522,8.48 -20.656,17.615 -29.634,28.672c-1.048,1.29 -2.785,1.798 -4.363,1.275l-10.73,-3.553c-1.644,-0.545 -2.751,-2.085 -2.743,-3.817l0.055,-11.303c0.005,-1.005 0.388,-1.971 1.073,-2.707c8.396,-9.016 21.963,-15.498 37.458,-20.931Zm3.992,1.272l-4.357,-6.064c-0.342,-0.476 -0.375,-1.107 -0.086,-1.616c0.29,-0.51 0.85,-0.804 1.434,-0.753l18.833,1.629c0.436,0.037 0.833,0.264 1.089,0.619c0.255,0.355 0.342,0.804 0.239,1.229l-4.463,18.369c-0.138,0.57 -0.596,1.006 -1.171,1.118c-0.575,0.112 -1.163,-0.121 -1.505,-0.597l-4.629,-6.441c-11.392,9.058 -22.389,18.777 -32.067,30.695c-0.393,0.484 -1.044,0.674 -1.636,0.478l-10.73,-3.553c-0.617,-0.205 -1.032,-0.782 -1.029,-1.432l0.055,-11.303c0.002,-0.377 0.145,-0.739 0.402,-1.015c8.733,-9.377 23.248,-15.859 39.621,-21.363Z" style="fill:#fff;"/></g></g><g id="Lecture"></g><g id="Autres"></g><g id="Éléments-graphiques" serif:id="Éléments graphiques"></g></g><g id="LINKED"><g id="_8N_L-L" serif:id="8N_L-L"></g><g id="_8N_L-RL" serif:id="8N_L-RL"></g><g id="_8N_L-R" serif:id="8N_L-R"></g><g id="_16N_L-L" serif:id="16N_L-L"></g><g id="_16N_L-RL_FULL" serif:id="16N_L-RL_FULL"></g><g id="_16N_L-RL_DEMI" serif:id="16N_L-RL_DEMI"></g><g id="_16N_L-R" serif:id="16N_L-R"></g></g><g id="RESTS"><g id="_1N_R" serif:id="1N_R"></g><g id="_2N_R" serif:id="2N_R"></g><g id="_4N_R" serif:id="4N_R"></g><g id="_16N_R" serif:id="16N_R"></g><g id="_8N_R" serif:id="8N_R"></g></g><g id="DOTTED"><g id="_4N" serif:id="4N"></g><g id="_8N_L-L1" serif:id="8N_L-L"></g><g id="_8N_L-R1" serif:id="8N_L-R"></g><g id="_2N_R1" serif:id="2N_R"></g><g id="_4N_R1" serif:id="4N_R"></g><g id="_8N_R1" serif:id="8N_R"></g></g></svg>