<?xml version="1.0" encoding="UTF-8" standalone="no"?><!DOCTYPE svg PUBLIC "-//W3C//DTD SVG 1.1//EN" "http://www.w3.org/Graphics/SVG/1.1/DTD/svg11.dtd"><svg width="100%" height="100%" viewBox="0 0 81 82" version="1.1" xmlns="http://www.w3.org/2000/svg" xmlns:xlink="http://www.w3.org/1999/xlink" xml:space="preserve" xmlns:serif="http://www.serif.com/" style="fill-rule:evenodd;clip-rule:evenodd;stroke-linejoin:round;stroke-miterlimit:2;"><g id="TEST-ESPACEMENT" serif:id="TEST ESPACEMENT"></g><g id="RYTHM"><g id="RESTS"><g id="_1N_R" serif:id="1N_R"></g><g id="_2N_R" serif:id="2N_R"></g><g id="_4N_R" serif:id="4N_R"></g><g id="_16N_R" serif:id="16N_R"></g><g id="_8N_R" serif:id="8N_R"></g></g><g id="DOTTED"><g id="_4N" serif:id="4N"></g><g id="_8N_L-L" serif:id="8N_L-L"></g><g id="_8N_L-R" serif:id="8N_L-R"></g><g id="_2N_R1" serif:id="2N_R"></g><g id="_4N_R1" serif:id="4N_R"></g><g id="_8N_R1" serif:id="8N_R"></g></g></g><g id="ICONES"><g id="Speakers"></g><g id="Notes"></g><g id="Sauvegarde"></g><g id="Export"></g><g id="Lecture"></g><g id="Autres"></g><g id="Éléments-graphiques" serif:id="Éléments graphiques"></g><g id="Rytmes"></g><rect id="Metronome-sound" serif:id="Metronome sound" x="0" y="0" width="80.04" height="81.306" style="fill:none;"/><clipPath id="_clip1"><rect x="0" y="0" width="80.04" height="81.306"/></clipPath><g clip-path="url(#_clip1)"><path d="M63.871,71.85l1.426,4.158c0.419,1.222 0.222,2.571 -0.529,3.623c-0.751,1.051 -1.963,1.675 -3.255,1.675l-57.513,-0c-1.292,-0 -2.504,-0.624 -3.255,-1.675c-0.751,-1.052 -0.948,-2.401 -0.529,-3.623l6.823,-19.898c0.48,-1.401 1.684,-2.403 3.109,-2.646c-0.108,-0.118 -0.209,-0.243 -0.303,-0.374c-0.751,-1.052 -0.948,-2.401 -0.529,-3.623l16.034,-46.764c0.554,-1.617 2.074,-2.703 3.783,-2.703l7.247,0c1.709,-0 3.229,1.086 3.783,2.703l9.684,28.245l5.14,-8.953c-0.499,-0.479 -0.841,-1.107 -0.966,-1.801c-0.173,-0.96 0.087,-1.947 0.711,-2.698c-0,0 4.429,-5.33 4.429,-5.33c1.027,-1.236 2.794,-1.554 4.188,-0.754c-0,-0 2.294,1.317 2.294,1.317c1.394,0.8 2.01,2.486 1.46,3.996c0,0 -2.369,6.513 -2.369,6.513c-0.334,0.917 -1.056,1.64 -1.972,1.974c-0.662,0.242 -1.377,0.264 -2.042,0.074l-8.023,13.974l1.073,3.13c2.749,-2.081 6.172,-3.316 9.881,-3.316c9.046,-0 16.389,7.343 16.389,16.389c0,8.972 -7.225,16.269 -16.169,16.387Zm-16.603,-15.943l-4.127,-0l-7.518,13.095c-0.908,1.582 -2.93,2.129 -4.512,1.221c-1.582,-0.909 -2.129,-2.93 -1.221,-4.512l5.628,-9.804l-24.696,-0c-0.64,-0 -1.211,0.407 -1.418,1.013l-6.823,19.899c-0.157,0.458 -0.083,0.964 0.198,1.358c0.282,0.395 0.737,0.629 1.221,0.629l57.513,-0c0.484,-0 0.939,-0.234 1.221,-0.629c0.281,-0.394 0.355,-0.9 0.198,-1.358l-1.768,-5.155c-7.725,-1.179 -13.682,-7.758 -13.896,-15.757Zm16.383,-14.333c-7.665,-0 -13.889,6.223 -13.889,13.889c0,7.665 6.224,13.888 13.889,13.888c7.666,0 13.889,-6.223 13.889,-13.888c0,-7.666 -6.223,-13.889 -13.889,-13.889Zm-5.636,-20.327l-1.265,-0.726c-0.269,-0.155 -0.456,-0.42 -0.511,-0.726c-0.055,-0.306 0.027,-0.62 0.226,-0.859l4.429,-5.33c0.327,-0.394 0.89,-0.495 1.333,-0.24l2.294,1.317c0.444,0.254 0.64,0.791 0.465,1.272l-2.37,6.513c-0.106,0.292 -0.336,0.521 -0.627,0.628c-0.292,0.107 -0.616,0.079 -0.885,-0.076l-1.265,-0.726l-26.17,45.586c-0.289,0.504 -0.933,0.678 -1.436,0.389c-0.504,-0.29 -0.678,-0.933 -0.389,-1.437l26.171,-45.585Zm-2.934,29.401l0.075,-0.13c0.115,-0.2 0.277,-0.265 0.445,-0.265c0.129,-0 0.254,0.052 0.354,0.138l12.696,12.696c0.041,0.041 0.075,0.086 0.103,0.133c0.089,0.15 0.118,0.322 0.051,0.483c-0.049,0.119 -0.125,0.187 -0.252,0.273c-0.021,0.013 -0.049,0.033 -0.077,0.051c-0.17,0.096 -0.343,0.187 -0.519,0.273l-0.612,0.274l-0.541,0.201c-0.99,0.336 -2.05,0.518 -3.153,0.518c-5.425,-0 -9.83,-4.405 -9.83,-9.83c0,-1.103 0.182,-2.164 0.518,-3.153l0.284,-0.738l0.17,-0.373c0.09,-0.187 0.186,-0.371 0.288,-0.551Zm3.568,5.972l1.877,5.474c0.948,0.448 2.008,0.699 3.125,0.699c0.099,-0 0.198,-0.002 0.296,-0.006c0.087,-0.007 0.176,-0.044 0.236,-0.104c0.078,-0.078 0.106,-0.192 0.09,-0.305c-0.014,-0.099 -0.065,-0.193 -0.145,-0.279l-5.479,-5.479Zm-0.5,-9.302c0.214,-0.145 0.433,-0.281 0.658,-0.409l0.757,-0.387l0.061,-0.028c1.229,-0.553 2.592,-0.861 4.026,-0.861c5.426,-0 9.83,4.404 9.83,9.83c0,1.377 -0.284,2.689 -0.796,3.879l-0.448,0.908l-0.385,0.631c-0.037,0.055 -0.047,0.071 -0.096,0.138c-0.136,0.188 -0.277,0.266 -0.446,0.266c-0.128,-0 -0.253,-0.052 -0.354,-0.138l-0.055,-0.053c0,0 -12.872,-12.872 -12.872,-12.872c-0.04,-0.042 -0.075,-0.087 -0.103,-0.134c-0.089,-0.15 -0.118,-0.322 -0.051,-0.483c0.046,-0.111 0.116,-0.178 0.229,-0.256l0.045,-0.031Zm12.723,9.412c0.072,-0.411 0.109,-0.835 0.109,-1.267c0,-4.046 -3.284,-7.33 -7.33,-7.33c-0.448,-0 -0.886,0.04 -1.312,0.117c-0.051,0.018 -0.098,0.046 -0.135,0.082c-0.078,0.078 -0.106,0.193 -0.09,0.306c0.014,0.098 0.065,0.191 0.144,0.277l8.004,8.004c0.007,0.007 0.015,0.014 0.023,0.021c0.066,0.056 0.155,0.094 0.24,0.094c0.11,-0 0.211,-0.061 0.28,-0.153c0.032,-0.043 0.053,-0.094 0.067,-0.151Zm-37.495,-3.323c-0.249,-0.283 -0.459,-0.602 -0.621,-0.947c-0.161,0.345 -0.371,0.664 -0.62,0.947l1.241,-0Zm14.816,-19.577l-10.394,-30.316c-0.208,-0.607 -0.778,-1.014 -1.419,-1.014l-7.247,0c-0.641,0 -1.211,0.407 -1.419,1.014l-16.033,46.764c-0.157,0.458 -0.083,0.964 0.198,1.359c0.282,0.394 0.736,0.628 1.221,0.628l16.033,-0c0.829,-0 1.5,-0.672 1.5,-1.5l0,-20.6l2.123,-2.73l2.124,2.73l-0,20.6c-0,0.828 0.671,1.5 1.5,1.5l1.229,-0l10.584,-18.435Zm3.556,10.371l-0.706,-2.058l-5.811,10.122l2.343,-0c0.612,-3.088 2.092,-5.864 4.174,-8.064Z" style="fill:#fff;"/></g></g></svg>