<?xml version="1.0" encoding="UTF-8" standalone="no"?><!DOCTYPE svg PUBLIC "-//W3C//DTD SVG 1.1//EN" "http://www.w3.org/Graphics/SVG/1.1/DTD/svg11.dtd"><svg width="100%" height="100%" viewBox="0 0 81 82" version="1.1" xmlns="http://www.w3.org/2000/svg" xmlns:xlink="http://www.w3.org/1999/xlink" xml:space="preserve" xmlns:serif="http://www.serif.com/" style="fill-rule:evenodd;clip-rule:evenodd;stroke-linejoin:round;stroke-miterlimit:2;"><g id="ICONES"><g id="Speakers"></g><g id="Notes"></g><g id="Sauvegarde"></g><g id="Export"></g><g id="Lecture"></g><g id="Autres"></g><g id="Éléments-graphiques" serif:id="Éléments graphiques"></g></g><g id="RYTHM"><g id="LINKED"><g id="_8N_L-L" serif:id="8N_L-L"></g><g id="_8N_L-RL" serif:id="8N_L-RL"></g><g id="_8N_L-R" serif:id="8N_L-R"></g><g id="_16N_L-L" serif:id="16N_L-L"></g><g id="_16N_L-RL_FULL" serif:id="16N_L-RL_FULL"></g><g id="_16N_L-RL_DEMI" serif:id="16N_L-RL_DEMI"></g><g id="_16N_L-R" serif:id="16N_L-R"></g></g><g id="RESTS"><g id="_1N_R" serif:id="1N_R"></g><g id="_2N_R" serif:id="2N_R"></g><g id="_4N_R" serif:id="4N_R"></g><g id="_16N_R" serif:id="16N_R"></g><g id="_8N_R" serif:id="8N_R"></g></g><g id="DOTTED"><g id="_4N" serif:id="4N"></g><g id="_8N_L-L1" serif:id="8N_L-L"></g><g id="_8N_L-R1" serif:id="8N_L-R"></g><g id="_2N_R1" serif:id="2N_R"></g><g id="_4N_R1" serif:id="4N_R"></g><g id="_8N_R1" serif:id="8N_R"></g></g></g><rect id="Metronome-sound" serif:id="Metronome sound" x="0" y="0" width="80.04" height="81.306" style="fill:none;"/><path id="Metronome-sound1" serif:id="Metronome sound" d="M10.148,53.464c-0.108,-0.118 -0.209,-0.243 -0.303,-0.374c-0.751,-1.052 -0.948,-2.401 -0.529,-3.623l16.034,-46.764c0.554,-1.617 2.074,-2.703 3.783,-2.703l7.247,0c1.709,0 3.229,1.086 3.783,2.703l9.684,28.245l5.14,-8.953c-0.499,-0.479 -0.841,-1.107 -0.966,-1.801c-0.173,-0.96 0.087,-1.947 0.711,-2.698c-0,0 4.429,-5.33 4.429,-5.33c1.027,-1.236 2.794,-1.554 4.188,-0.754c-0,-0 2.294,1.317 2.294,1.317c1.394,0.8 2.01,2.486 1.46,3.996c0,0 -2.369,6.513 -2.369,6.513c-0.334,0.917 -1.056,1.64 -1.972,1.974c-0.662,0.242 -1.377,0.264 -2.042,0.074l-8.023,13.974l3.5,10.207c0.419,1.222 0.222,2.571 -0.529,3.623c-0.094,0.131 -0.195,0.256 -0.303,0.374c1.424,0.243 2.629,1.245 3.109,2.646l1.805,5.263c0.547,-0.076 1.135,-0.128 1.765,-0.152l-0,-24.515l0.012,-0.255l0.035,-0.249l0.058,-0.242l0.079,-0.233l0.156,-0.33l0.198,-0.305l0.236,-0.274l0.271,-0.241l0.303,-0.203l0.331,-0.161l0.355,-0.116l0.295,-0.056l0.423,-0.024l0.314,0.025l0.353,0.075l0.257,0.087l0.183,0.079l0.213,0.115l0.231,0.156l0.248,0.21l0.245,0.269l0.208,0.302l0.116,0.218l0.097,0.231l0.066,0.207c0.201,0.728 0.772,1.462 1.441,2.267l0.106,0.124c0.264,0.249 0.548,0.495 0.84,0.745c1.586,1.358 3.509,2.641 5.186,3.958c3.024,2.373 5.14,5.04 5.14,7.883c0,2.716 -1.279,5.347 -2.923,7.483c-2.193,2.848 -4.936,4.775 -4.936,4.775c-1.162,0.819 -2.761,0.592 -3.649,-0.518c-0.889,-1.109 -0.761,-2.718 0.292,-3.673c0.777,-0.706 1.566,-1.314 2.274,-1.953c0.667,-0.601 1.274,-1.209 1.516,-2.17c0.199,-0.788 0.171,-1.761 -0.076,-3.033c-0.243,-1.251 -1.039,-2.445 -1.977,-3.632c-0.947,-1.199 -2.058,-2.365 -3.137,-3.495l-0,19.182c0.137,3.57 -0.773,5.91 -1.974,7.427c-0.4,0.505 -0.839,0.932 -1.305,1.288l1.152,3.359c0.419,1.222 0.222,2.571 -0.529,3.623c-0.751,1.051 -1.963,1.675 -3.255,1.675l-57.513,-0c-1.292,-0 -2.504,-0.624 -3.255,-1.675c-0.751,-1.052 -0.948,-2.401 -0.529,-3.623l6.823,-19.898c0.48,-1.401 1.684,-2.403 3.109,-2.646Zm32.993,2.443l-7.518,13.095c-0.908,1.582 -2.93,2.129 -4.512,1.221c-1.582,-0.909 -2.129,-2.93 -1.221,-4.512l5.628,-9.804l-24.696,-0c-0.64,-0 -1.211,0.407 -1.418,1.013l-6.823,19.899c-0.157,0.458 -0.083,0.964 0.198,1.358c0.282,0.395 0.737,0.629 1.221,0.629l57.513,-0c0.484,-0 0.939,-0.234 1.221,-0.629c0.281,-0.394 0.355,-0.9 0.198,-1.358l-1.033,-3.013c-1.256,0.392 -2.554,0.438 -3.708,0.256c-1.845,-0.292 -3.278,-1.22 -3.914,-2.047c-1.351,-1.758 -1.993,-4.92 -0.169,-7.465c0.702,-0.979 1.869,-1.961 3.724,-2.605l-1.723,-5.025c-0.207,-0.606 -0.778,-1.013 -1.418,-1.013l-11.55,-0Zm22.081,-19.344l-0.04,-0.094l-0.051,-0.078l-0.063,-0.066l-0.074,-0.053l-0.083,-0.04l-0.085,-0.024l-0.093,-0.01l-0.01,0l-0.089,0.011l-0.082,0.024l-0.072,0.034l-0.062,0.042l-0.066,0.064l-0.053,0.073l-0.037,0.074l-0.026,0.091l-0.011,0.119l-0,26.173c-0,0.136 -0.056,0.266 -0.154,0.361c-0.098,0.094 -0.23,0.144 -0.366,0.139c-4.501,-0.183 -6.804,0.997 -7.824,2.419c-1.189,1.657 -0.755,3.718 0.125,4.863c0.297,0.386 0.877,0.765 1.629,1.009c1.675,0.543 4.209,0.448 5.897,-1.44c1.084,-1.212 1.836,-3.186 1.711,-6.274c-0,-0.006 -0.001,-0.013 -0.001,-0.02l0,-23.517c0,-0.206 0.127,-0.391 0.319,-0.466c0.192,-0.075 0.411,-0.024 0.55,0.128l0.463,0.483c0.908,1.069 1.973,2.176 3.045,3.308c2.266,2.392 4.548,4.925 5.06,7.567c0.324,1.67 0.311,2.947 0.05,3.982c-0.296,1.176 -0.913,2.026 -1.675,2.789c-0.82,0.821 -1.802,1.542 -2.764,2.416c-0.199,0.181 -0.223,0.485 -0.055,0.695c0.168,0.21 0.47,0.253 0.69,0.098c-0,-0 -0,-0 -0,-0c-0,-0 2.48,-1.746 4.463,-4.323c1.357,-1.762 2.471,-3.911 2.471,-6.152c-0,-1.179 -0.491,-2.282 -1.31,-3.33c-0.766,-0.98 -1.823,-1.917 -2.996,-2.837c-2.034,-1.597 -4.424,-3.148 -6.156,-4.833l-0.5,-0.512c-0.812,-0.998 -1.418,-1.963 -1.67,-2.874l-0.005,-0.019Zm-7.207,-15.316l-1.265,-0.726c-0.269,-0.155 -0.456,-0.42 -0.511,-0.726c-0.055,-0.306 0.027,-0.62 0.226,-0.859l4.429,-5.33c0.327,-0.394 0.89,-0.495 1.333,-0.24l2.294,1.317c0.444,0.254 0.64,0.791 0.465,1.272l-2.37,6.513c-0.106,0.292 -0.336,0.521 -0.627,0.628c-0.292,0.107 -0.616,0.079 -0.885,-0.076l-1.265,-0.726l-26.17,45.586c-0.289,0.504 -0.933,0.678 -1.436,0.389c-0.504,-0.29 -0.678,-0.933 -0.389,-1.437l26.171,-45.585Zm-24.638,32.16c-0.249,-0.283 -0.459,-0.602 -0.621,-0.947c-0.161,0.345 -0.371,0.664 -0.62,0.947l1.241,-0Zm14.816,-19.577l-10.394,-30.316c-0.208,-0.607 -0.778,-1.014 -1.419,-1.014l-7.247,0c-0.641,0 -1.211,0.407 -1.419,1.014l-16.033,46.764c-0.157,0.458 -0.083,0.964 0.198,1.359c0.282,0.394 0.736,0.628 1.221,0.628l16.033,-0c0.829,-0 1.5,-0.672 1.5,-1.5l0,-20.6l2.123,-2.73l2.124,2.73l-0,20.6c-0,0.828 0.671,1.5 1.5,1.5l1.229,-0l10.584,-18.435Zm2.85,8.313l-5.811,10.122l7.181,-0c0.485,-0 0.939,-0.234 1.221,-0.628c0.281,-0.395 0.355,-0.901 0.198,-1.359l-2.789,-8.135Z" style="fill:#fff;"/></svg>