<?xml version="1.0" encoding="UTF-8" standalone="no"?><!DOCTYPE svg PUBLIC "-//W3C//DTD SVG 1.1//EN" "http://www.w3.org/Graphics/SVG/1.1/DTD/svg11.dtd"><svg width="100%" height="100%" viewBox="0 0 81 82" version="1.1" xmlns="http://www.w3.org/2000/svg" xmlns:xlink="http://www.w3.org/1999/xlink" xml:space="preserve" xmlns:serif="http://www.serif.com/" style="fill-rule:evenodd;clip-rule:evenodd;stroke-linejoin:round;stroke-miterlimit:2;"><g id="TEST-ESPACEMENT" serif:id="TEST ESPACEMENT"></g><g id="RYTHM"><g id="RESTS"><g id="_1N_R" serif:id="1N_R"></g><g id="_2N_R" serif:id="2N_R"></g><g id="_4N_R" serif:id="4N_R"></g><g id="_16N_R" serif:id="16N_R"></g><g id="_8N_R" serif:id="8N_R"></g></g><g id="DOTTED"><g id="_4N" serif:id="4N"></g><g id="_8N_L-L" serif:id="8N_L-L"></g><g id="_8N_L-R" serif:id="8N_L-R"></g><g id="_2N_R1" serif:id="2N_R"></g><g id="_4N_R1" serif:id="4N_R"></g><g id="_8N_R1" serif:id="8N_R"></g></g></g><g id="ICONES"><g id="Speakers"></g><g id="Notes"></g><g id="Sauvegarde"></g><g id="Export"></g><g id="Lecture"></g><g id="Autres"></g><g id="Éléments-graphiques" serif:id="Éléments graphiques"></g><g id="Rytmes"></g><rect id="Metronome-sound" serif:id="Metronome sound" x="0" y="0" width="80.04" height="81.306" style="fill:none;"/><path d="M63.973,72.146l1.324,3.862c0.419,1.222 0.222,2.571 -0.529,3.623c-0.751,1.051 -1.963,1.675 -3.255,1.675l-57.513,-0c-1.292,-0 -2.504,-0.624 -3.255,-1.675c-0.751,-1.052 -0.948,-2.401 -0.529,-3.623l6.823,-19.898c0.48,-1.401 1.684,-2.403 3.109,-2.646c-0.108,-0.118 -0.209,-0.243 -0.303,-0.374c-0.751,-1.052 -0.948,-2.401 -0.529,-3.623l16.034,-46.764c0.554,-1.617 2.074,-2.703 3.783,-2.703l7.247,0c1.709,-0 3.229,1.086 3.783,2.703l9.684,28.245l5.14,-8.953c-0.499,-0.479 -0.841,-1.107 -0.966,-1.801c-0.173,-0.96 0.087,-1.947 0.711,-2.698c-0,0 4.429,-5.33 4.429,-5.33c1.027,-1.236 2.794,-1.554 4.188,-0.754c-0,-0 2.294,1.317 2.294,1.317c1.394,0.8 2.01,2.486 1.46,3.996c0,0 -2.369,6.513 -2.369,6.513c-0.334,0.917 -1.056,1.64 -1.972,1.974c-0.662,0.242 -1.377,0.264 -2.042,0.074l-8.023,13.974l3.5,10.207c0.419,1.222 0.222,2.571 -0.529,3.623c-0.094,0.131 -0.195,0.256 -0.303,0.374c1.108,0.189 2.083,0.837 2.687,1.775l0,-17.757l0.009,-0.202l0.029,-0.21l0.047,-0.203l0.066,-0.196l0.127,-0.274l0.164,-0.257l0.197,-0.232l0.227,-0.204l0.253,-0.172l0.276,-0.137l0.298,-0.1l0.25,-0.05l0.383,-0.021l0.235,0.019l0.295,0.06l0.221,0.073l0.156,0.067l0.178,0.095l0.194,0.129l0.207,0.173l0.206,0.224l0.177,0.252l0.101,0.187l0.082,0.193l0.06,0.185c0.142,0.516 0.554,1.031 1.026,1.598l0.07,0.082c0.192,0.18 0.398,0.359 0.609,0.539c1.182,1.012 2.616,1.969 3.866,2.95c2.329,1.828 3.936,3.896 3.936,6.086c-0,2.084 -0.975,4.105 -2.236,5.743c-0.326,0.423 -0.668,0.82 -1.008,1.184c0.498,-0.079 1.008,-0.119 1.528,-0.119c5.386,-0 9.759,4.373 9.759,9.759c0,5.386 -4.373,9.759 -9.759,9.759c-2.404,-0 -4.607,-0.872 -6.308,-2.316Zm-8.687,-16.116c-0.184,-0.08 -0.386,-0.123 -0.595,-0.123l-11.55,-0l-7.518,13.095c-0.908,1.582 -2.93,2.129 -4.512,1.221c-1.582,-0.909 -2.129,-2.93 -1.221,-4.512l5.628,-9.804l-24.696,-0c-0.64,-0 -1.211,0.407 -1.418,1.013l-6.823,19.899c-0.157,0.458 -0.083,0.964 0.198,1.358c0.282,0.395 0.737,0.629 1.221,0.629l57.513,-0c0.484,-0 0.939,-0.234 1.221,-0.629c0.281,-0.394 0.355,-0.9 0.198,-1.358l-3.991,-11.639c-1.176,0.534 -2.45,0.63 -3.556,0.455c-1.455,-0.23 -2.581,-0.971 -3.083,-1.624c-1.063,-1.382 -1.567,-3.872 -0.131,-5.874c0.572,-0.798 1.541,-1.607 3.115,-2.107Zm14.995,0.957c4.259,-0 7.716,3.457 7.716,7.716c0,4.258 -3.457,7.716 -7.716,7.716c-4.258,-0 -7.716,-3.458 -7.716,-7.716c0,-4.259 3.458,-7.716 7.716,-7.716Zm-5.163,4.712l-0.222,0.418l-0.106,0.233l-0.168,0.437c-0.204,0.601 -0.314,1.246 -0.314,1.916c-0,3.297 2.676,5.973 5.973,5.973c0.67,0 1.315,-0.11 1.916,-0.314l0.338,-0.127l0.363,-0.162l0.333,-0.176c0.017,-0.012 0.034,-0.024 0.047,-0.032c0.133,-0.09 0.204,-0.168 0.255,-0.291c0.075,-0.182 0.052,-0.377 -0.048,-0.547c-0.028,-0.047 -0.063,-0.092 -0.103,-0.133l-7.33,-7.331c-0.006,-0.005 -0.012,-0.011 -0.018,-0.016c-0.113,-0.096 -0.255,-0.151 -0.399,-0.151c-0.194,-0 -0.384,0.071 -0.517,0.303Zm1.233,3.053c0.013,1.065 0.451,2.029 1.151,2.729c0.701,0.701 1.665,1.139 2.73,1.152l-3.881,-3.881Zm-8.336,-43.505l-1.265,-0.726c-0.269,-0.155 -0.456,-0.42 -0.511,-0.726c-0.055,-0.306 0.027,-0.62 0.226,-0.859l4.429,-5.33c0.327,-0.394 0.89,-0.495 1.333,-0.24l2.294,1.317c0.444,0.254 0.64,0.791 0.465,1.272l-2.37,6.513c-0.106,0.292 -0.336,0.521 -0.627,0.628c-0.292,0.107 -0.616,0.079 -0.885,-0.076l-1.265,-0.726l-26.17,45.586c-0.289,0.504 -0.933,0.678 -1.436,0.389c-0.504,-0.29 -0.678,-0.933 -0.389,-1.437l26.171,-45.585Zm8.922,38.506l-0.029,0.02c-0.121,0.084 -0.189,0.161 -0.238,0.28c-0.075,0.181 -0.052,0.377 0.049,0.546c0.028,0.048 0.062,0.093 0.102,0.134l7.437,7.436l0.044,0.042c0.113,0.097 0.255,0.152 0.4,0.152c0.185,0 0.35,-0.07 0.5,-0.277l0.069,-0.1l0.235,-0.387l0.265,-0.539c0.311,-0.723 0.484,-1.52 0.484,-2.357c-0,-3.297 -2.677,-5.974 -5.974,-5.974c-0.872,0 -1.7,0.188 -2.447,0.524l-0.497,0.252c-0.137,0.078 -0.27,0.161 -0.4,0.248Zm7.243,5.45c0.021,-0.164 0.032,-0.331 0.032,-0.5c-0,-2.17 -1.761,-3.931 -3.931,-3.931c-0.169,0 -0.336,0.011 -0.5,0.032l4.399,4.399Zm-13.387,-27.87l-0.037,-0.087l-0.051,-0.076l-0.062,-0.066l-0.073,-0.053l-0.082,-0.04l-0.084,-0.023l-0.087,-0.009l-0.021,0l-0.083,0.01l-0.081,0.024l-0.071,0.033l-0.063,0.043l-0.065,0.062l-0.052,0.072l-0.037,0.075l-0.026,0.09l-0.01,0.106l0,19.558c0,0.068 -0.028,0.133 -0.077,0.181c-0.049,0.047 -0.115,0.072 -0.183,0.069c-3.426,-0.139 -5.174,0.776 -5.95,1.859c-0.924,1.288 -0.588,2.89 0.096,3.78c0.233,0.303 0.686,0.604 1.277,0.796c1.288,0.418 3.236,0.341 4.535,-1.111c0.825,-0.922 1.405,-2.423 1.31,-4.774c-0,-0.003 -0.001,-0.007 -0.001,-0.01l0,-17.568c0,-0.103 0.064,-0.196 0.16,-0.233c0.096,-0.038 0.205,-0.012 0.275,0.064l0.343,0.357c0.679,0.8 1.476,1.628 2.279,2.476c1.675,1.769 3.369,3.638 3.748,5.592c0.238,1.225 0.23,2.162 0.039,2.92c-0.215,0.855 -0.665,1.473 -1.219,2.027c-0.611,0.612 -1.343,1.149 -2.061,1.801c-0.197,0.178 -0.221,0.48 -0.054,0.687c0.166,0.208 0.465,0.251 0.683,0.097c-0,0 -0,0 0,0c0,0 1.868,-1.314 3.361,-3.254c1.03,-1.338 1.871,-2.97 1.871,-4.672c0,-0.907 -0.374,-1.757 -1.004,-2.563c-0.578,-0.739 -1.375,-1.447 -2.259,-2.141c-1.516,-1.19 -3.298,-2.346 -4.59,-3.602l-0.363,-0.372c-0.594,-0.73 -1.04,-1.435 -1.225,-2.104l-0.006,-0.021Zm2.792,20.273c-0.236,-0.136 -0.451,-0.318 -0.631,-0.543c-0.173,-0.216 -0.3,-0.455 -0.383,-0.705l0,1.461c0.012,0.311 0.014,0.61 0.005,0.897c0.308,-0.396 0.645,-0.766 1.009,-1.11Zm-1.014,-13.489l0,10.827c0.119,-0.36 0.329,-0.695 0.628,-0.967c0.581,-0.527 1.171,-0.981 1.7,-1.459c0.461,-0.416 0.89,-0.831 1.057,-1.496c0.142,-0.561 0.116,-1.253 -0.059,-2.158c-0.175,-0.899 -0.754,-1.753 -1.428,-2.606c-0.577,-0.73 -1.237,-1.445 -1.898,-2.141Zm-29.194,9.29c-0.249,-0.283 -0.459,-0.602 -0.621,-0.947c-0.161,0.345 -0.371,0.664 -0.62,0.947l1.241,-0Zm14.816,-19.577l-10.394,-30.316c-0.208,-0.607 -0.778,-1.014 -1.419,-1.014l-7.247,0c-0.641,0 -1.211,0.407 -1.419,1.014l-16.033,46.764c-0.157,0.458 -0.083,0.964 0.198,1.359c0.282,0.394 0.736,0.628 1.221,0.628l16.033,-0c0.829,-0 1.5,-0.672 1.5,-1.5l0,-20.6l2.123,-2.73l2.124,2.73l-0,20.6c-0,0.828 0.671,1.5 1.5,1.5l1.229,-0l10.584,-18.435Zm2.85,8.313l-5.811,10.122l7.181,-0c0.485,-0 0.939,-0.234 1.221,-0.628c0.281,-0.395 0.355,-0.901 0.198,-1.359l-2.789,-8.135Z" style="fill:#fff;"/></g></svg>