<?xml version="1.0" encoding="UTF-8" standalone="no"?><!DOCTYPE svg PUBLIC "-//W3C//DTD SVG 1.1//EN" "http://www.w3.org/Graphics/SVG/1.1/DTD/svg11.dtd"><svg width="100%" height="100%" viewBox="0 0 84 86" version="1.1" xmlns="http://www.w3.org/2000/svg" xmlns:xlink="http://www.w3.org/1999/xlink" xml:space="preserve" xmlns:serif="http://www.serif.com/" style="fill-rule:evenodd;clip-rule:evenodd;stroke-linejoin:round;stroke-miterlimit:2;"><g id="ICONES"><g id="Speakers"></g><g id="Notes"></g><g id="Sauvegarde"><rect id="Save" x="0" y="0" width="83.849" height="85.108" style="fill:none;"/><g id="Save1" serif:id="Save"><path d="M45.829,18.066c0,2.209 1.791,4 4,4l2.204,-0c2.209,-0 4,-1.791 4,-4l0,-10.013c0,-2.209 -1.791,-4 -4,-4l-2.204,0c-2.209,0 -4,1.791 -4,4l0,10.013Zm2.5,-0c0,0.828 0.672,1.5 1.5,1.5l2.204,-0c0.829,-0 1.5,-0.672 1.5,-1.5l0,-10.013c0,-0.828 -0.671,-1.5 -1.5,-1.5l-2.204,0c-0.828,0 -1.5,0.672 -1.5,1.5l0,10.013Z" style="fill:#fff;"/><path d="M61.748,28.338c0.398,0 0.78,-0.158 1.061,-0.439c0.281,-0.282 0.439,-0.663 0.439,-1.061c0,-7.579 0,-22.838 0,-22.838c0,-2.209 1.791,-4 4,-4l5.694,0c1.012,0 1.987,0.384 2.727,1.074l6.908,6.44c0.812,0.756 1.272,1.816 1.272,2.925l0,70.669c0,2.209 -1.79,4 -4,4l-6.371,-0c-1.993,-0 -3.681,-1.467 -3.96,-3.44c-0,0 -2.453,-17.332 -3.714,-26.244c-0.14,-0.986 -0.984,-1.719 -1.98,-1.719l-43.798,-0c-0.996,-0 -1.841,0.733 -1.98,1.719c-1.261,8.912 -3.714,26.244 -3.714,26.244c-0.279,1.973 -1.968,3.44 -3.961,3.44l-6.371,-0c-2.209,-0 -4,-1.791 -4,-4l-0,-77.108c0,-2.209 1.791,-4 4,-4l12.601,0c2.209,0 4,1.791 4,4c0,0 0,15.259 0,22.838c0,0.398 0.158,0.779 0.439,1.061c0.282,0.281 0.663,0.439 1.061,0.439l39.647,0Zm0,2.5c1.061,0 2.079,-0.421 2.829,-1.172c0.75,-0.75 1.171,-1.767 1.171,-2.828c0,-7.579 0,-22.838 0,-22.838c0,-0.828 0.672,-1.5 1.5,-1.5l5.694,0c0.379,0 0.745,0.144 1.023,0.403l6.907,6.439c0.305,0.284 0.477,0.681 0.477,1.097l0,70.669c0,0.828 -0.671,1.5 -1.5,1.5l-6.371,-0c-0.747,-0 -1.38,-0.55 -1.485,-1.29c-0,-0 -2.453,-17.332 -3.714,-26.244c-0.314,-2.219 -2.214,-3.869 -4.455,-3.869l-43.798,-0c-2.242,-0 -4.142,1.65 -4.456,3.869c-1.261,8.912 -3.713,26.244 -3.713,26.244c-0.105,0.74 -0.738,1.29 -1.486,1.29l-6.371,-0c-0.828,-0 -1.5,-0.672 -1.5,-1.5l-0,-77.108c0,-0.828 0.672,-1.5 1.5,-1.5l12.601,0c0.829,0 1.5,0.672 1.5,1.5c0,0 0,15.259 0,22.838c0,1.061 0.422,2.078 1.172,2.828c0.75,0.751 1.767,1.172 2.828,1.172l39.647,0Z" style="fill:#fff;"/><path d="M17.108,80.484c-0.182,1.156 0.151,2.333 0.91,3.222c0.76,0.89 1.872,1.402 3.041,1.402l41.731,-0c1.17,-0 2.281,-0.512 3.041,-1.402c0.76,-0.889 1.093,-2.066 0.91,-3.222l-3.274,-20.749c-0.306,-1.945 -1.982,-3.377 -3.951,-3.377l-35.183,0c-1.968,0 -3.644,1.432 -3.951,3.377l-3.274,20.749Zm2.47,0.39c-0.069,0.433 0.056,0.875 0.341,1.208c0.285,0.334 0.702,0.526 1.14,0.526l41.731,-0c0.439,-0 0.855,-0.192 1.14,-0.526c0.285,-0.333 0.41,-0.775 0.342,-1.208l-3.274,-20.75c-0.115,-0.729 -0.743,-1.266 -1.482,-1.266l-35.183,0c-0.738,0 -1.366,0.537 -1.482,1.266l-3.273,20.75Z" style="fill:#fff;"/><g id="Lignes"><path d="M27.915,66.918l28.019,0c1.38,0 2.5,-1.12 2.5,-2.5c0,-1.379 -1.12,-2.5 -2.5,-2.5l-28.019,0c-1.379,0 -2.5,1.121 -2.5,2.5c0,1.38 1.121,2.5 2.5,2.5Zm0,-2l28.019,0c0.276,0 0.5,-0.224 0.5,-0.5c0,-0.276 -0.224,-0.5 -0.5,-0.5l-28.019,0c-0.276,0 -0.5,0.224 -0.5,0.5c0,0.276 0.224,0.5 0.5,0.5Z" style="fill:#fff;"/><path d="M26.79,73.953l30.27,-0c1.379,-0 2.5,-1.121 2.5,-2.5c-0,-1.38 -1.121,-2.5 -2.5,-2.5l-30.27,-0c-1.38,-0 -2.5,1.12 -2.5,2.5c-0,1.379 1.12,2.5 2.5,2.5Zm-0,-2l30.27,-0c0.275,-0 0.5,-0.224 0.5,-0.5c-0,-0.276 -0.225,-0.5 -0.5,-0.5l-30.27,-0c-0.276,-0 -0.5,0.224 -0.5,0.5c-0,0.276 0.224,0.5 0.5,0.5Z" style="fill:#fff;"/><path d="M25.7,80.705l20.169,0c1.379,0 2.5,-1.12 2.5,-2.5c-0,-1.379 -1.121,-2.5 -2.5,-2.5l-20.169,0c-1.38,0 -2.5,1.121 -2.5,2.5c-0,1.38 1.12,2.5 2.5,2.5Zm-0,-2l20.169,0c0.276,0 0.5,-0.224 0.5,-0.5c-0,-0.275 -0.224,-0.5 -0.5,-0.5l-20.169,0c-0.276,0 -0.5,0.225 -0.5,0.5c-0,0.276 0.224,0.5 0.5,0.5Z" style="fill:#fff;"/></g><path d="M23.359,22.119c-0,2.209 1.791,4 4,4l29.132,0c2.209,0 4,-1.791 4,-4l-0,-18.119c-0,-2.209 -1.791,-4 -4,-4l-29.132,0c-2.209,0 -4,1.791 -4,4l-0,18.119Zm2.5,0c-0,0.829 0.671,1.5 1.5,1.5l29.132,0c0.828,0 1.5,-0.671 1.5,-1.5l-0,-18.119c-0,-0.828 -0.672,-1.5 -1.5,-1.5l-29.132,0c-0.829,0 -1.5,0.672 -1.5,1.5l-0,18.119Z" style="fill:#fff;"/></g></g><g id="Export"></g><g id="Lecture"></g><g id="Autres"></g><g id="Éléments-graphiques" serif:id="Éléments graphiques"></g></g><g id="LINKED"><g id="_8N_L-L" serif:id="8N_L-L"></g><g id="_8N_L-RL" serif:id="8N_L-RL"></g><g id="_8N_L-R" serif:id="8N_L-R"></g><g id="_16N_L-L" serif:id="16N_L-L"></g><g id="_16N_L-RL_FULL" serif:id="16N_L-RL_FULL"></g><g id="_16N_L-RL_DEMI" serif:id="16N_L-RL_DEMI"></g><g id="_16N_L-R" serif:id="16N_L-R"></g></g><g id="RESTS"><g id="_1N_R" serif:id="1N_R"></g><g id="_2N_R" serif:id="2N_R"></g><g id="_4N_R" serif:id="4N_R"></g><g id="_16N_R" serif:id="16N_R"></g><g id="_8N_R" serif:id="8N_R"></g></g><g id="DOTTED"><g id="_4N" serif:id="4N"></g><g id="_8N_L-L1" serif:id="8N_L-L"></g><g id="_8N_L-R1" serif:id="8N_L-R"></g><g id="_2N_R1" serif:id="2N_R"></g><g id="_4N_R1" serif:id="4N_R"></g><g id="_8N_R1" serif:id="8N_R"></g></g></svg>