<?xml version="1.0" encoding="UTF-8" standalone="no"?>
<!DOCTYPE svg PUBLIC "-//W3C//DTD SVG 1.1//EN"
 "http://www.w3.org/Graphics/SVG/1.1/DTD/svg11.dtd">
<!-- Generated by graphviz version 2.44.1 (20200629.0846)
 -->
<!-- Title: dependencies Pages: 1 -->
<svg width="2482pt" height="284pt"
 viewBox="0.00 0.00 2482.00 284.00" xmlns="http://www.w3.org/2000/svg" xmlns:xlink="http://www.w3.org/1999/xlink">
<g id="graph0" class="graph" transform="scale(1 1) rotate(0) translate(4 280)">
<title>dependencies</title>
<polygon fill="white" stroke="transparent" points="-4,4 -4,-280 2478,-280 2478,4 -4,4"/>
<text text-anchor="start" x="1216.01" y="-42.4" font-family="sans-serif" font-weight="bold" font-size="14.00">Legend</text>
<polygon fill="#ffffb3" stroke="transparent" points="1003,-10 1003,-30 1023,-30 1023,-10 1003,-10"/>
<text text-anchor="start" x="1026.63" y="-15.4" font-family="sans-serif" font-size="14.00"> &#160;Declarations</text>
<polygon fill="#8dd3c7" stroke="transparent" points="1116,-10 1116,-30 1136,-30 1136,-10 1116,-10"/>
<text text-anchor="start" x="1139.73" y="-15.4" font-family="sans-serif" font-size="14.00"> &#160;Module</text>
<polygon fill="#80b1d3" stroke="transparent" points="1202,-10 1202,-30 1222,-30 1222,-10 1202,-10"/>
<text text-anchor="start" x="1225.78" y="-15.4" font-family="sans-serif" font-size="14.00"> &#160;Bootstrap</text>
<polygon fill="#fdb462" stroke="transparent" points="1299,-10 1299,-30 1319,-30 1319,-10 1299,-10"/>
<text text-anchor="start" x="1322.67" y="-15.4" font-family="sans-serif" font-size="14.00"> &#160;Providers</text>
<polygon fill="#fb8072" stroke="transparent" points="1395,-10 1395,-30 1415,-30 1415,-10 1395,-10"/>
<text text-anchor="start" x="1418.73" y="-15.4" font-family="sans-serif" font-size="14.00"> &#160;Exports</text>
<g id="clust1" class="cluster">
<title>cluster_AppModule</title>
<polygon fill="none" stroke="black" stroke-dasharray="1,5" points="8,-70 8,-268 2466,-268 2466,-70 8,-70"/>
</g>
<g id="clust2" class="cluster">
<title>cluster_AppModule_declarations</title>
<polygon fill="none" stroke="black" points="168,-78 168,-130 2458,-130 2458,-78 168,-78"/>
</g>
<g id="clust18" class="cluster">
<title>cluster_AppModule_imports</title>
<polygon fill="none" stroke="black" points="16,-78 16,-130 160,-130 160,-78 16,-78"/>
</g>
<g id="clust20" class="cluster">
<title>cluster_AppModule_bootstrap</title>
<polygon fill="none" stroke="black" points="1118,-208 1118,-260 1242,-260 1242,-208 1118,-208"/>
</g>
<!-- AppComponent -->
<g id="node1" class="node">
<title>AppComponent</title>
<polygon fill="#ffffb3" stroke="black" points="2449.94,-122 2344.06,-122 2344.06,-86 2449.94,-86 2449.94,-122"/>
<text text-anchor="middle" x="2397" y="-99.8" font-family="Times,serif" font-size="14.00">AppComponent</text>
</g>
<!-- AppModule -->
<g id="node16" class="node">
<title>AppModule</title>
<polygon fill="#8dd3c7" stroke="black" points="1221.66,-187 1218.66,-191 1197.66,-191 1194.66,-187 1138.34,-187 1138.34,-151 1221.66,-151 1221.66,-187"/>
<text text-anchor="middle" x="1180" y="-164.8" font-family="Times,serif" font-size="14.00">AppModule</text>
</g>
<!-- AppComponent&#45;&gt;AppModule -->
<g id="edge1" class="edge">
<title>AppComponent&#45;&gt;AppModule</title>
<path fill="none" stroke="black" d="M2397,-122.32C2397,-145.66 2397,-183 2397,-183 2397,-183 1231.89,-183 1231.89,-183"/>
<polygon fill="black" stroke="black" points="1231.89,-179.5 1221.89,-183 1231.89,-186.5 1231.89,-179.5"/>
</g>
<!-- CreateTrackComponent -->
<g id="node2" class="node">
<title>CreateTrackComponent</title>
<polygon fill="#ffffb3" stroke="black" points="2326.01,-122 2175.99,-122 2175.99,-86 2326.01,-86 2326.01,-122"/>
<text text-anchor="middle" x="2251" y="-99.8" font-family="Times,serif" font-size="14.00">CreateTrackComponent</text>
</g>
<!-- CreateTrackComponent&#45;&gt;AppModule -->
<g id="edge2" class="edge">
<title>CreateTrackComponent&#45;&gt;AppModule</title>
<path fill="none" stroke="black" d="M2251,-122.29C2251,-144.21 2251,-178 2251,-178 2251,-178 1231.98,-178 1231.98,-178"/>
<polygon fill="black" stroke="black" points="1231.98,-174.5 1221.98,-178 1231.98,-181.5 1231.98,-174.5"/>
</g>
<!-- DashboardComponent -->
<g id="node3" class="node">
<title>DashboardComponent</title>
<polygon fill="#ffffb3" stroke="black" points="2157.97,-122 2016.03,-122 2016.03,-86 2157.97,-86 2157.97,-122"/>
<text text-anchor="middle" x="2087" y="-99.8" font-family="Times,serif" font-size="14.00">DashboardComponent</text>
</g>
<!-- DashboardComponent&#45;&gt;AppModule -->
<g id="edge3" class="edge">
<title>DashboardComponent&#45;&gt;AppModule</title>
<path fill="none" stroke="black" d="M2087,-122.03C2087,-142.77 2087,-174 2087,-174 2087,-174 1231.93,-174 1231.93,-174"/>
<polygon fill="black" stroke="black" points="1231.93,-170.5 1221.93,-174 1231.93,-177.5 1231.93,-170.5"/>
</g>
<!-- ExportMenuComponent -->
<g id="node4" class="node">
<title>ExportMenuComponent</title>
<polygon fill="#ffffb3" stroke="black" points="1998.1,-122 1845.9,-122 1845.9,-86 1998.1,-86 1998.1,-122"/>
<text text-anchor="middle" x="1922" y="-99.8" font-family="Times,serif" font-size="14.00">ExportMenuComponent</text>
</g>
<!-- ExportMenuComponent&#45;&gt;AppModule -->
<g id="edge4" class="edge">
<title>ExportMenuComponent&#45;&gt;AppModule</title>
<path fill="none" stroke="black" d="M1922,-122.11C1922,-141.34 1922,-169 1922,-169 1922,-169 1231.75,-169 1231.75,-169"/>
<polygon fill="black" stroke="black" points="1231.75,-165.5 1221.75,-169 1231.75,-172.5 1231.75,-165.5"/>
</g>
<!-- MainMenuComponent -->
<g id="node5" class="node">
<title>MainMenuComponent</title>
<polygon fill="#ffffb3" stroke="black" points="1827.54,-122 1684.46,-122 1684.46,-86 1827.54,-86 1827.54,-122"/>
<text text-anchor="middle" x="1756" y="-99.8" font-family="Times,serif" font-size="14.00">MainMenuComponent</text>
</g>
<!-- MainMenuComponent&#45;&gt;AppModule -->
<g id="edge5" class="edge">
<title>MainMenuComponent&#45;&gt;AppModule</title>
<path fill="none" stroke="black" d="M1756,-122.3C1756,-140.27 1756,-165 1756,-165 1756,-165 1231.89,-165 1231.89,-165"/>
<polygon fill="black" stroke="black" points="1231.89,-161.5 1221.89,-165 1231.89,-168.5 1231.89,-161.5"/>
</g>
<!-- MeasureComponent -->
<g id="node6" class="node">
<title>MeasureComponent</title>
<polygon fill="#ffffb3" stroke="black" points="1665.53,-122 1536.47,-122 1536.47,-86 1665.53,-86 1665.53,-122"/>
<text text-anchor="middle" x="1601" y="-99.8" font-family="Times,serif" font-size="14.00">MeasureComponent</text>
</g>
<!-- MeasureComponent&#45;&gt;AppModule -->
<g id="edge6" class="edge">
<title>MeasureComponent&#45;&gt;AppModule</title>
<path fill="none" stroke="black" d="M1601,-122.03C1601,-138.4 1601,-160 1601,-160 1601,-160 1231.91,-160 1231.91,-160"/>
<polygon fill="black" stroke="black" points="1231.91,-156.5 1221.91,-160 1231.91,-163.5 1231.91,-156.5"/>
</g>
<!-- MetronomeComponent -->
<g id="node7" class="node">
<title>MetronomeComponent</title>
<polygon fill="#ffffb3" stroke="black" points="1518.15,-122 1371.85,-122 1371.85,-86 1518.15,-86 1518.15,-122"/>
<text text-anchor="middle" x="1445" y="-99.8" font-family="Times,serif" font-size="14.00">MetronomeComponent</text>
</g>
<!-- MetronomeComponent&#45;&gt;AppModule -->
<g id="edge7" class="edge">
<title>MetronomeComponent&#45;&gt;AppModule</title>
<path fill="none" stroke="black" d="M1445,-122.19C1445,-137.18 1445,-156 1445,-156 1445,-156 1231.7,-156 1231.7,-156"/>
<polygon fill="black" stroke="black" points="1231.7,-152.5 1221.7,-156 1231.7,-159.5 1231.7,-152.5"/>
</g>
<!-- MetronomeSoundComponent -->
<g id="node8" class="node">
<title>MetronomeSoundComponent</title>
<polygon fill="#ffffb3" stroke="black" points="1353.43,-122 1170.57,-122 1170.57,-86 1353.43,-86 1353.43,-122"/>
<text text-anchor="middle" x="1262" y="-99.8" font-family="Times,serif" font-size="14.00">MetronomeSoundComponent</text>
</g>
<!-- MetronomeSoundComponent&#45;&gt;AppModule -->
<g id="edge8" class="edge">
<title>MetronomeSoundComponent&#45;&gt;AppModule</title>
<path fill="none" stroke="black" d="M1196.31,-122.11C1196.31,-122.11 1196.31,-140.99 1196.31,-140.99"/>
<polygon fill="black" stroke="black" points="1192.81,-140.99 1196.31,-150.99 1199.81,-140.99 1192.81,-140.99"/>
</g>
<!-- NoteComponent -->
<g id="node9" class="node">
<title>NoteComponent</title>
<polygon fill="#ffffb3" stroke="black" points="1153.05,-122 1044.95,-122 1044.95,-86 1153.05,-86 1153.05,-122"/>
<text text-anchor="middle" x="1099" y="-99.8" font-family="Times,serif" font-size="14.00">NoteComponent</text>
</g>
<!-- NoteComponent&#45;&gt;AppModule -->
<g id="edge9" class="edge">
<title>NoteComponent&#45;&gt;AppModule</title>
<path fill="none" stroke="black" d="M1145.72,-122.11C1145.72,-122.11 1145.72,-140.99 1145.72,-140.99"/>
<polygon fill="black" stroke="black" points="1142.22,-140.99 1145.72,-150.99 1149.22,-140.99 1142.22,-140.99"/>
</g>
<!-- PlaybarComponent -->
<g id="node10" class="node">
<title>PlaybarComponent</title>
<polygon fill="#ffffb3" stroke="black" points="1027.1,-122 902.9,-122 902.9,-86 1027.1,-86 1027.1,-122"/>
<text text-anchor="middle" x="965" y="-99.8" font-family="Times,serif" font-size="14.00">PlaybarComponent</text>
</g>
<!-- PlaybarComponent&#45;&gt;AppModule -->
<g id="edge10" class="edge">
<title>PlaybarComponent&#45;&gt;AppModule</title>
<path fill="none" stroke="black" d="M965,-122.19C965,-137.18 965,-156 965,-156 965,-156 1128.29,-156 1128.29,-156"/>
<polygon fill="black" stroke="black" points="1128.29,-159.5 1138.29,-156 1128.29,-152.5 1128.29,-159.5"/>
</g>
<!-- RhythmComponent -->
<g id="node11" class="node">
<title>RhythmComponent</title>
<polygon fill="#ffffb3" stroke="black" points="885.45,-122 758.55,-122 758.55,-86 885.45,-86 885.45,-122"/>
<text text-anchor="middle" x="822" y="-99.8" font-family="Times,serif" font-size="14.00">RhythmComponent</text>
</g>
<!-- RhythmComponent&#45;&gt;AppModule -->
<g id="edge11" class="edge">
<title>RhythmComponent&#45;&gt;AppModule</title>
<path fill="none" stroke="black" d="M822,-122.03C822,-138.4 822,-160 822,-160 822,-160 1128.23,-160 1128.23,-160"/>
<polygon fill="black" stroke="black" points="1128.23,-163.5 1138.23,-160 1128.23,-156.5 1128.23,-163.5"/>
</g>
<!-- SaveMenuComponent -->
<g id="node12" class="node">
<title>SaveMenuComponent</title>
<polygon fill="#ffffb3" stroke="black" points="740.7,-122 599.3,-122 599.3,-86 740.7,-86 740.7,-122"/>
<text text-anchor="middle" x="670" y="-99.8" font-family="Times,serif" font-size="14.00">SaveMenuComponent</text>
</g>
<!-- SaveMenuComponent&#45;&gt;AppModule -->
<g id="edge12" class="edge">
<title>SaveMenuComponent&#45;&gt;AppModule</title>
<path fill="none" stroke="black" d="M670,-122.3C670,-140.27 670,-165 670,-165 670,-165 1128.26,-165 1128.26,-165"/>
<polygon fill="black" stroke="black" points="1128.26,-168.5 1138.26,-165 1128.26,-161.5 1128.26,-168.5"/>
</g>
<!-- SignatureComponent -->
<g id="node13" class="node">
<title>SignatureComponent</title>
<polygon fill="#ffffb3" stroke="black" points="581.49,-122 446.51,-122 446.51,-86 581.49,-86 581.49,-122"/>
<text text-anchor="middle" x="514" y="-99.8" font-family="Times,serif" font-size="14.00">SignatureComponent</text>
</g>
<!-- SignatureComponent&#45;&gt;AppModule -->
<g id="edge13" class="edge">
<title>SignatureComponent&#45;&gt;AppModule</title>
<path fill="none" stroke="black" d="M514,-122.11C514,-141.34 514,-169 514,-169 514,-169 1128.34,-169 1128.34,-169"/>
<polygon fill="black" stroke="black" points="1128.34,-172.5 1138.34,-169 1128.34,-165.5 1128.34,-172.5"/>
</g>
<!-- TempoComponent -->
<g id="node14" class="node">
<title>TempoComponent</title>
<polygon fill="#ffffb3" stroke="black" points="428.49,-122 307.51,-122 307.51,-86 428.49,-86 428.49,-122"/>
<text text-anchor="middle" x="368" y="-99.8" font-family="Times,serif" font-size="14.00">TempoComponent</text>
</g>
<!-- TempoComponent&#45;&gt;AppModule -->
<g id="edge14" class="edge">
<title>TempoComponent&#45;&gt;AppModule</title>
<path fill="none" stroke="black" d="M368,-122.03C368,-142.77 368,-174 368,-174 368,-174 1128.34,-174 1128.34,-174"/>
<polygon fill="black" stroke="black" points="1128.34,-177.5 1138.34,-174 1128.34,-170.5 1128.34,-177.5"/>
</g>
<!-- TrackComponent -->
<g id="node15" class="node">
<title>TrackComponent</title>
<polygon fill="#ffffb3" stroke="black" points="289.97,-122 176.03,-122 176.03,-86 289.97,-86 289.97,-122"/>
<text text-anchor="middle" x="233" y="-99.8" font-family="Times,serif" font-size="14.00">TrackComponent</text>
</g>
<!-- TrackComponent&#45;&gt;AppModule -->
<g id="edge15" class="edge">
<title>TrackComponent&#45;&gt;AppModule</title>
<path fill="none" stroke="black" d="M233,-122.29C233,-144.21 233,-178 233,-178 233,-178 1128.09,-178 1128.09,-178"/>
<polygon fill="black" stroke="black" points="1128.09,-181.5 1138.09,-178 1128.09,-174.5 1128.09,-181.5"/>
</g>
<!-- AppComponent  -->
<g id="node18" class="node">
<title>AppComponent </title>
<polygon fill="#80b1d3" stroke="black" points="1234.44,-252 1125.56,-252 1125.56,-216 1234.44,-216 1234.44,-252"/>
<text text-anchor="middle" x="1180" y="-229.8" font-family="Times,serif" font-size="14.00">AppComponent </text>
</g>
<!-- AppModule&#45;&gt;AppComponent  -->
<g id="edge17" class="edge">
<title>AppModule&#45;&gt;AppComponent </title>
<path fill="none" stroke="black" stroke-dasharray="1,5" d="M1180,-187.11C1180,-187.11 1180,-205.99 1180,-205.99"/>
<polygon fill="black" stroke="black" points="1176.5,-205.99 1180,-215.99 1183.5,-205.99 1176.5,-205.99"/>
</g>
<!-- AppRoutingModule -->
<g id="node17" class="node">
<title>AppRoutingModule</title>
<polygon fill="#8dd3c7" stroke="black" points="152.27,-122 149.27,-126 128.27,-126 125.27,-122 23.73,-122 23.73,-86 152.27,-86 152.27,-122"/>
<text text-anchor="middle" x="88" y="-99.8" font-family="Times,serif" font-size="14.00">AppRoutingModule</text>
</g>
<!-- AppRoutingModule&#45;&gt;AppModule -->
<g id="edge16" class="edge">
<title>AppRoutingModule&#45;&gt;AppModule</title>
<path fill="none" stroke="black" d="M88,-122.32C88,-145.66 88,-183 88,-183 88,-183 1128.19,-183 1128.19,-183"/>
<polygon fill="black" stroke="black" points="1128.19,-186.5 1138.19,-183 1128.19,-179.5 1128.19,-186.5"/>
</g>
</g>
</svg>
