<?xml version="1.0" encoding="UTF-8" standalone="no"?>
<!DOCTYPE svg PUBLIC "-//W3C//DTD SVG 1.1//EN"
 "http://www.w3.org/Graphics/SVG/1.1/DTD/svg11.dtd">
<!-- Generated by graphviz version 2.44.1 (20200629.0846)
 -->
<!-- Title: dependencies Pages: 1 -->
<svg width="1080pt" height="284pt"
 viewBox="0.00 0.00 1080.00 284.00" xmlns="http://www.w3.org/2000/svg" xmlns:xlink="http://www.w3.org/1999/xlink">
<g id="graph0" class="graph" transform="scale(1 1) rotate(0) translate(4 280)">
<title>dependencies</title>
<polygon fill="white" stroke="transparent" points="-4,4 -4,-280 1076,-280 1076,4 -4,4"/>
<text text-anchor="start" x="515.01" y="-42.4" font-family="sans-serif" font-weight="bold" font-size="14.00">Legend</text>
<polygon fill="#ffffb3" stroke="transparent" points="302,-10 302,-30 322,-30 322,-10 302,-10"/>
<text text-anchor="start" x="325.63" y="-15.4" font-family="sans-serif" font-size="14.00"> &#160;Declarations</text>
<polygon fill="#8dd3c7" stroke="transparent" points="415,-10 415,-30 435,-30 435,-10 415,-10"/>
<text text-anchor="start" x="438.73" y="-15.4" font-family="sans-serif" font-size="14.00"> &#160;Module</text>
<polygon fill="#80b1d3" stroke="transparent" points="501,-10 501,-30 521,-30 521,-10 501,-10"/>
<text text-anchor="start" x="524.78" y="-15.4" font-family="sans-serif" font-size="14.00"> &#160;Bootstrap</text>
<polygon fill="#fdb462" stroke="transparent" points="598,-10 598,-30 618,-30 618,-10 598,-10"/>
<text text-anchor="start" x="621.67" y="-15.4" font-family="sans-serif" font-size="14.00"> &#160;Providers</text>
<polygon fill="#fb8072" stroke="transparent" points="694,-10 694,-30 714,-30 714,-10 694,-10"/>
<text text-anchor="start" x="717.73" y="-15.4" font-family="sans-serif" font-size="14.00"> &#160;Exports</text>
<g id="clust1" class="cluster">
<title>cluster_AppModule</title>
<polygon fill="none" stroke="black" stroke-dasharray="1,5" points="8,-70 8,-268 1064,-268 1064,-70 8,-70"/>
</g>
<g id="clust2" class="cluster">
<title>cluster_AppModule_declarations</title>
<polygon fill="none" stroke="black" points="168,-78 168,-130 1056,-130 1056,-78 168,-78"/>
</g>
<g id="clust9" class="cluster">
<title>cluster_AppModule_imports</title>
<polygon fill="none" stroke="black" points="16,-78 16,-130 160,-130 160,-78 16,-78"/>
</g>
<g id="clust11" class="cluster">
<title>cluster_AppModule_bootstrap</title>
<polygon fill="none" stroke="black" points="462,-208 462,-260 586,-260 586,-208 462,-208"/>
</g>
<!-- AppComponent -->
<g id="node1" class="node">
<title>AppComponent</title>
<polygon fill="#ffffb3" stroke="black" points="1047.94,-122 942.06,-122 942.06,-86 1047.94,-86 1047.94,-122"/>
<text text-anchor="middle" x="995" y="-99.8" font-family="Times,serif" font-size="14.00">AppComponent</text>
</g>
<!-- AppModule -->
<g id="node7" class="node">
<title>AppModule</title>
<polygon fill="#8dd3c7" stroke="black" points="565.66,-187 562.66,-191 541.66,-191 538.66,-187 482.34,-187 482.34,-151 565.66,-151 565.66,-187"/>
<text text-anchor="middle" x="524" y="-164.8" font-family="Times,serif" font-size="14.00">AppModule</text>
</g>
<!-- AppComponent&#45;&gt;AppModule -->
<g id="edge1" class="edge">
<title>AppComponent&#45;&gt;AppModule</title>
<path fill="none" stroke="black" d="M995,-122.29C995,-144.21 995,-178 995,-178 995,-178 575.8,-178 575.8,-178"/>
<polygon fill="black" stroke="black" points="575.8,-174.5 565.8,-178 575.8,-181.5 575.8,-174.5"/>
</g>
<!-- CreateTrackComponent -->
<g id="node2" class="node">
<title>CreateTrackComponent</title>
<polygon fill="#ffffb3" stroke="black" points="924.01,-122 773.99,-122 773.99,-86 924.01,-86 924.01,-122"/>
<text text-anchor="middle" x="849" y="-99.8" font-family="Times,serif" font-size="14.00">CreateTrackComponent</text>
</g>
<!-- CreateTrackComponent&#45;&gt;AppModule -->
<g id="edge2" class="edge">
<title>CreateTrackComponent&#45;&gt;AppModule</title>
<path fill="none" stroke="black" d="M849,-122.11C849,-141.34 849,-169 849,-169 849,-169 575.82,-169 575.82,-169"/>
<polygon fill="black" stroke="black" points="575.82,-165.5 565.82,-169 575.82,-172.5 575.82,-165.5"/>
</g>
<!-- DashboardComponent -->
<g id="node3" class="node">
<title>DashboardComponent</title>
<polygon fill="#ffffb3" stroke="black" points="755.97,-122 614.03,-122 614.03,-86 755.97,-86 755.97,-122"/>
<text text-anchor="middle" x="685" y="-99.8" font-family="Times,serif" font-size="14.00">DashboardComponent</text>
</g>
<!-- DashboardComponent&#45;&gt;AppModule -->
<g id="edge3" class="edge">
<title>DashboardComponent&#45;&gt;AppModule</title>
<path fill="none" stroke="black" d="M685,-122.03C685,-138.4 685,-160 685,-160 685,-160 575.88,-160 575.88,-160"/>
<polygon fill="black" stroke="black" points="575.88,-156.5 565.88,-160 575.88,-163.5 575.88,-156.5"/>
</g>
<!-- MainMenuComponent -->
<g id="node4" class="node">
<title>MainMenuComponent</title>
<polygon fill="#ffffb3" stroke="black" points="595.54,-122 452.46,-122 452.46,-86 595.54,-86 595.54,-122"/>
<text text-anchor="middle" x="524" y="-99.8" font-family="Times,serif" font-size="14.00">MainMenuComponent</text>
</g>
<!-- MainMenuComponent&#45;&gt;AppModule -->
<g id="edge4" class="edge">
<title>MainMenuComponent&#45;&gt;AppModule</title>
<path fill="none" stroke="black" d="M524,-122.11C524,-122.11 524,-140.99 524,-140.99"/>
<polygon fill="black" stroke="black" points="520.5,-140.99 524,-150.99 527.5,-140.99 520.5,-140.99"/>
</g>
<!-- RhythmComponent -->
<g id="node5" class="node">
<title>RhythmComponent</title>
<polygon fill="#ffffb3" stroke="black" points="434.45,-122 307.55,-122 307.55,-86 434.45,-86 434.45,-122"/>
<text text-anchor="middle" x="371" y="-99.8" font-family="Times,serif" font-size="14.00">RhythmComponent</text>
</g>
<!-- RhythmComponent&#45;&gt;AppModule -->
<g id="edge5" class="edge">
<title>RhythmComponent&#45;&gt;AppModule</title>
<path fill="none" stroke="black" d="M371,-122.03C371,-138.4 371,-160 371,-160 371,-160 472.19,-160 472.19,-160"/>
<polygon fill="black" stroke="black" points="472.19,-163.5 482.19,-160 472.19,-156.5 472.19,-163.5"/>
</g>
<!-- TrackComponent -->
<g id="node6" class="node">
<title>TrackComponent</title>
<polygon fill="#ffffb3" stroke="black" points="289.97,-122 176.03,-122 176.03,-86 289.97,-86 289.97,-122"/>
<text text-anchor="middle" x="233" y="-99.8" font-family="Times,serif" font-size="14.00">TrackComponent</text>
</g>
<!-- TrackComponent&#45;&gt;AppModule -->
<g id="edge6" class="edge">
<title>TrackComponent&#45;&gt;AppModule</title>
<path fill="none" stroke="black" d="M233,-122.11C233,-141.34 233,-169 233,-169 233,-169 472.31,-169 472.31,-169"/>
<polygon fill="black" stroke="black" points="472.31,-172.5 482.31,-169 472.31,-165.5 472.31,-172.5"/>
</g>
<!-- AppComponent  -->
<g id="node9" class="node">
<title>AppComponent </title>
<polygon fill="#80b1d3" stroke="black" points="578.44,-252 469.56,-252 469.56,-216 578.44,-216 578.44,-252"/>
<text text-anchor="middle" x="524" y="-229.8" font-family="Times,serif" font-size="14.00">AppComponent </text>
</g>
<!-- AppModule&#45;&gt;AppComponent  -->
<g id="edge8" class="edge">
<title>AppModule&#45;&gt;AppComponent </title>
<path fill="none" stroke="black" stroke-dasharray="1,5" d="M524,-187.11C524,-187.11 524,-205.99 524,-205.99"/>
<polygon fill="black" stroke="black" points="520.5,-205.99 524,-215.99 527.5,-205.99 520.5,-205.99"/>
</g>
<!-- AppRoutingModule -->
<g id="node8" class="node">
<title>AppRoutingModule</title>
<polygon fill="#8dd3c7" stroke="black" points="152.27,-122 149.27,-126 128.27,-126 125.27,-122 23.73,-122 23.73,-86 152.27,-86 152.27,-122"/>
<text text-anchor="middle" x="88" y="-99.8" font-family="Times,serif" font-size="14.00">AppRoutingModule</text>
</g>
<!-- AppRoutingModule&#45;&gt;AppModule -->
<g id="edge7" class="edge">
<title>AppRoutingModule&#45;&gt;AppModule</title>
<path fill="none" stroke="black" d="M88,-122.29C88,-144.21 88,-178 88,-178 88,-178 472.19,-178 472.19,-178"/>
<polygon fill="black" stroke="black" points="472.19,-181.5 482.19,-178 472.19,-174.5 472.19,-181.5"/>
</g>
</g>
</svg>
