<?xml version="1.0" encoding="UTF-8" standalone="no"?><!DOCTYPE svg PUBLIC "-//W3C//DTD SVG 1.1//EN" "http://www.w3.org/Graphics/SVG/1.1/DTD/svg11.dtd"><svg width="100%" height="100%" viewBox="0 0 111 101" version="1.1" xmlns="http://www.w3.org/2000/svg" xmlns:xlink="http://www.w3.org/1999/xlink" xml:space="preserve" xmlns:serif="http://www.serif.com/" style="fill-rule:evenodd;clip-rule:evenodd;stroke-linejoin:round;stroke-miterlimit:2;"><g id="ICONES"><g id="Speakers"></g><g id="Notes"></g><g id="Sauvegarde"></g><g id="Export"></g><g id="Lecture"></g><g id="Autres"></g><g id="Éléments-graphiques" serif:id="Éléments graphiques"></g></g><rect id="Plan-de-travail1" serif:id="Plan de travail1" x="0" y="0" width="110.737" height="100.399" style="fill:none;"/><path id="Onde" d="M47.906,62.019l5.481,-58.393c0.194,-2.067 1.938,-3.642 4.015,-3.626c2.076,0.017 3.795,1.62 3.956,3.69l4.383,56.351l0.798,-0c1.66,-0 3.148,1.025 3.738,2.577l1.053,2.766l0.477,-2.193c0.4,-1.839 2.027,-3.15 3.909,-3.15l31.021,-0c2.207,-0 4,1.792 4,4c-0,2.208 -1.793,4 -4,4l-27.798,-0l-2.65,12.193c-0.376,1.73 -1.845,3.007 -3.61,3.14c-1.765,0.132 -3.408,-0.912 -4.037,-2.566l-4.86,-12.767l-1.742,-0c-2.089,-0 -3.826,-1.607 -3.988,-3.69l-1.056,-13.568l-4.316,45.99c-0.19,2.02 -1.862,3.578 -3.891,3.625c-2.029,0.047 -3.771,-1.433 -4.053,-3.443l-4.109,-29.25c-0.656,0.288 -1.391,0.4 -2.134,0.301c-1.288,-0.173 -2.384,-0.953 -2.982,-2.053l-1.97,7.155c-0.434,1.574 -1.78,2.727 -3.402,2.912c-1.622,0.186 -3.194,-0.633 -3.972,-2.068l-3.202,-5.911l-18.965,-0c-2.208,-0 -4,-1.792 -4,-4c0,-2.208 1.792,-4 4,-4l21.348,-0c1.21,-0 2.34,0.546 3.09,1.463l3.727,-13.535c0.492,-1.787 2.147,-3.002 3.999,-2.936c1.853,0.066 3.417,1.396 3.78,3.213l0.889,4.445c0.818,-0.537 1.826,-0.769 2.839,-0.603c1.728,0.282 3.072,1.657 3.316,3.391l0.918,6.54Zm0.495,21.487l7.475,-79.646c0.073,-0.775 0.727,-1.366 1.506,-1.36c0.778,0.006 1.423,0.607 1.483,1.384l4.562,58.657l3.112,-0c0.623,-0 1.18,0.384 1.402,0.966l4.045,10.627l2.264,-10.412c0.15,-0.689 0.76,-1.181 1.466,-1.181l31.021,-0c0.828,-0 1.5,0.672 1.5,1.5c-0,0.828 -0.672,1.5 -1.5,1.5l-29.812,-0l-3.079,14.162c-0.141,0.649 -0.692,1.128 -1.354,1.178c-0.662,0.049 -1.278,-0.342 -1.514,-0.963l-5.473,-14.377l-3.465,-0c-0.784,-0 -1.435,-0.603 -1.496,-1.384l-3.314,-42.614l-7.039,74.996c-0.072,0.758 -0.699,1.342 -1.459,1.36c-0.761,0.017 -1.414,-0.538 -1.52,-1.291l-5,-35.589l-1.846,3.693c-0.287,0.573 -0.906,0.901 -1.541,0.816c-0.635,-0.085 -1.146,-0.565 -1.272,-1.193l-1.763,-8.813l-4.66,16.923c-0.162,0.59 -0.667,1.022 -1.275,1.092c-0.609,0.069 -1.198,-0.238 -1.49,-0.776l-3.911,-7.22l-20.454,-0c-0.828,-0 -1.5,-0.672 -1.5,-1.5c0,-0.828 0.672,-1.5 1.5,-1.5l21.348,-0c0.55,-0 1.057,0.301 1.319,0.786l2.561,4.727l5.348,-19.422c0.184,-0.67 0.805,-1.125 1.499,-1.1c0.695,0.024 1.281,0.523 1.418,1.205l2.144,10.723l2.048,-4.095c0.294,-0.588 0.935,-0.916 1.584,-0.81c0.648,0.106 1.152,0.621 1.243,1.272l3.889,27.679Z" style="fill:#fff;"/></svg>