<?xml version="1.0" encoding="UTF-8" standalone="no"?><!DOCTYPE svg PUBLIC "-//W3C//DTD SVG 1.1//EN" "http://www.w3.org/Graphics/SVG/1.1/DTD/svg11.dtd"><svg width="100%" height="100%" viewBox="0 0 52 56" version="1.1" xmlns="http://www.w3.org/2000/svg" xmlns:xlink="http://www.w3.org/1999/xlink" xml:space="preserve" xmlns:serif="http://www.serif.com/" style="fill-rule:evenodd;clip-rule:evenodd;stroke-linejoin:round;stroke-miterlimit:2;"><g id="ICONES"><g id="Speakers"></g><g id="Notes"></g><g id="Sauvegarde"></g><g id="Export"></g><g id="Lecture"><rect id="Hop" x="0" y="0" width="51.031" height="55.859" style="fill:none;"/><clipPath id="_clip1"><rect id="Hop1" serif:id="Hop" x="0" y="0" width="51.031" height="55.859"/></clipPath><g clip-path="url(#_clip1)"><g id="Hop2" serif:id="Hop"><path d="M43.031,4l0,47.859c0,2.208 1.792,4 4,4c2.208,0 4,-1.792 4,-4l0,-47.859c0,-2.208 -1.792,-4 -4,-4c-2.208,0 -4,1.792 -4,4Zm3,0l0,47.859c0,0.552 0.448,1 1,1c0.552,0 1,-0.448 1,-1l0,-47.859c0,-0.552 -0.448,-1 -1,-1c-0.552,0 -1,0.448 -1,1Z" style="fill:#fff;"/><path d="M0,4l0,47.859c0,1.485 0.823,2.848 2.137,3.54c1.314,0.692 2.903,0.599 4.127,-0.242l34.854,-23.93c1.086,-0.746 1.736,-1.979 1.736,-3.297c-0,-1.318 -0.65,-2.552 -1.736,-3.298l-34.854,-23.93c-1.224,-0.84 -2.813,-0.933 -4.127,-0.242c-1.314,0.692 -2.137,2.055 -2.137,3.54Zm4,47.859l0,-47.859l34.854,23.93l-34.854,23.929Z" style="fill:#fff;"/></g></g></g><g id="Autres"></g><g id="Éléments-graphiques" serif:id="Éléments graphiques"></g></g><g id="LINKED"><g id="_8N_L-L" serif:id="8N_L-L"></g><g id="_8N_L-RL" serif:id="8N_L-RL"></g><g id="_8N_L-R" serif:id="8N_L-R"></g><g id="_16N_L-L" serif:id="16N_L-L"></g><g id="_16N_L-RL_FULL" serif:id="16N_L-RL_FULL"></g><g id="_16N_L-RL_DEMI" serif:id="16N_L-RL_DEMI"></g><g id="_16N_L-R" serif:id="16N_L-R"></g></g><g id="RESTS"><g id="_1N_R" serif:id="1N_R"></g><g id="_2N_R" serif:id="2N_R"></g><g id="_4N_R" serif:id="4N_R"></g><g id="_16N_R" serif:id="16N_R"></g><g id="_8N_R" serif:id="8N_R"></g></g><g id="DOTTED"><g id="_4N" serif:id="4N"></g><g id="_8N_L-L1" serif:id="8N_L-L"></g><g id="_8N_L-R1" serif:id="8N_L-R"></g><g id="_2N_R1" serif:id="2N_R"></g><g id="_4N_R1" serif:id="4N_R"></g><g id="_8N_R1" serif:id="8N_R"></g></g></svg>