<?xml version="1.0" encoding="UTF-8" standalone="no"?><!DOCTYPE svg PUBLIC "-//W3C//DTD SVG 1.1//EN" "http://www.w3.org/Graphics/SVG/1.1/DTD/svg11.dtd"><svg width="100%" height="100%" viewBox="0 0 59 69" version="1.1" xmlns="http://www.w3.org/2000/svg" xmlns:xlink="http://www.w3.org/1999/xlink" xml:space="preserve" xmlns:serif="http://www.serif.com/" style="fill-rule:evenodd;clip-rule:evenodd;stroke-linejoin:round;stroke-miterlimit:2;"><g id="ICONES"><g id="Speakers"></g><g id="Notes"></g><g id="Sauvegarde"></g><g id="Export"></g><g id="Lecture"><rect id="Pause" x="0" y="0" width="58.381" height="68.381" style="fill:none;"/><g id="Pause1" serif:id="Pause"><g id="Pause2" serif:id="Pause"><path d="M25.203,4c0,-2.209 -1.791,-4 -4,-4l-17.203,0c-2.209,0 -4,1.791 -4,4l0,60.381c0,2.209 1.791,4 4,4l17.203,-0c2.209,-0 4,-1.791 4,-4l0,-60.381Zm-4,1.488c0,-0.394 -0.157,-0.773 -0.436,-1.052c-0.279,-0.279 -0.658,-0.436 -1.052,-0.436c-3.255,-0 -10.972,-0 -14.227,-0c-0.394,0 -0.773,0.157 -1.052,0.436c-0.279,0.279 -0.436,0.658 -0.436,1.052c0,8.329 0,49.076 0,57.404c-0,0.395 0.157,0.774 0.436,1.053c0.279,0.279 0.658,0.436 1.052,0.436c3.255,-0 10.972,-0 14.227,-0c0.394,-0 0.773,-0.157 1.052,-0.436c0.279,-0.279 0.436,-0.658 0.436,-1.053c0,-8.328 0,-49.075 0,-57.404Z" style="fill:#fff;"/><path d="M58.381,4c-0,-2.209 -1.791,-4 -4,-4l-17.204,0c-2.209,0 -4,1.791 -4,4l0,60.381c0,2.209 1.791,4 4,4l17.204,-0c2.209,-0 4,-1.791 4,-4l-0,-60.381Zm-4,1.488c-0,-0.394 -0.157,-0.773 -0.436,-1.052c-0.279,-0.279 -0.658,-0.436 -1.053,-0.436c-3.254,-0 -10.972,-0 -14.226,-0c-0.395,0 -0.773,0.157 -1.053,0.436c-0.279,0.279 -0.436,0.658 -0.436,1.052c0,8.329 0,49.076 0,57.404c0,0.395 0.157,0.774 0.436,1.053c0.28,0.279 0.658,0.436 1.053,0.436c3.254,-0 10.972,-0 14.226,-0c0.395,-0 0.774,-0.157 1.053,-0.436c0.279,-0.279 0.436,-0.658 0.436,-1.053c-0,-8.328 -0,-49.075 -0,-57.404Z" style="fill:#fff;"/></g></g></g><g id="Autres"></g><g id="Éléments-graphiques" serif:id="Éléments graphiques"></g></g><g id="LINKED"><g id="_8N_L-L" serif:id="8N_L-L"></g><g id="_8N_L-RL" serif:id="8N_L-RL"></g><g id="_8N_L-R" serif:id="8N_L-R"></g><g id="_16N_L-L" serif:id="16N_L-L"></g><g id="_16N_L-RL_FULL" serif:id="16N_L-RL_FULL"></g><g id="_16N_L-RL_DEMI" serif:id="16N_L-RL_DEMI"></g><g id="_16N_L-R" serif:id="16N_L-R"></g></g><g id="RESTS"><g id="_1N_R" serif:id="1N_R"></g><g id="_2N_R" serif:id="2N_R"></g><g id="_4N_R" serif:id="4N_R"></g><g id="_16N_R" serif:id="16N_R"></g><g id="_8N_R" serif:id="8N_R"></g></g><g id="DOTTED"><g id="_4N" serif:id="4N"></g><g id="_8N_L-L1" serif:id="8N_L-L"></g><g id="_8N_L-R1" serif:id="8N_L-R"></g><g id="_2N_R1" serif:id="2N_R"></g><g id="_4N_R1" serif:id="4N_R"></g><g id="_8N_R1" serif:id="8N_R"></g></g></svg>