<?xml version="1.0" encoding="UTF-8" standalone="no"?><!DOCTYPE svg PUBLIC "-//W3C//DTD SVG 1.1//EN" "http://www.w3.org/Graphics/SVG/1.1/DTD/svg11.dtd"><svg width="100%" height="100%" viewBox="0 0 52 68" version="1.1" xmlns="http://www.w3.org/2000/svg" xmlns:xlink="http://www.w3.org/1999/xlink" xml:space="preserve" xmlns:serif="http://www.serif.com/" style="fill-rule:evenodd;clip-rule:evenodd;stroke-linejoin:round;stroke-miterlimit:2;"><g id="ICONES"><g id="Speakers"></g><g id="Notes"></g><g id="Sauvegarde"></g><g id="Export"></g><g id="Lecture"><rect id="Play" x="0" y="0" width="51.972" height="67.956" style="fill:none;"/><clipPath id="_clip1"><rect id="Play1" serif:id="Play" x="0" y="0" width="51.972" height="67.956"/></clipPath><g clip-path="url(#_clip1)"><path id="Play2" serif:id="Play" d="M0,4l0,60.381c0,1.485 0.823,2.848 2.137,3.539c1.314,0.692 2.903,0.599 4.127,-0.242l43.972,-30.19c1.087,-0.746 1.736,-1.979 1.736,-3.298c0,-1.318 -0.649,-2.551 -1.736,-3.297l-43.972,-30.191c-1.224,-0.84 -2.813,-0.933 -4.127,-0.241c-1.314,0.691 -2.137,2.054 -2.137,3.539Zm4,60.381l-0,-60.381l43.972,30.19l-43.972,30.191Z" style="fill:#fff;"/></g></g><g id="Autres"></g><g id="Éléments-graphiques" serif:id="Éléments graphiques"></g></g><g id="LINKED"><g id="_8N_L-L" serif:id="8N_L-L"></g><g id="_8N_L-RL" serif:id="8N_L-RL"></g><g id="_8N_L-R" serif:id="8N_L-R"></g><g id="_16N_L-L" serif:id="16N_L-L"></g><g id="_16N_L-RL_FULL" serif:id="16N_L-RL_FULL"></g><g id="_16N_L-RL_DEMI" serif:id="16N_L-RL_DEMI"></g><g id="_16N_L-R" serif:id="16N_L-R"></g></g><g id="RESTS"><g id="_1N_R" serif:id="1N_R"></g><g id="_2N_R" serif:id="2N_R"></g><g id="_4N_R" serif:id="4N_R"></g><g id="_16N_R" serif:id="16N_R"></g><g id="_8N_R" serif:id="8N_R"></g></g><g id="DOTTED"><g id="_4N" serif:id="4N"></g><g id="_8N_L-L1" serif:id="8N_L-L"></g><g id="_8N_L-R1" serif:id="8N_L-R"></g><g id="_2N_R1" serif:id="2N_R"></g><g id="_4N_R1" serif:id="4N_R"></g><g id="_8N_R1" serif:id="8N_R"></g></g></svg>