<?xml version="1.0" encoding="UTF-8" standalone="no"?><!DOCTYPE svg PUBLIC "-//W3C//DTD SVG 1.1//EN" "http://www.w3.org/Graphics/SVG/1.1/DTD/svg11.dtd"><svg width="100%" height="100%" viewBox="0 0 94 113" version="1.1" xmlns="http://www.w3.org/2000/svg" xmlns:xlink="http://www.w3.org/1999/xlink" xml:space="preserve" xmlns:serif="http://www.serif.com/" style="fill-rule:evenodd;clip-rule:evenodd;stroke-linejoin:round;stroke-miterlimit:2;"><g id="ICONES"><g id="Speakers"></g><g id="Notes"></g><g id="Sauvegarde"></g><g id="Export"></g><g id="Lecture"></g><g id="Autres"></g><g id="Éléments-graphiques" serif:id="Éléments graphiques"></g></g><rect id="Plan-de-travail3" serif:id="Plan de travail3" x="0" y="0" width="93.552" height="112.528" style="fill:none;"/><clipPath id="_clip1"><rect x="0" y="0" width="93.552" height="112.528"/></clipPath><g clip-path="url(#_clip1)"><path id="Métronome" d="M51.678,74.682l-1.507,0c-2.21,0 -4,-1.79 -4,-4l-0,-28.735l-1.167,-1.499l-1.166,1.499l0,28.735c0,2.21 -1.791,4 -4,4l-22.862,0c-1.292,0 -2.505,-0.623 -3.255,-1.675c-0.751,-1.051 -0.948,-2.4 -0.529,-3.622l22.862,-66.682c0.555,-1.617 2.075,-2.703 3.784,-2.703l10.333,-0c1.709,-0 3.229,1.086 3.783,2.703l14.6,42.583l9.065,-15.789c-0.834,-0.603 -1.407,-1.509 -1.592,-2.532c-0.209,-1.162 0.106,-2.357 0.861,-3.265l6.316,-7.601c1.243,-1.495 3.381,-1.88 5.068,-0.912l3.271,1.878c1.686,0.968 2.432,3.009 1.767,4.836l-3.379,9.287c-0.404,1.11 -1.277,1.984 -2.386,2.39c-0.976,0.356 -2.047,0.317 -2.988,-0.098l-12.554,21.866l4.814,14.039c0.419,1.222 0.222,2.571 -0.529,3.622c-0.751,1.052 -1.963,1.675 -3.255,1.675l-12.131,0l-0.844,1.472l16.222,-0c1.71,-0 3.23,1.086 3.784,2.702l9.728,28.374c0.419,1.222 0.222,2.571 -0.528,3.623c-0.751,1.051 -1.964,1.675 -3.255,1.675l-82.009,-0c-1.292,-0 -2.504,-0.624 -3.255,-1.675c-0.751,-1.052 -0.948,-2.401 -0.529,-3.623l9.728,-28.374c0.555,-1.616 2.075,-2.702 3.784,-2.702l37.105,-0l0.845,-1.472Zm-2.28,3.972l-35.67,-0c-0.641,-0 -1.211,0.407 -1.419,1.013l-9.728,28.374c-0.157,0.458 -0.083,0.964 0.198,1.358c0.282,0.395 0.737,0.629 1.221,0.629l82.009,-0c0.484,-0 0.939,-0.234 1.22,-0.629c0.282,-0.394 0.356,-0.9 0.199,-1.358l-9.729,-28.374c-0.208,-0.606 -0.778,-1.013 -1.419,-1.013l-17.658,-0l-10.149,17.678c-1.099,1.915 -3.546,2.577 -5.46,1.478c-1.915,-1.099 -2.577,-3.546 -1.478,-5.461l7.863,-13.695Zm31.622,-50.061l-1.803,-1.036c-0.384,-0.22 -0.651,-0.599 -0.729,-1.035c-0.079,-0.435 0.04,-0.884 0.322,-1.224l6.316,-7.601c0.467,-0.561 1.269,-0.705 1.901,-0.342l3.271,1.878c0.633,0.363 0.912,1.128 0.663,1.814l-3.379,9.286c-0.152,0.416 -0.479,0.744 -0.895,0.896c-0.416,0.152 -0.878,0.113 -1.262,-0.108l-1.803,-1.035l-37.317,65.002c-0.412,0.717 -1.33,0.966 -2.048,0.554c-0.717,-0.413 -0.966,-1.33 -0.554,-2.048l37.317,-65.001Zm-14.12,19.575l-15.311,-44.654c-0.207,-0.607 -0.778,-1.014 -1.418,-1.014l-10.333,-0c-0.641,-0 -1.211,0.407 -1.419,1.014l-22.862,66.682c-0.158,0.458 -0.084,0.964 0.198,1.358c0.281,0.395 0.736,0.628 1.221,0.628l22.862,0c0.828,0 1.5,-0.671 1.5,-1.5l0,-29.592l3.666,-4.715l3.667,4.715l-0,29.592c-0,0.829 0.671,1.5 1.5,1.5l2.942,0l13.787,-24.014Zm3.449,10.06l-8.011,13.954l10.695,0c0.485,0 0.939,-0.233 1.221,-0.628c0.281,-0.394 0.355,-0.9 0.198,-1.358l-4.103,-11.968Z" style="fill:#fff;"/></g></svg>