<?xml version="1.0" encoding="UTF-8" standalone="no"?><!DOCTYPE svg PUBLIC "-//W3C//DTD SVG 1.1//EN" "http://www.w3.org/Graphics/SVG/1.1/DTD/svg11.dtd"><svg width="100%" height="100%" viewBox="0 0 96 75" version="1.1" xmlns="http://www.w3.org/2000/svg" xmlns:xlink="http://www.w3.org/1999/xlink" xml:space="preserve" xmlns:serif="http://www.serif.com/" style="fill-rule:evenodd;clip-rule:evenodd;stroke-linejoin:round;stroke-miterlimit:2;"><g id="ICONES"><g id="Speakers"><rect id="m" x="0" y="0" width="95.298" height="74.981" style="fill:none;"/><clipPath id="_clip1"><rect id="m1" serif:id="m" x="0" y="0" width="95.298" height="74.981"/></clipPath><g clip-path="url(#_clip1)"><path id="Cross" d="M60.91,25.508l8.602,8.602l8.601,-8.602c1.561,-1.561 4.096,-1.561 5.657,0c1.561,1.561 1.561,4.096 0,5.657l-8.601,8.602l8.551,8.551c1.561,1.561 1.561,4.096 0,5.657c-1.561,1.561 -4.096,1.561 -5.657,-0l-8.551,-8.551l-8.552,8.551c-1.561,1.561 -4.095,1.561 -5.656,-0c-1.562,-1.561 -1.562,-4.096 -0,-5.657l8.551,-8.551l-8.602,-8.602c-1.561,-1.561 -1.561,-4.096 0,-5.657c1.561,-1.561 4.096,-1.561 5.657,0Zm18.921,26.699c0.585,0.586 1.536,0.586 2.121,0c0.586,-0.585 0.586,-1.536 0,-2.121l-10.319,-10.319l10.369,-10.37c0.586,-0.585 0.586,-1.536 0,-2.121c-0.585,-0.585 -1.535,-0.585 -2.121,0l-10.369,10.369l-10.37,-10.369c-0.585,-0.585 -1.535,-0.585 -2.121,0c-0.585,0.585 -0.585,1.536 0,2.121l10.369,10.37l-10.319,10.319c-0.585,0.585 -0.585,1.536 0,2.121c0.586,0.586 1.536,0.586 2.122,0l10.319,-10.319l10.319,10.319Z" style="fill:#fff;"/><path id="Speaker" d="M13.529,25.258l27.095,-17.61c1.23,-0.799 2.798,-0.861 4.088,-0.161c1.289,0.699 2.092,2.049 2.092,3.515l-0,57.479c-0,1.467 -0.803,2.816 -2.092,3.516c-1.29,0.699 -2.858,0.637 -4.088,-0.162l-27.095,-17.609l-9.529,-0c-2.209,-0 -4,-1.791 -4,-4l0,-20.968c-0,-2.21 1.791,-4 4,-4l9.529,-0Zm0.741,2.5l27.716,-18.013c0.461,-0.3 1.05,-0.323 1.533,-0.061c0.484,0.262 0.785,0.768 0.785,1.318l-0,57.479c-0,0.55 -0.301,1.056 -0.785,1.318c-0.483,0.263 -1.072,0.239 -1.533,-0.06l-27.716,-18.013l-10.27,-0c-0.828,-0 -1.5,-0.672 -1.5,-1.5l0,-20.968c-0,-0.829 0.672,-1.5 1.5,-1.5l10.27,-0Z" style="fill:#fff;"/></g></g><g id="Notes"></g><g id="Sauvegarde"></g><g id="Export"></g><g id="Lecture"></g><g id="Autres"></g><g id="Éléments-graphiques" serif:id="Éléments graphiques"></g></g></svg>