<?xml version="1.0" encoding="UTF-8" standalone="no"?><!DOCTYPE svg PUBLIC "-//W3C//DTD SVG 1.1//EN" "http://www.w3.org/Graphics/SVG/1.1/DTD/svg11.dtd"><svg width="100%" height="100%" viewBox="0 0 76 76" version="1.1" xmlns="http://www.w3.org/2000/svg" xmlns:xlink="http://www.w3.org/1999/xlink" xml:space="preserve" xmlns:serif="http://www.serif.com/" style="fill-rule:evenodd;clip-rule:evenodd;stroke-linejoin:round;stroke-miterlimit:2;"><g id="ICONES"><g id="Speakers"></g><g id="Notes"></g><g id="Sauvegarde"></g><g id="Export"></g><g id="Lecture"></g><g id="Autres"></g><g id="Éléments-graphiques" serif:id="Éléments graphiques"><rect id="Plus" x="-0" y="0" width="75.602" height="75.457" style="fill:none;"/><clipPath id="_clip1"><rect id="Plus1" serif:id="Plus" x="-0" y="0" width="75.602" height="75.457"/></clipPath><g clip-path="url(#_clip1)"><path id="Plus2" serif:id="Plus" d="M38.294,0.013c5.285,0.268 9.486,4.637 9.486,9.987l-0,17.757l17.822,-0c5.519,-0 10,4.48 10,10c-0,5.519 -4.481,10 -10,10l-17.822,-0l-0,17.7c-0,5.519 -4.481,10 -10,10c-5.519,-0 -10,-4.481 -10,-10l-0,-17.7l-17.78,-0c-5.523,-0 -10,-4.478 -10,-10c-0,-5.523 4.477,-10 10,-10l17.78,-0l-0,-17.757c-0,-5.523 4.477,-10 10,-10l0.514,0.013Zm-0.205,3.995c3.17,0.161 5.691,2.782 5.691,5.992l-0,21.757l21.822,-0c3.311,-0 6,2.688 6,6c-0,3.311 -2.689,6 -6,6l-21.822,-0l-0,21.7c-0,3.311 -2.689,6 -6,6c-3.312,-0 -6,-2.689 -6,-6l-0,-21.7l-21.78,-0c-3.314,-0 -6,-2.687 -6,-6c-0,-3.314 2.686,-6 6,-6l21.78,-0l-0,-21.757c-0,-3.314 2.686,-6 6,-6l0.309,0.008Z" style="fill:#fff;"/></g></g></g></svg>