<?xml version="1.0" encoding="UTF-8" standalone="no"?><!DOCTYPE svg PUBLIC "-//W3C//DTD SVG 1.1//EN" "http://www.w3.org/Graphics/SVG/1.1/DTD/svg11.dtd"><svg width="100%" height="100%" viewBox="0 0 109 118" version="1.1" xmlns="http://www.w3.org/2000/svg" xmlns:xlink="http://www.w3.org/1999/xlink" xml:space="preserve" xmlns:serif="http://www.serif.com/" style="fill-rule:evenodd;clip-rule:evenodd;stroke-linejoin:round;stroke-miterlimit:2;"><g id="ICONES"><g id="Speakers"></g><g id="Notes"></g><g id="Sauvegarde"></g><g id="Export"></g><g id="Lecture"></g><g id="Autres"></g><g id="Éléments-graphiques" serif:id="Éléments graphiques"></g></g><rect id="Plan-de-travail2" serif:id="Plan de travail2" x="0" y="0" width="108.44" height="117.666" style="fill:none;"/><clipPath id="_clip1"><rect x="0" y="0" width="108.44" height="117.666"/></clipPath><g clip-path="url(#_clip1)"><g><path id="Onde" d="M55.991,79.446l3.943,-42.002c0.194,-2.068 1.937,-3.643 4.014,-3.626c2.076,0.016 3.795,1.619 3.956,3.689l3.546,45.597c1.658,0.003 3.142,1.028 3.731,2.577l0.029,0.074c0.562,-1.572 2.059,-2.651 3.766,-2.651l25.464,-0c2.208,-0 4,1.792 4,4c0,2.207 -1.792,4 -4,4l-22.24,-0l-2.054,9.445c-0.376,1.73 -1.844,3.007 -3.609,3.139c-1.766,0.132 -3.408,-0.911 -4.038,-2.566l-3.813,-10.018l-0.937,-0c-2.088,-0 -3.826,-1.608 -3.988,-3.69l-0.218,-2.814l-2.764,29.44c-0.189,2.02 -1.862,3.578 -3.89,3.625c-2.029,0.046 -3.771,-1.433 -4.053,-3.443l-3.257,-23.184c-0.406,0.075 -0.829,0.087 -1.254,0.03c-0.763,-0.102 -1.46,-0.418 -2.024,-0.889l-1.255,4.558c-0.433,1.574 -1.78,2.727 -3.402,2.912c-1.622,0.186 -3.194,-0.633 -3.972,-2.069l-2.424,-4.476l-15.142,-0c-2.208,-0 -4,-1.793 -4,-4c0,-2.208 1.792,-4 4,-4l17.524,-0c0.776,-0 1.518,0.224 2.149,0.628l2.757,-10.012c0.492,-1.787 2.147,-3.001 3.999,-2.935c1.852,0.066 3.416,1.395 3.779,3.213l0.549,2.745c0.605,-0.205 1.263,-0.266 1.924,-0.158c1.549,0.253 2.788,1.382 3.204,2.861Zm0.509,21.327l5.923,-63.096c0.072,-0.775 0.726,-1.366 1.505,-1.359c0.779,0.006 1.423,0.607 1.484,1.383l3.725,47.903l2.306,-0c0.622,-0 1.18,0.384 1.402,0.966l2.999,7.879l1.666,-7.664c0.15,-0.689 0.76,-1.181 1.466,-1.181l25.464,-0c0.828,-0 1.5,0.672 1.5,1.5c0,0.828 -0.672,1.5 -1.5,1.5l-24.255,-0l-2.482,11.414c-0.141,0.648 -0.691,1.127 -1.353,1.177c-0.662,0.05 -1.278,-0.342 -1.514,-0.962l-4.427,-11.629l-2.66,-0c-0.783,-0 -1.434,-0.603 -1.495,-1.384l-2.478,-31.859l-5.486,58.445c-0.071,0.757 -0.698,1.342 -1.459,1.359c-0.76,0.018 -1.414,-0.537 -1.519,-1.291l-3.985,-28.358l-1.129,2.259c-0.287,0.573 -0.906,0.901 -1.541,0.815c-0.635,-0.085 -1.146,-0.564 -1.272,-1.192l-1.224,-6.125l-3.525,12.8c-0.163,0.591 -0.668,1.023 -1.276,1.093c-0.608,0.069 -1.198,-0.238 -1.489,-0.776l-3.134,-5.786l-16.631,-0c-0.828,-0 -1.5,-0.672 -1.5,-1.5c0,-0.828 0.672,-1.5 1.5,-1.5l17.524,-0c0.551,-0 1.057,0.301 1.319,0.785l1.784,3.294l4.213,-15.299c0.184,-0.67 0.805,-1.126 1.5,-1.101c0.694,0.025 1.281,0.524 1.417,1.205l1.607,8.035l1.33,-2.662c0.294,-0.587 0.936,-0.915 1.584,-0.809c0.648,0.106 1.152,0.621 1.244,1.272l2.872,20.449Z" style="fill:#fff;"/><path id="Note" d="M17.565,6.107l0.466,0.037l0.525,0.111l0.383,0.13l0.271,0.118l0.317,0.171l0.344,0.232l0.369,0.312l0.364,0.399l0.31,0.449l0.172,0.325l0.144,0.343l0.098,0.308c0.299,1.083 1.148,2.174 2.142,3.37l0.158,0.186c0.393,0.369 0.815,0.735 1.249,1.107c2.358,2.018 5.218,3.927 7.712,5.885c4.496,3.529 7.642,7.493 7.642,11.72c0,4.04 -1.902,7.952 -4.346,11.128c-3.261,4.235 -7.34,7.1 -7.34,7.1c-1.728,1.217 -4.104,0.879 -5.425,-0.77c-1.322,-1.65 -1.131,-4.042 0.434,-5.463c1.155,-1.049 2.329,-1.953 3.381,-2.903c0.991,-0.894 1.895,-1.797 2.254,-3.226c0.295,-1.172 0.254,-2.619 -0.113,-4.511c-0.361,-1.86 -1.545,-3.635 -2.939,-5.4c-1.408,-1.783 -3.061,-3.517 -4.665,-5.197l0,28.523c0.204,5.307 -1.149,8.786 -2.935,11.042c-2.939,3.714 -7.308,4.567 -10.793,4.016c-2.743,-0.433 -4.875,-1.814 -5.82,-3.044c-2.009,-2.613 -2.963,-7.315 -0.251,-11.098c1.68,-2.343 5.148,-4.698 11.799,-4.951l0,-36.45l0.018,-0.38l0.052,-0.371l0.086,-0.359l0.118,-0.346l0.232,-0.492l0.294,-0.452l0.352,-0.409l0.403,-0.357l0.45,-0.302l0.492,-0.24l0.528,-0.172l0.438,-0.084l0.554,-0.037l0.076,0.002Zm-0.058,2.499l0.241,0.025l0.251,0.07l0.244,0.118l0.217,0.158l0.187,0.196l0.149,0.228l0.102,0.239l0.02,0.067c0.355,1.287 1.215,2.625 2.348,4.018c0.218,0.234 0.447,0.466 0.684,0.697c2.559,2.489 6.091,4.776 9.095,7.134c1.795,1.409 3.408,2.847 4.581,4.347c1.328,1.699 2.105,3.495 2.105,5.407c0,3.496 -1.712,6.855 -3.827,9.603c-3.021,3.924 -6.799,6.581 -6.799,6.581c-0.648,0.456 -1.539,0.33 -2.034,-0.289c-0.495,-0.619 -0.424,-1.516 0.163,-2.048c1.422,-1.291 2.872,-2.356 4.083,-3.568c1.04,-1.041 1.892,-2.197 2.297,-3.803c0.366,-1.454 0.372,-3.249 -0.084,-5.597c-0.739,-3.809 -4.068,-7.434 -7.334,-10.882c-1.604,-1.694 -3.196,-3.35 -4.554,-4.949c-0.232,-0.23 -0.456,-0.462 -0.67,-0.696l0,34.967c0.197,4.856 -1.029,7.949 -2.732,9.853c-2.737,3.061 -6.838,3.234 -9.553,2.354c-1.291,-0.419 -2.272,-1.093 -2.781,-1.755c-1.469,-1.911 -2.185,-5.35 -0.201,-8.117c1.603,-2.236 5.191,-4.193 12.267,-3.907l0,-38.951l0.026,-0.282l0.077,-0.264l0.112,-0.228l0.155,-0.213l0.191,-0.183l0.191,-0.131l0.213,-0.101l0.238,-0.069l0.235,-0.028l0.097,-0.001Z" style="fill:#fff;"/><path id="Plus" d="M46.033,9.936l-0,-5.936c-0,-2.208 1.792,-4 4,-4c2.208,0 4,1.792 4,4l-0,5.936l5.936,0c2.208,0 4,1.792 4,4c-0,2.208 -1.792,4 -4,4l-5.936,0l-0,5.936c-0,2.208 -1.792,4 -4,4c-2.208,0 -4,-1.792 -4,-4l-0,-5.936l-5.936,0c-2.208,0 -4,-1.792 -4,-4c-0,-2.208 1.792,-4 4,-4l5.936,0Zm2.5,2.5l-0,-8.436c-0,-0.828 0.672,-1.5 1.5,-1.5c0.828,0 1.5,0.672 1.5,1.5l-0,8.436l8.436,0c0.828,0 1.5,0.672 1.5,1.5c-0,0.828 -0.672,1.5 -1.5,1.5l-8.436,0l-0,8.436c-0,0.828 -0.672,1.5 -1.5,1.5c-0.828,0 -1.5,-0.672 -1.5,-1.5l-0,-8.436l-8.436,0c-0.828,0 -1.5,-0.672 -1.5,-1.5c-0,-0.828 0.672,-1.5 1.5,-1.5l8.436,0Z" style="fill:#fff;"/></g></g></svg>