<?xml version="1.0" encoding="UTF-8" standalone="no"?><!DOCTYPE svg PUBLIC "-//W3C//DTD SVG 1.1//EN" "http://www.w3.org/Graphics/SVG/1.1/DTD/svg11.dtd"><svg width="100%" height="100%" viewBox="0 0 96 75" version="1.1" xmlns="http://www.w3.org/2000/svg" xmlns:xlink="http://www.w3.org/1999/xlink" xml:space="preserve" xmlns:serif="http://www.serif.com/" style="fill-rule:evenodd;clip-rule:evenodd;stroke-linejoin:round;stroke-miterlimit:2;"><g id="ICONES"><g id="Speakers"><rect id="Solo" x="0" y="0" width="95.298" height="74.981" style="fill:none;"/><g id="Solo1" serif:id="Solo"><g id="Waves"><path d="M61.426,39.875c-0,-5.386 -2.809,-10.465 -8.618,-12.845c-2.043,-0.838 -3.022,-3.176 -2.185,-5.219c0.838,-2.042 3.176,-3.021 5.219,-2.184c9.156,3.753 13.584,11.758 13.584,20.248c-0,8.49 -4.428,16.496 -13.584,20.248c-2.043,0.838 -4.381,-0.141 -5.219,-2.184c-0.837,-2.043 0.142,-4.381 2.185,-5.218c5.809,-2.381 8.618,-7.46 8.618,-12.846Zm2.5,0c-0,-6.356 -3.315,-12.349 -10.17,-15.159c-0.766,-0.314 -1.133,-1.19 -0.819,-1.956c0.314,-0.767 1.19,-1.134 1.956,-0.82c8.111,3.324 12.033,10.415 12.033,17.935c-0,7.52 -3.922,14.611 -12.033,17.935c-0.766,0.314 -1.642,-0.053 -1.956,-0.819c-0.314,-0.766 0.053,-1.643 0.819,-1.957c6.855,-2.809 10.17,-8.803 10.17,-15.159Z" style="fill:#fff;"/><path d="M74.203,39.875c-0,-8.303 -3.317,-16.238 -10.581,-19.909c-1.97,-0.995 -2.762,-3.403 -1.766,-5.374c0.995,-1.97 3.403,-2.761 5.374,-1.766c9.961,5.033 14.973,15.663 14.973,27.049c-0,11.387 -5.012,22.016 -14.973,27.049c-1.971,0.996 -4.379,0.205 -5.374,-1.766c-0.996,-1.97 -0.204,-4.378 1.766,-5.374c7.264,-3.67 10.581,-11.605 10.581,-19.909Zm2.5,0c-0,-9.266 -3.847,-18.044 -11.954,-22.14c-0.739,-0.373 -1.035,-1.276 -0.662,-2.015c0.373,-0.739 1.276,-1.036 2.015,-0.662c9.119,4.607 13.601,14.395 13.601,24.817c-0,10.423 -4.482,20.211 -13.601,24.818c-0.739,0.373 -1.642,0.077 -2.015,-0.662c-0.373,-0.739 -0.077,-1.642 0.662,-2.016c8.107,-4.096 11.954,-12.873 11.954,-22.14Z" style="fill:#fff;"/><path d="M87.298,39.875c0,-11.512 -4.364,-22.489 -13.882,-27.578c-1.947,-1.041 -2.683,-3.466 -1.642,-5.413c1.041,-1.947 3.467,-2.683 5.414,-1.642c12.048,6.442 18.11,20.06 18.11,34.633c0,14.573 -6.062,28.192 -18.11,34.633c-1.947,1.041 -4.373,0.306 -5.414,-1.641c-1.041,-1.947 -0.305,-4.373 1.642,-5.414c9.518,-5.088 13.882,-16.065 13.882,-27.578Zm2.5,-0.146c-0.038,-12.414 -4.935,-24.147 -15.203,-29.636c-0.73,-0.391 -1.006,-1.3 -0.616,-2.03c0.39,-0.731 1.3,-1.006 2.03,-0.616c11.257,6.019 16.789,18.812 16.789,32.428c0,13.617 -5.532,26.41 -16.789,32.429c-0.73,0.39 -1.64,0.114 -2.03,-0.616c-0.39,-0.73 -0.114,-1.64 0.616,-2.03c10.308,-5.511 15.203,-17.314 15.203,-29.783l-0,-0.146Z" style="fill:#fff;"/></g><path id="Speaker" d="M13.072,25.391c-0.154,-0.259 -0.296,-0.526 -0.426,-0.8c-0.593,-1.186 -0.521,-2.281 0.035,-3.282c0.467,-0.841 1.216,-1.479 2.32,-1.786c0.924,-0.264 1.833,-0.181 2.724,0.281c0.764,0.396 1.349,0.986 1.73,1.748c0.168,0.325 0.425,0.607 0.75,0.865c0.396,0.313 0.87,0.546 1.416,0.716c0.632,0.198 1.33,0.289 2.089,0.289c0.768,-0 1.453,-0.11 2.047,-0.363c0.425,-0.182 0.769,-0.433 1.013,-0.78c0.227,-0.323 0.303,-0.726 0.303,-1.19c0,-0.619 -0.24,-1.148 -0.697,-1.595c-0.652,-0.638 -1.714,-0.937 -3.092,-1.109c-3.104,-0.372 -5.506,-1.396 -7.257,-2.948c-1.989,-1.763 -2.968,-3.932 -2.968,-6.494c-0,-1.874 0.522,-3.496 1.52,-4.878c0.953,-1.319 2.252,-2.354 3.923,-3.072c1.512,-0.65 3.246,-0.993 5.208,-0.993c1.514,0 2.889,0.252 4.128,0.734c1.24,0.482 2.319,1.122 3.243,1.908c0.929,0.79 1.68,1.661 2.256,2.592c0.618,0.99 0.74,1.964 0.524,2.892c-0.237,1.014 -0.812,1.803 -1.758,2.344c-0.06,0.034 -0.121,0.065 -0.184,0.095c-0.92,0.429 -1.856,0.485 -2.807,0.178c-0.91,-0.294 -1.608,-0.843 -2.096,-1.644c-0.209,-0.318 -0.473,-0.617 -0.785,-0.901c-0.26,-0.237 -0.581,-0.416 -0.95,-0.554c-0.459,-0.172 -1.014,-0.246 -1.603,-0.26c-1.097,0 -1.995,0.165 -2.661,0.629c-0.351,0.245 -0.477,0.624 -0.477,1.092c-0,0.245 0.063,0.472 0.193,0.678c0.177,0.279 0.505,0.472 0.911,0.672c0.702,0.347 1.653,0.58 2.841,0.75c2.959,0.426 5.207,1.351 6.8,2.647l9.339,-6.07c1.23,-0.799 2.798,-0.861 4.088,-0.162c1.289,0.7 2.092,2.049 2.092,3.516l-0,57.479c-0,1.466 -0.803,2.816 -2.092,3.515c-1.29,0.7 -2.858,0.638 -4.088,-0.161l-27.095,-17.61l-9.529,0c-2.209,0 -4,-1.79 -4,-4l0,-20.968c-0,-2.209 1.791,-4 4,-4l9.072,0Zm1.733,2.153l-0.535,0.347l-10.27,0c-0.828,0 -1.5,0.672 -1.5,1.5l-0,20.968c-0,0.829 0.672,1.5 1.5,1.5l10.27,0l27.716,18.013c0.461,0.3 1.05,0.323 1.533,0.061c0.484,-0.262 0.785,-0.768 0.785,-1.318l-0,-57.479c-0,-0.55 -0.301,-1.056 -0.785,-1.318c-0.483,-0.263 -1.072,-0.239 -1.533,0.06l-8.981,5.837c1.021,1.485 1.549,3.261 1.549,5.342c0,1.556 -0.299,2.936 -0.861,4.146c-0.584,1.259 -1.41,2.314 -2.474,3.168c-0.995,0.799 -2.155,1.415 -3.486,1.836c-1.255,0.396 -2.596,0.599 -4.023,0.599l-0,-0c-1.664,-0 -3.204,-0.248 -4.621,-0.729c-1.486,-0.504 -2.77,-1.227 -3.86,-2.154c-0.146,-0.124 -0.288,-0.25 -0.424,-0.379Zm-0.375,-3.857c-0.251,-0.508 -0.239,-0.977 -0.001,-1.407c0.223,-0.4 0.591,-0.687 1.121,-0.834c0.426,-0.121 0.844,-0.079 1.254,0.134c0.385,0.199 0.678,0.498 0.874,0.89c0.292,0.564 0.721,1.067 1.285,1.514c0.577,0.458 1.265,0.809 2.061,1.058c0.814,0.254 1.709,0.38 2.686,0.38c1.064,-0 2.009,-0.172 2.832,-0.524c0.79,-0.337 1.413,-0.825 1.865,-1.47c0.449,-0.64 0.666,-1.421 0.666,-2.339c0,-1.172 -0.434,-2.18 -1.299,-3.025c-0.903,-0.883 -2.327,-1.425 -4.252,-1.665c-2.631,-0.315 -4.684,-1.143 -6.168,-2.458c-1.532,-1.358 -2.295,-3.025 -2.295,-4.998c-0,-1.423 0.384,-2.658 1.142,-3.707c0.749,-1.037 1.777,-1.841 3.091,-2.406c1.282,-0.551 2.754,-0.83 4.418,-0.83c1.248,-0 2.382,0.201 3.403,0.598c1.021,0.397 1.911,0.92 2.672,1.567c0.761,0.648 1.38,1.359 1.856,2.129c0.295,0.473 0.375,0.934 0.272,1.378c-0.108,0.46 -0.373,0.816 -0.803,1.061c-0.012,0.007 -0.024,0.013 -0.036,0.019c-0.442,0.206 -0.891,0.235 -1.348,0.087c-0.45,-0.145 -0.792,-0.419 -1.028,-0.823c-0.299,-0.457 -0.673,-0.889 -1.12,-1.296c-0.439,-0.4 -0.971,-0.715 -1.595,-0.949c-0.642,-0.241 -1.414,-0.367 -2.305,-0.387c-1.577,0 -2.848,0.321 -3.806,0.989c-0.895,0.625 -1.332,1.538 -1.332,2.732c-0,0.633 0.167,1.215 0.502,1.746c0.345,0.546 0.922,1.005 1.716,1.397c0.854,0.422 2.002,0.731 3.442,0.936c2.812,0.405 4.891,1.284 6.253,2.601c1.395,1.349 2.101,3.104 2.101,5.272c0,1.239 -0.227,2.34 -0.675,3.304c-0.451,0.973 -1.089,1.79 -1.912,2.45c-0.809,0.65 -1.754,1.147 -2.836,1.489c-1.068,0.337 -2.208,0.506 -3.421,0.506c-1.433,-0 -2.759,-0.208 -3.979,-0.623c-1.233,-0.418 -2.302,-1.014 -3.207,-1.783c-0.916,-0.779 -1.613,-1.683 -2.094,-2.713Z" style="fill:#fff;"/></g></g><g id="Notes"></g><g id="Sauvegarde"></g><g id="Export"></g><g id="Lecture"></g><g id="Autres"></g><g id="Éléments-graphiques" serif:id="Éléments graphiques"></g></g></svg>