<?xml version="1.0" encoding="UTF-8" standalone="no"?><!DOCTYPE svg PUBLIC "-//W3C//DTD SVG 1.1//EN" "http://www.w3.org/Graphics/SVG/1.1/DTD/svg11.dtd"><svg width="100%" height="100%" viewBox="0 0 96 75" version="1.1" xmlns="http://www.w3.org/2000/svg" xmlns:xlink="http://www.w3.org/1999/xlink" xml:space="preserve" xmlns:serif="http://www.serif.com/" style="fill-rule:evenodd;clip-rule:evenodd;stroke-linejoin:round;stroke-miterlimit:2;"><g id="ICONES"><g id="Speakers"><rect id="s" x="0" y="0" width="95.298" height="74.981" style="fill:none;"/><clipPath id="_clip1"><rect id="s1" serif:id="s" x="0" y="0" width="95.298" height="74.981"/></clipPath><g clip-path="url(#_clip1)"><g id="Waves"><path d="M61.426,39.875c-0,-5.386 -2.809,-10.465 -8.618,-12.845c-2.043,-0.838 -3.022,-3.176 -2.185,-5.219c0.838,-2.042 3.176,-3.021 5.219,-2.184c9.156,3.753 13.584,11.758 13.584,20.248c-0,8.49 -4.428,16.496 -13.584,20.248c-2.043,0.838 -4.381,-0.141 -5.219,-2.184c-0.837,-2.043 0.142,-4.381 2.185,-5.218c5.809,-2.381 8.618,-7.46 8.618,-12.846Zm2.5,0c-0,-6.356 -3.315,-12.349 -10.17,-15.159c-0.766,-0.314 -1.133,-1.19 -0.819,-1.956c0.314,-0.767 1.19,-1.134 1.956,-0.82c8.111,3.324 12.033,10.415 12.033,17.935c-0,7.52 -3.922,14.611 -12.033,17.935c-0.766,0.314 -1.642,-0.053 -1.956,-0.819c-0.314,-0.766 0.053,-1.643 0.819,-1.957c6.855,-2.809 10.17,-8.803 10.17,-15.159Z" style="fill:#fff;"/><path d="M74.203,39.875c-0,-8.303 -3.317,-16.238 -10.581,-19.909c-1.97,-0.995 -2.762,-3.403 -1.766,-5.374c0.995,-1.97 3.403,-2.761 5.374,-1.766c9.961,5.033 14.973,15.663 14.973,27.049c-0,11.387 -5.012,22.016 -14.973,27.049c-1.971,0.996 -4.379,0.205 -5.374,-1.766c-0.996,-1.97 -0.204,-4.378 1.766,-5.374c7.264,-3.67 10.581,-11.605 10.581,-19.909Zm2.5,0c-0,-9.266 -3.847,-18.044 -11.954,-22.14c-0.739,-0.373 -1.035,-1.276 -0.662,-2.015c0.373,-0.739 1.276,-1.036 2.015,-0.662c9.119,4.607 13.601,14.395 13.601,24.817c-0,10.423 -4.482,20.211 -13.601,24.818c-0.739,0.373 -1.642,0.077 -2.015,-0.662c-0.373,-0.739 -0.077,-1.642 0.662,-2.016c8.107,-4.096 11.954,-12.873 11.954,-22.14Z" style="fill:#fff;"/><path d="M87.298,39.875c0,-11.512 -4.364,-22.489 -13.882,-27.578c-1.947,-1.041 -2.683,-3.466 -1.642,-5.413c1.041,-1.947 3.467,-2.683 5.414,-1.642c12.048,6.442 18.11,20.06 18.11,34.633c0,14.573 -6.062,28.192 -18.11,34.633c-1.947,1.041 -4.373,0.306 -5.414,-1.641c-1.041,-1.947 -0.305,-4.373 1.642,-5.414c9.518,-5.088 13.882,-16.065 13.882,-27.578Zm2.5,-0.146c-0.038,-12.414 -4.935,-24.147 -15.203,-29.636c-0.73,-0.391 -1.006,-1.3 -0.616,-2.03c0.39,-0.731 1.3,-1.006 2.03,-0.616c11.257,6.019 16.789,18.812 16.789,32.428c0,13.617 -5.532,26.41 -16.789,32.429c-0.73,0.39 -1.64,0.114 -2.03,-0.616c-0.39,-0.73 -0.114,-1.64 0.616,-2.03c10.308,-5.511 15.203,-17.314 15.203,-29.783l-0,-0.146Z" style="fill:#fff;"/></g><path id="Speaker" d="M13.529,25.391l27.095,-17.609c1.23,-0.799 2.798,-0.861 4.088,-0.162c1.289,0.7 2.092,2.049 2.092,3.516l-0,57.479c-0,1.466 -0.803,2.816 -2.092,3.515c-1.29,0.7 -2.858,0.638 -4.088,-0.161l-27.095,-17.61l-9.529,0c-2.209,0 -4,-1.79 -4,-4l0,-20.968c-0,-2.209 1.791,-4 4,-4l9.529,0Zm0.741,2.5l27.716,-18.013c0.461,-0.299 1.05,-0.323 1.533,-0.06c0.484,0.262 0.785,0.768 0.785,1.318l-0,57.479c-0,0.55 -0.301,1.056 -0.785,1.318c-0.483,0.262 -1.072,0.239 -1.533,-0.061l-27.716,-18.013l-10.27,0c-0.828,0 -1.5,-0.671 -1.5,-1.5l0,-20.968c-0,-0.828 0.672,-1.5 1.5,-1.5l10.27,0Z" style="fill:#fff;"/></g></g><g id="Notes"></g><g id="Sauvegarde"></g><g id="Export"></g><g id="Lecture"></g><g id="Autres"></g><g id="Éléments-graphiques" serif:id="Éléments graphiques"></g></g></svg>