<?xml version="1.0" encoding="UTF-8" standalone="no"?><!DOCTYPE svg PUBLIC "-//W3C//DTD SVG 1.1//EN" "http://www.w3.org/Graphics/SVG/1.1/DTD/svg11.dtd"><svg width="100%" height="100%" viewBox="0 0 40 60" version="1.1" xmlns="http://www.w3.org/2000/svg" xmlns:xlink="http://www.w3.org/1999/xlink" xml:space="preserve" xmlns:serif="http://www.serif.com/" style="fill-rule:evenodd;clip-rule:evenodd;stroke-linejoin:round;stroke-miterlimit:2;"><g id="ICONES"><g id="Speakers"></g><g id="Notes"><rect id="Ronde" x="0" y="-0" width="39.522" height="59.696" style="fill:none;"/><g id="Ronde1" serif:id="Ronde"><path id="Ronde2" serif:id="Ronde" d="M26.967,41.967c-3.445,-0 -7.041,0.85 -9.77,2.141c-2.29,1.084 -4.007,2.53 -4.943,3.975c-2.952,4.563 0.037,10.463 9.161,10.463c3.445,0 7.041,-0.85 9.771,-2.141c2.289,-1.084 4.007,-2.53 4.942,-3.976c2.952,-4.562 -0.037,-10.462 -9.161,-10.462Zm-0,2.5c-4.082,-0 -8.775,2.275 -10.522,4.974c-0.958,1.481 -1.002,2.867 -0.489,3.977c0.668,1.447 2.54,2.628 5.459,2.628c4.082,0 8.775,-2.275 10.522,-4.975c0.958,-1.481 1.002,-2.866 0.489,-3.976c-0.668,-1.448 -2.54,-2.628 -5.459,-2.628Z" style="fill:#fff;"/></g></g><g id="Sauvegarde"></g><g id="Export"></g><g id="Lecture"></g><g id="Autres"></g><g id="Éléments-graphiques" serif:id="Éléments graphiques"></g></g><g id="RYTHM"><g id="LINKED"><g id="_8N_L-L" serif:id="8N_L-L"></g><g id="_8N_L-RL" serif:id="8N_L-RL"></g><g id="_8N_L-R" serif:id="8N_L-R"></g><g id="_16N_L-L" serif:id="16N_L-L"></g><g id="_16N_L-RL_FULL" serif:id="16N_L-RL_FULL"></g><g id="_16N_L-RL_DEMI" serif:id="16N_L-RL_DEMI"></g><g id="_16N_L-R" serif:id="16N_L-R"></g></g><g id="RESTS"><g id="_1N_R" serif:id="1N_R"></g><g id="_2N_R" serif:id="2N_R"></g><g id="_4N_R" serif:id="4N_R"></g><g id="_16N_R" serif:id="16N_R"></g><g id="_8N_R" serif:id="8N_R"></g></g><g id="DOTTED"><g id="_4N" serif:id="4N"></g><g id="_8N_L-L1" serif:id="8N_L-L"></g><g id="_8N_L-R1" serif:id="8N_L-R"></g><g id="_2N_R1" serif:id="2N_R"></g><g id="_4N_R1" serif:id="4N_R"></g><g id="_8N_R1" serif:id="8N_R"></g></g></g><g id="TEST-ESPACEMENT" serif:id="TEST ESPACEMENT"></g></svg>