<?xml version="1.0" encoding="UTF-8" standalone="no"?><!DOCTYPE svg PUBLIC "-//W3C//DTD SVG 1.1//EN" "http://www.w3.org/Graphics/SVG/1.1/DTD/svg11.dtd"><svg width="100%" height="100%" viewBox="0 0 40 77" version="1.1" xmlns="http://www.w3.org/2000/svg" xmlns:xlink="http://www.w3.org/1999/xlink" xml:space="preserve" xmlns:serif="http://www.serif.com/" style="fill-rule:evenodd;clip-rule:evenodd;stroke-linejoin:round;stroke-miterlimit:2;"><g id="ICONES"><g id="Speakers"></g><g id="Notes"></g><g id="Sauvegarde"></g><g id="Export"></g><g id="Lecture"></g><g id="Autres"></g><g id="Éléments-graphiques" serif:id="Éléments graphiques"></g></g><g id="TEST-ESPACEMENT" serif:id="TEST ESPACEMENT"></g><g id="RYTHM"><g id="LINKED"><g id="_16N_L-RL_FULL" serif:id="16N_L-RL_FULL"></g><g id="_16N_L-RL_DEMI" serif:id="16N_L-RL_DEMI"></g><g id="_16N_L-R" serif:id="16N_L-R"></g></g><g id="RESTS"><g id="_1N_R" serif:id="1N_R"></g><g id="_2N_R" serif:id="2N_R"></g><g id="_4N_R" serif:id="4N_R"></g><g id="_16N_R" serif:id="16N_R"></g><g id="_8N_R" serif:id="8N_R"></g></g><g id="DOTTED"><g id="_4N" serif:id="4N"></g><g id="_8N_L-L" serif:id="8N_L-L"></g><g id="_8N_L-R" serif:id="8N_L-R"></g><g id="_2N_R1" serif:id="2N_R"></g><g id="_4N_R1" serif:id="4N_R"></g><g id="_8N_R1" serif:id="8N_R"></g></g></g><rect id="Plan-de-travail1" serif:id="Plan de travail1" x="0" y="0" width="39.895" height="76.987" style="fill:none;"/><path id="_16N_L-L" serif:id="16N_L-L" d="M12.312,61.847l8.897,-8.898l0,-50.949c0,-1.105 0.896,-2 2,-2l16.686,0l-0,4l-14.686,0l0,13.253l14.686,0l-0,4l-14.686,0l0,32.524c0,0.531 -0.211,1.04 -0.586,1.415l-9.483,9.483l9.483,9.483l-2.828,2.829l-9.483,-9.484l-9.484,9.484l-2.828,-2.829l9.483,-9.483l-9.483,-9.483l2.828,-2.829l9.484,9.484Z" style="fill:#fff;"/></svg>