<?xml version="1.0" encoding="UTF-8" standalone="no"?><!DOCTYPE svg PUBLIC "-//W3C//DTD SVG 1.1//EN" "http://www.w3.org/Graphics/SVG/1.1/DTD/svg11.dtd"><svg width="100%" height="100%" viewBox="0 0 40 77" version="1.1" xmlns="http://www.w3.org/2000/svg" xmlns:xlink="http://www.w3.org/1999/xlink" xml:space="preserve" xmlns:serif="http://www.serif.com/" style="fill-rule:evenodd;clip-rule:evenodd;stroke-linejoin:round;stroke-miterlimit:2;"><g id="ICONES"><g id="Speakers"></g><g id="Notes"></g><g id="Sauvegarde"></g><g id="Export"></g><g id="Lecture"></g><g id="Autres"></g><g id="Éléments-graphiques" serif:id="Éléments graphiques"></g></g><g id="LINKED"><g id="_8N_L-L" serif:id="8N_L-L"></g><g id="_8N_L-RL" serif:id="8N_L-RL"></g><g id="_8N_L-R" serif:id="8N_L-R"></g><g id="_16N_L-L" serif:id="16N_L-L"></g><g id="_16N_L-RL_FULL" serif:id="16N_L-RL_FULL"></g><g id="_16N_L-RL_DEMI" serif:id="16N_L-RL_DEMI"></g><g id="_16N_L-R" serif:id="16N_L-R"></g></g><g id="RESTS"><g id="_1N_R" serif:id="1N_R"></g><g id="_2N_R" serif:id="2N_R"></g><g id="_4N_R" serif:id="4N_R"></g><g id="_16N_R" serif:id="16N_R"></g><g id="_8N_R" serif:id="8N_R"></g></g><g id="DOTTED"><g id="_4N" serif:id="4N"></g><g id="_8N_L-L1" serif:id="8N_L-L"></g><g id="_8N_L-R1" serif:id="8N_L-R"></g><g id="_2N_R1" serif:id="2N_R"></g><g id="_4N_R1" serif:id="4N_R"></g><g id="_8N_R1" serif:id="8N_R"></g></g><rect id="_8N" serif:id="8N" x="0" y="0" width="39.6" height="76.987" style="fill:none;"/><path d="M12.312,61.847l8.897,-8.898l0,-50.949c0,-0.96 0.682,-1.784 1.625,-1.964c0.943,-0.18 1.88,0.335 2.234,1.227c2.547,6.421 6.409,11.263 9.435,16.08c4.965,7.903 7.934,15.718 1.077,29.104l-3.56,-1.824c5.926,-11.568 3.387,-18.322 -0.904,-25.153c-1.83,-2.912 -3.941,-5.842 -5.907,-9.096l0,43.404c0,0.53 -0.211,1.039 -0.586,1.414l-9.483,9.483l9.483,9.483l-2.828,2.829l-9.483,-9.483l-9.484,9.483l-2.828,-2.829l9.483,-9.483l-9.483,-9.483l2.828,-2.829l9.484,9.484Z" style="fill:#fff;"/></svg>