<?xml version="1.0" encoding="UTF-8" standalone="no"?><!DOCTYPE svg PUBLIC "-//W3C//DTD SVG 1.1//EN" "http://www.w3.org/Graphics/SVG/1.1/DTD/svg11.dtd"><svg width="100%" height="100%" viewBox="0 0 57 77" version="1.1" xmlns="http://www.w3.org/2000/svg" xmlns:xlink="http://www.w3.org/1999/xlink" xml:space="preserve" xmlns:serif="http://www.serif.com/" style="fill-rule:evenodd;clip-rule:evenodd;stroke-linejoin:round;stroke-miterlimit:1.5;"><g id="TEST-ESPACEMENT" serif:id="TEST ESPACEMENT"></g><g id="RYTHM"><g id="RESTS"><g id="_1N_R" serif:id="1N_R"></g><g id="_2N_R" serif:id="2N_R"></g><g id="_4N_R" serif:id="4N_R"></g><g id="_16N_R" serif:id="16N_R"></g><g id="_8N_R" serif:id="8N_R"></g></g><g id="DOTTED"><g id="_4N" serif:id="4N"></g><g id="_8N_L-L" serif:id="8N_L-L"></g><g id="_8N_L-R" serif:id="8N_L-R"></g><g id="_2N_R1" serif:id="2N_R"></g><g id="_4N_R1" serif:id="4N_R"></g><g id="_8N_R1" serif:id="8N_R"></g></g></g><g id="ICONES"><g id="Speakers"></g><g id="Notes"></g><g id="Sauvegarde"></g><g id="Export"></g><g id="Lecture"></g><g id="Autres"></g><g id="Éléments-graphiques" serif:id="Éléments graphiques"></g><g id="Rytmes"><rect id="_8N" serif:id="8N" x="0" y="0" width="56.58" height="76.987" style="fill:none;"/><clipPath id="_clip1"><rect id="_8N1" serif:id="8N" x="0" y="0" width="56.58" height="76.987"/></clipPath><g clip-path="url(#_clip1)"><g id="With-lines" serif:id="With lines"><path d="M9.904,53.778l21.795,21.795" style="fill:none;stroke:#fff;stroke-width:4px;"/><path d="M42.29,45.535c10.653,-20.795 -4.099,-27.167 -10.591,-43.535l0,51.778l-21.795,21.795" style="fill:none;stroke:#fff;stroke-width:4px;"/></g><path id="_8N2" serif:id="8N" d="M20.802,61.847l8.897,-8.898l0,-50.949c0,-0.96 0.682,-1.784 1.625,-1.964c0.943,-0.18 1.88,0.335 2.234,1.227c2.547,6.421 6.409,11.263 9.435,16.08c4.965,7.903 7.934,15.718 1.077,29.104l-3.56,-1.824c5.926,-11.568 3.387,-18.322 -0.904,-25.153c-1.83,-2.912 -3.941,-5.842 -5.907,-9.096l0,43.404c0,0.53 -0.211,1.039 -0.586,1.414l-9.483,9.483l9.483,9.483l-2.828,2.829l-9.483,-9.483l-9.484,9.483l-2.828,-2.829l9.483,-9.483l-9.483,-9.483l2.828,-2.829l9.484,9.484Z" style="fill:#fff;"/></g></g></g></svg>