<?xml version="1.0" encoding="UTF-8" standalone="no"?>
<!DOCTYPE svg PUBLIC "-//W3C//DTD SVG 1.1//EN"
 "http://www.w3.org/Graphics/SVG/1.1/DTD/svg11.dtd">
<!-- Generated by graphviz version 2.44.1 (20200629.0846)
 -->
<!-- Title: dependencies Pages: 1 -->
<svg width="1704pt" height="284pt"
 viewBox="0.00 0.00 1704.00 284.00" xmlns="http://www.w3.org/2000/svg" xmlns:xlink="http://www.w3.org/1999/xlink">
<g id="graph0" class="graph" transform="scale(1 1) rotate(0) translate(4 280)">
<title>dependencies</title>
<polygon fill="white" stroke="transparent" points="-4,4 -4,-280 1700,-280 1700,4 -4,4"/>
<text text-anchor="start" x="827.01" y="-42.4" font-family="sans-serif" font-weight="bold" font-size="14.00">Legend</text>
<polygon fill="#ffffb3" stroke="transparent" points="614,-10 614,-30 634,-30 634,-10 614,-10"/>
<text text-anchor="start" x="637.63" y="-15.4" font-family="sans-serif" font-size="14.00"> &#160;Declarations</text>
<polygon fill="#8dd3c7" stroke="transparent" points="727,-10 727,-30 747,-30 747,-10 727,-10"/>
<text text-anchor="start" x="750.73" y="-15.4" font-family="sans-serif" font-size="14.00"> &#160;Module</text>
<polygon fill="#80b1d3" stroke="transparent" points="813,-10 813,-30 833,-30 833,-10 813,-10"/>
<text text-anchor="start" x="836.78" y="-15.4" font-family="sans-serif" font-size="14.00"> &#160;Bootstrap</text>
<polygon fill="#fdb462" stroke="transparent" points="910,-10 910,-30 930,-30 930,-10 910,-10"/>
<text text-anchor="start" x="933.67" y="-15.4" font-family="sans-serif" font-size="14.00"> &#160;Providers</text>
<polygon fill="#fb8072" stroke="transparent" points="1006,-10 1006,-30 1026,-30 1026,-10 1006,-10"/>
<text text-anchor="start" x="1029.73" y="-15.4" font-family="sans-serif" font-size="14.00"> &#160;Exports</text>
<g id="clust1" class="cluster">
<title>cluster_AppModule</title>
<polygon fill="none" stroke="black" stroke-dasharray="1,5" points="8,-70 8,-268 1688,-268 1688,-70 8,-70"/>
</g>
<g id="clust15" class="cluster">
<title>cluster_AppModule_bootstrap</title>
<polygon fill="none" stroke="black" points="764,-208 764,-260 888,-260 888,-208 764,-208"/>
</g>
<g id="clust2" class="cluster">
<title>cluster_AppModule_declarations</title>
<polygon fill="none" stroke="black" points="168,-78 168,-130 1680,-130 1680,-78 168,-78"/>
</g>
<g id="clust13" class="cluster">
<title>cluster_AppModule_imports</title>
<polygon fill="none" stroke="black" points="16,-78 16,-130 160,-130 160,-78 16,-78"/>
</g>
<!-- AppComponent -->
<g id="node1" class="node">
<title>AppComponent</title>
<polygon fill="#ffffb3" stroke="black" points="1671.94,-122 1566.06,-122 1566.06,-86 1671.94,-86 1671.94,-122"/>
<text text-anchor="middle" x="1619" y="-99.8" font-family="Times,serif" font-size="14.00">AppComponent</text>
</g>
<!-- AppModule -->
<g id="node11" class="node">
<title>AppModule</title>
<polygon fill="#8dd3c7" stroke="black" points="867.66,-187 864.66,-191 843.66,-191 840.66,-187 784.34,-187 784.34,-151 867.66,-151 867.66,-187"/>
<text text-anchor="middle" x="826" y="-164.8" font-family="Times,serif" font-size="14.00">AppModule</text>
</g>
<!-- AppComponent&#45;&gt;AppModule -->
<g id="edge1" class="edge">
<title>AppComponent&#45;&gt;AppModule</title>
<path fill="none" stroke="black" d="M1619,-122.25C1619,-145.02 1619,-181 1619,-181 1619,-181 877.8,-181 877.8,-181"/>
<polygon fill="black" stroke="black" points="877.8,-177.5 867.8,-181 877.8,-184.5 877.8,-177.5"/>
</g>
<!-- CreateTrackComponent -->
<g id="node2" class="node">
<title>CreateTrackComponent</title>
<polygon fill="#ffffb3" stroke="black" points="1548.01,-122 1397.99,-122 1397.99,-86 1548.01,-86 1548.01,-122"/>
<text text-anchor="middle" x="1473" y="-99.8" font-family="Times,serif" font-size="14.00">CreateTrackComponent</text>
</g>
<!-- CreateTrackComponent&#45;&gt;AppModule -->
<g id="edge2" class="edge">
<title>CreateTrackComponent&#45;&gt;AppModule</title>
<path fill="none" stroke="black" d="M1473,-122.28C1473,-143.32 1473,-175 1473,-175 1473,-175 877.95,-175 877.95,-175"/>
<polygon fill="black" stroke="black" points="877.95,-171.5 867.95,-175 877.95,-178.5 877.95,-171.5"/>
</g>
<!-- DashboardComponent -->
<g id="node3" class="node">
<title>DashboardComponent</title>
<polygon fill="#ffffb3" stroke="black" points="1379.97,-122 1238.03,-122 1238.03,-86 1379.97,-86 1379.97,-122"/>
<text text-anchor="middle" x="1309" y="-99.8" font-family="Times,serif" font-size="14.00">DashboardComponent</text>
</g>
<!-- DashboardComponent&#45;&gt;AppModule -->
<g id="edge3" class="edge">
<title>DashboardComponent&#45;&gt;AppModule</title>
<path fill="none" stroke="black" d="M1309,-122.11C1309,-141.34 1309,-169 1309,-169 1309,-169 878.02,-169 878.02,-169"/>
<polygon fill="black" stroke="black" points="878.02,-165.5 868.02,-169 878.02,-172.5 878.02,-165.5"/>
</g>
<!-- ExportMenuComponent -->
<g id="node4" class="node">
<title>ExportMenuComponent</title>
<polygon fill="#ffffb3" stroke="black" points="1220.1,-122 1067.9,-122 1067.9,-86 1220.1,-86 1220.1,-122"/>
<text text-anchor="middle" x="1144" y="-99.8" font-family="Times,serif" font-size="14.00">ExportMenuComponent</text>
</g>
<!-- ExportMenuComponent&#45;&gt;AppModule -->
<g id="edge4" class="edge">
<title>ExportMenuComponent&#45;&gt;AppModule</title>
<path fill="none" stroke="black" d="M1144,-122.02C1144,-139.37 1144,-163 1144,-163 1144,-163 877.9,-163 877.9,-163"/>
<polygon fill="black" stroke="black" points="877.9,-159.5 867.9,-163 877.9,-166.5 877.9,-159.5"/>
</g>
<!-- MainMenuComponent -->
<g id="node5" class="node">
<title>MainMenuComponent</title>
<polygon fill="#ffffb3" stroke="black" points="1049.54,-122 906.46,-122 906.46,-86 1049.54,-86 1049.54,-122"/>
<text text-anchor="middle" x="978" y="-99.8" font-family="Times,serif" font-size="14.00">MainMenuComponent</text>
</g>
<!-- MainMenuComponent&#45;&gt;AppModule -->
<g id="edge5" class="edge">
<title>MainMenuComponent&#45;&gt;AppModule</title>
<path fill="none" stroke="black" d="M978,-122.24C978,-137.57 978,-157 978,-157 978,-157 877.94,-157 877.94,-157"/>
<polygon fill="black" stroke="black" points="877.94,-153.5 867.94,-157 877.94,-160.5 877.94,-153.5"/>
</g>
<!-- PlaybarComponent -->
<g id="node6" class="node">
<title>PlaybarComponent</title>
<polygon fill="#ffffb3" stroke="black" points="888.1,-122 763.9,-122 763.9,-86 888.1,-86 888.1,-122"/>
<text text-anchor="middle" x="826" y="-99.8" font-family="Times,serif" font-size="14.00">PlaybarComponent</text>
</g>
<!-- PlaybarComponent&#45;&gt;AppModule -->
<g id="edge6" class="edge">
<title>PlaybarComponent&#45;&gt;AppModule</title>
<path fill="none" stroke="black" d="M826,-122.11C826,-122.11 826,-140.99 826,-140.99"/>
<polygon fill="black" stroke="black" points="822.5,-140.99 826,-150.99 829.5,-140.99 822.5,-140.99"/>
</g>
<!-- RhythmComponent -->
<g id="node7" class="node">
<title>RhythmComponent</title>
<polygon fill="#ffffb3" stroke="black" points="746.45,-122 619.55,-122 619.55,-86 746.45,-86 746.45,-122"/>
<text text-anchor="middle" x="683" y="-99.8" font-family="Times,serif" font-size="14.00">RhythmComponent</text>
</g>
<!-- RhythmComponent&#45;&gt;AppModule -->
<g id="edge7" class="edge">
<title>RhythmComponent&#45;&gt;AppModule</title>
<path fill="none" stroke="black" d="M683,-122.24C683,-137.57 683,-157 683,-157 683,-157 774.25,-157 774.25,-157"/>
<polygon fill="black" stroke="black" points="774.25,-160.5 784.25,-157 774.25,-153.5 774.25,-160.5"/>
</g>
<!-- SaveMenuComponent -->
<g id="node8" class="node">
<title>SaveMenuComponent</title>
<polygon fill="#ffffb3" stroke="black" points="601.7,-122 460.3,-122 460.3,-86 601.7,-86 601.7,-122"/>
<text text-anchor="middle" x="531" y="-99.8" font-family="Times,serif" font-size="14.00">SaveMenuComponent</text>
</g>
<!-- SaveMenuComponent&#45;&gt;AppModule -->
<g id="edge8" class="edge">
<title>SaveMenuComponent&#45;&gt;AppModule</title>
<path fill="none" stroke="black" d="M531,-122.02C531,-139.37 531,-163 531,-163 531,-163 774.05,-163 774.05,-163"/>
<polygon fill="black" stroke="black" points="774.05,-166.5 784.05,-163 774.05,-159.5 774.05,-166.5"/>
</g>
<!-- SignatureComponent -->
<g id="node9" class="node">
<title>SignatureComponent</title>
<polygon fill="#ffffb3" stroke="black" points="442.49,-122 307.51,-122 307.51,-86 442.49,-86 442.49,-122"/>
<text text-anchor="middle" x="375" y="-99.8" font-family="Times,serif" font-size="14.00">SignatureComponent</text>
</g>
<!-- SignatureComponent&#45;&gt;AppModule -->
<g id="edge9" class="edge">
<title>SignatureComponent&#45;&gt;AppModule</title>
<path fill="none" stroke="black" d="M375,-122.11C375,-141.34 375,-169 375,-169 375,-169 773.98,-169 773.98,-169"/>
<polygon fill="black" stroke="black" points="773.98,-172.5 783.98,-169 773.98,-165.5 773.98,-172.5"/>
</g>
<!-- TrackComponent -->
<g id="node10" class="node">
<title>TrackComponent</title>
<polygon fill="#ffffb3" stroke="black" points="289.97,-122 176.03,-122 176.03,-86 289.97,-86 289.97,-122"/>
<text text-anchor="middle" x="233" y="-99.8" font-family="Times,serif" font-size="14.00">TrackComponent</text>
</g>
<!-- TrackComponent&#45;&gt;AppModule -->
<g id="edge10" class="edge">
<title>TrackComponent&#45;&gt;AppModule</title>
<path fill="none" stroke="black" d="M233,-122.28C233,-143.32 233,-175 233,-175 233,-175 774.3,-175 774.3,-175"/>
<polygon fill="black" stroke="black" points="774.3,-178.5 784.3,-175 774.3,-171.5 774.3,-178.5"/>
</g>
<!-- AppComponent  -->
<g id="node13" class="node">
<title>AppComponent </title>
<polygon fill="#80b1d3" stroke="black" points="880.44,-252 771.56,-252 771.56,-216 880.44,-216 880.44,-252"/>
<text text-anchor="middle" x="826" y="-229.8" font-family="Times,serif" font-size="14.00">AppComponent </text>
</g>
<!-- AppModule&#45;&gt;AppComponent  -->
<g id="edge12" class="edge">
<title>AppModule&#45;&gt;AppComponent </title>
<path fill="none" stroke="black" stroke-dasharray="1,5" d="M826,-187.11C826,-187.11 826,-205.99 826,-205.99"/>
<polygon fill="black" stroke="black" points="822.5,-205.99 826,-215.99 829.5,-205.99 822.5,-205.99"/>
</g>
<!-- AppRoutingModule -->
<g id="node12" class="node">
<title>AppRoutingModule</title>
<polygon fill="#8dd3c7" stroke="black" points="152.27,-122 149.27,-126 128.27,-126 125.27,-122 23.73,-122 23.73,-86 152.27,-86 152.27,-122"/>
<text text-anchor="middle" x="88" y="-99.8" font-family="Times,serif" font-size="14.00">AppRoutingModule</text>
</g>
<!-- AppRoutingModule&#45;&gt;AppModule -->
<g id="edge11" class="edge">
<title>AppRoutingModule&#45;&gt;AppModule</title>
<path fill="none" stroke="black" d="M88,-122.25C88,-145.02 88,-181 88,-181 88,-181 774.21,-181 774.21,-181"/>
<polygon fill="black" stroke="black" points="774.21,-184.5 784.21,-181 774.21,-177.5 774.21,-184.5"/>
</g>
</g>
</svg>
