<?xml version="1.0" encoding="UTF-8" standalone="no"?>
<!DOCTYPE svg PUBLIC "-//W3C//DTD SVG 1.1//EN"
 "http://www.w3.org/Graphics/SVG/1.1/DTD/svg11.dtd">
<!-- Generated by graphviz version 2.44.1 (20200629.0846)
 -->
<!-- Title: dependencies Pages: 1 -->
<svg width="2482pt" height="284pt"
 viewBox="0.00 0.00 2482.00 284.00" xmlns="http://www.w3.org/2000/svg" xmlns:xlink="http://www.w3.org/1999/xlink">
<g id="graph0" class="graph" transform="scale(1 1) rotate(0) translate(4 280)">
<title>dependencies</title>
<polygon fill="white" stroke="transparent" points="-4,4 -4,-280 2478,-280 2478,4 -4,4"/>
<text text-anchor="start" x="1216.01" y="-42.4" font-family="sans-serif" font-weight="bold" font-size="14.00">Legend</text>
<polygon fill="#ffffb3" stroke="transparent" points="1003,-10 1003,-30 1023,-30 1023,-10 1003,-10"/>
<text text-anchor="start" x="1026.63" y="-15.4" font-family="sans-serif" font-size="14.00"> &#160;Declarations</text>
<polygon fill="#8dd3c7" stroke="transparent" points="1116,-10 1116,-30 1136,-30 1136,-10 1116,-10"/>
<text text-anchor="start" x="1139.73" y="-15.4" font-family="sans-serif" font-size="14.00"> &#160;Module</text>
<polygon fill="#80b1d3" stroke="transparent" points="1202,-10 1202,-30 1222,-30 1222,-10 1202,-10"/>
<text text-anchor="start" x="1225.78" y="-15.4" font-family="sans-serif" font-size="14.00"> &#160;Bootstrap</text>
<polygon fill="#fdb462" stroke="transparent" points="1299,-10 1299,-30 1319,-30 1319,-10 1299,-10"/>
<text text-anchor="start" x="1322.67" y="-15.4" font-family="sans-serif" font-size="14.00"> &#160;Providers</text>
<polygon fill="#fb8072" stroke="transparent" points="1395,-10 1395,-30 1415,-30 1415,-10 1395,-10"/>
<text text-anchor="start" x="1418.73" y="-15.4" font-family="sans-serif" font-size="14.00"> &#160;Exports</text>
<g id="clust1" class="cluster">
<title>cluster_AppModule</title>
<polygon fill="none" stroke="black" stroke-dasharray="1,5" points="8,-70 8,-268 2466,-268 2466,-70 8,-70"/>
</g>
<g id="clust18" class="cluster">
<title>cluster_AppModule_imports</title>
<polygon fill="none" stroke="black" points="2314,-78 2314,-130 2458,-130 2458,-78 2314,-78"/>
</g>
<g id="clust20" class="cluster">
<title>cluster_AppModule_bootstrap</title>
<polygon fill="none" stroke="black" points="1139,-208 1139,-260 1263,-260 1263,-208 1139,-208"/>
</g>
<g id="clust2" class="cluster">
<title>cluster_AppModule_declarations</title>
<polygon fill="none" stroke="black" points="16,-78 16,-130 2306,-130 2306,-78 16,-78"/>
</g>
<!-- AppComponent -->
<g id="node1" class="node">
<title>AppComponent</title>
<polygon fill="#ffffb3" stroke="black" points="2297.94,-122 2192.06,-122 2192.06,-86 2297.94,-86 2297.94,-122"/>
<text text-anchor="middle" x="2245" y="-99.8" font-family="Times,serif" font-size="14.00">AppComponent</text>
</g>
<!-- AppModule -->
<g id="node16" class="node">
<title>AppModule</title>
<polygon fill="#8dd3c7" stroke="black" points="1242.66,-187 1239.66,-191 1218.66,-191 1215.66,-187 1159.34,-187 1159.34,-151 1242.66,-151 1242.66,-187"/>
<text text-anchor="middle" x="1201" y="-164.8" font-family="Times,serif" font-size="14.00">AppModule</text>
</g>
<!-- AppComponent&#45;&gt;AppModule -->
<g id="edge1" class="edge">
<title>AppComponent&#45;&gt;AppModule</title>
<path fill="none" stroke="black" d="M2245,-122.29C2245,-144.21 2245,-178 2245,-178 2245,-178 1252.89,-178 1252.89,-178"/>
<polygon fill="black" stroke="black" points="1252.89,-174.5 1242.89,-178 1252.89,-181.5 1252.89,-174.5"/>
</g>
<!-- CreateTrackComponent -->
<g id="node2" class="node">
<title>CreateTrackComponent</title>
<polygon fill="#ffffb3" stroke="black" points="2174.01,-122 2023.99,-122 2023.99,-86 2174.01,-86 2174.01,-122"/>
<text text-anchor="middle" x="2099" y="-99.8" font-family="Times,serif" font-size="14.00">CreateTrackComponent</text>
</g>
<!-- CreateTrackComponent&#45;&gt;AppModule -->
<g id="edge2" class="edge">
<title>CreateTrackComponent&#45;&gt;AppModule</title>
<path fill="none" stroke="black" d="M2099,-122.03C2099,-142.77 2099,-174 2099,-174 2099,-174 1252.81,-174 1252.81,-174"/>
<polygon fill="black" stroke="black" points="1252.81,-170.5 1242.81,-174 1252.81,-177.5 1252.81,-170.5"/>
</g>
<!-- DashboardComponent -->
<g id="node3" class="node">
<title>DashboardComponent</title>
<polygon fill="#ffffb3" stroke="black" points="2005.97,-122 1864.03,-122 1864.03,-86 2005.97,-86 2005.97,-122"/>
<text text-anchor="middle" x="1935" y="-99.8" font-family="Times,serif" font-size="14.00">DashboardComponent</text>
</g>
<!-- DashboardComponent&#45;&gt;AppModule -->
<g id="edge3" class="edge">
<title>DashboardComponent&#45;&gt;AppModule</title>
<path fill="none" stroke="black" d="M1935,-122.11C1935,-141.34 1935,-169 1935,-169 1935,-169 1252.83,-169 1252.83,-169"/>
<polygon fill="black" stroke="black" points="1252.83,-165.5 1242.83,-169 1252.83,-172.5 1252.83,-165.5"/>
</g>
<!-- ExportMenuComponent -->
<g id="node4" class="node">
<title>ExportMenuComponent</title>
<polygon fill="#ffffb3" stroke="black" points="1846.1,-122 1693.9,-122 1693.9,-86 1846.1,-86 1846.1,-122"/>
<text text-anchor="middle" x="1770" y="-99.8" font-family="Times,serif" font-size="14.00">ExportMenuComponent</text>
</g>
<!-- ExportMenuComponent&#45;&gt;AppModule -->
<g id="edge4" class="edge">
<title>ExportMenuComponent&#45;&gt;AppModule</title>
<path fill="none" stroke="black" d="M1770,-122.3C1770,-140.27 1770,-165 1770,-165 1770,-165 1252.84,-165 1252.84,-165"/>
<polygon fill="black" stroke="black" points="1252.84,-161.5 1242.84,-165 1252.84,-168.5 1252.84,-161.5"/>
</g>
<!-- MainMenuComponent -->
<g id="node5" class="node">
<title>MainMenuComponent</title>
<polygon fill="#ffffb3" stroke="black" points="1675.54,-122 1532.46,-122 1532.46,-86 1675.54,-86 1675.54,-122"/>
<text text-anchor="middle" x="1604" y="-99.8" font-family="Times,serif" font-size="14.00">MainMenuComponent</text>
</g>
<!-- MainMenuComponent&#45;&gt;AppModule -->
<g id="edge5" class="edge">
<title>MainMenuComponent&#45;&gt;AppModule</title>
<path fill="none" stroke="black" d="M1604,-122.03C1604,-138.4 1604,-160 1604,-160 1604,-160 1252.99,-160 1252.99,-160"/>
<polygon fill="black" stroke="black" points="1252.99,-156.5 1242.99,-160 1252.99,-163.5 1252.99,-156.5"/>
</g>
<!-- MeasureComponent -->
<g id="node6" class="node">
<title>MeasureComponent</title>
<polygon fill="#ffffb3" stroke="black" points="1513.53,-122 1384.47,-122 1384.47,-86 1513.53,-86 1513.53,-122"/>
<text text-anchor="middle" x="1449" y="-99.8" font-family="Times,serif" font-size="14.00">MeasureComponent</text>
</g>
<!-- MeasureComponent&#45;&gt;AppModule -->
<g id="edge6" class="edge">
<title>MeasureComponent&#45;&gt;AppModule</title>
<path fill="none" stroke="black" d="M1449,-122.19C1449,-137.18 1449,-156 1449,-156 1449,-156 1252.79,-156 1252.79,-156"/>
<polygon fill="black" stroke="black" points="1252.79,-152.5 1242.79,-156 1252.79,-159.5 1252.79,-152.5"/>
</g>
<!-- MetronomeComponent -->
<g id="node7" class="node">
<title>MetronomeComponent</title>
<polygon fill="#ffffb3" stroke="black" points="1366.15,-122 1219.85,-122 1219.85,-86 1366.15,-86 1366.15,-122"/>
<text text-anchor="middle" x="1293" y="-99.8" font-family="Times,serif" font-size="14.00">MetronomeComponent</text>
</g>
<!-- MetronomeComponent&#45;&gt;AppModule -->
<g id="edge7" class="edge">
<title>MetronomeComponent&#45;&gt;AppModule</title>
<path fill="none" stroke="black" d="M1231.25,-122.11C1231.25,-122.11 1231.25,-140.99 1231.25,-140.99"/>
<polygon fill="black" stroke="black" points="1227.75,-140.99 1231.25,-150.99 1234.75,-140.99 1227.75,-140.99"/>
</g>
<!-- MetronomeSoundComponent -->
<g id="node8" class="node">
<title>MetronomeSoundComponent</title>
<polygon fill="#ffffb3" stroke="black" points="1201.43,-122 1018.57,-122 1018.57,-86 1201.43,-86 1201.43,-122"/>
<text text-anchor="middle" x="1110" y="-99.8" font-family="Times,serif" font-size="14.00">MetronomeSoundComponent</text>
</g>
<!-- MetronomeSoundComponent&#45;&gt;AppModule -->
<g id="edge8" class="edge">
<title>MetronomeSoundComponent&#45;&gt;AppModule</title>
<path fill="none" stroke="black" d="M1180.19,-122.11C1180.19,-122.11 1180.19,-140.99 1180.19,-140.99"/>
<polygon fill="black" stroke="black" points="1176.69,-140.99 1180.19,-150.99 1183.69,-140.99 1176.69,-140.99"/>
</g>
<!-- NoteComponent -->
<g id="node9" class="node">
<title>NoteComponent</title>
<polygon fill="#ffffb3" stroke="black" points="1001.05,-122 892.95,-122 892.95,-86 1001.05,-86 1001.05,-122"/>
<text text-anchor="middle" x="947" y="-99.8" font-family="Times,serif" font-size="14.00">NoteComponent</text>
</g>
<!-- NoteComponent&#45;&gt;AppModule -->
<g id="edge9" class="edge">
<title>NoteComponent&#45;&gt;AppModule</title>
<path fill="none" stroke="black" d="M947,-122.19C947,-137.18 947,-156 947,-156 947,-156 1149.34,-156 1149.34,-156"/>
<polygon fill="black" stroke="black" points="1149.34,-159.5 1159.34,-156 1149.34,-152.5 1149.34,-159.5"/>
</g>
<!-- PlaybarComponent -->
<g id="node10" class="node">
<title>PlaybarComponent</title>
<polygon fill="#ffffb3" stroke="black" points="875.1,-122 750.9,-122 750.9,-86 875.1,-86 875.1,-122"/>
<text text-anchor="middle" x="813" y="-99.8" font-family="Times,serif" font-size="14.00">PlaybarComponent</text>
</g>
<!-- PlaybarComponent&#45;&gt;AppModule -->
<g id="edge10" class="edge">
<title>PlaybarComponent&#45;&gt;AppModule</title>
<path fill="none" stroke="black" d="M813,-122.03C813,-138.4 813,-160 813,-160 813,-160 1149.11,-160 1149.11,-160"/>
<polygon fill="black" stroke="black" points="1149.11,-163.5 1159.11,-160 1149.11,-156.5 1149.11,-163.5"/>
</g>
<!-- RhythmComponent -->
<g id="node11" class="node">
<title>RhythmComponent</title>
<polygon fill="#ffffb3" stroke="black" points="733.45,-122 606.55,-122 606.55,-86 733.45,-86 733.45,-122"/>
<text text-anchor="middle" x="670" y="-99.8" font-family="Times,serif" font-size="14.00">RhythmComponent</text>
</g>
<!-- RhythmComponent&#45;&gt;AppModule -->
<g id="edge11" class="edge">
<title>RhythmComponent&#45;&gt;AppModule</title>
<path fill="none" stroke="black" d="M670,-122.3C670,-140.27 670,-165 670,-165 670,-165 1149.33,-165 1149.33,-165"/>
<polygon fill="black" stroke="black" points="1149.33,-168.5 1159.33,-165 1149.33,-161.5 1149.33,-168.5"/>
</g>
<!-- SaveMenuComponent -->
<g id="node12" class="node">
<title>SaveMenuComponent</title>
<polygon fill="#ffffb3" stroke="black" points="588.7,-122 447.3,-122 447.3,-86 588.7,-86 588.7,-122"/>
<text text-anchor="middle" x="518" y="-99.8" font-family="Times,serif" font-size="14.00">SaveMenuComponent</text>
</g>
<!-- SaveMenuComponent&#45;&gt;AppModule -->
<g id="edge12" class="edge">
<title>SaveMenuComponent&#45;&gt;AppModule</title>
<path fill="none" stroke="black" d="M518,-122.11C518,-141.34 518,-169 518,-169 518,-169 1149.3,-169 1149.3,-169"/>
<polygon fill="black" stroke="black" points="1149.3,-172.5 1159.3,-169 1149.3,-165.5 1149.3,-172.5"/>
</g>
<!-- SignatureComponent -->
<g id="node13" class="node">
<title>SignatureComponent</title>
<polygon fill="#ffffb3" stroke="black" points="429.49,-122 294.51,-122 294.51,-86 429.49,-86 429.49,-122"/>
<text text-anchor="middle" x="362" y="-99.8" font-family="Times,serif" font-size="14.00">SignatureComponent</text>
</g>
<!-- SignatureComponent&#45;&gt;AppModule -->
<g id="edge13" class="edge">
<title>SignatureComponent&#45;&gt;AppModule</title>
<path fill="none" stroke="black" d="M362,-122.03C362,-142.77 362,-174 362,-174 362,-174 1149.11,-174 1149.11,-174"/>
<polygon fill="black" stroke="black" points="1149.11,-177.5 1159.11,-174 1149.11,-170.5 1149.11,-177.5"/>
</g>
<!-- TempoComponent -->
<g id="node14" class="node">
<title>TempoComponent</title>
<polygon fill="#ffffb3" stroke="black" points="276.49,-122 155.51,-122 155.51,-86 276.49,-86 276.49,-122"/>
<text text-anchor="middle" x="216" y="-99.8" font-family="Times,serif" font-size="14.00">TempoComponent</text>
</g>
<!-- TempoComponent&#45;&gt;AppModule -->
<g id="edge14" class="edge">
<title>TempoComponent&#45;&gt;AppModule</title>
<path fill="none" stroke="black" d="M216,-122.29C216,-144.21 216,-178 216,-178 216,-178 1149.3,-178 1149.3,-178"/>
<polygon fill="black" stroke="black" points="1149.3,-181.5 1159.3,-178 1149.3,-174.5 1149.3,-181.5"/>
</g>
<!-- TrackComponent -->
<g id="node15" class="node">
<title>TrackComponent</title>
<polygon fill="#ffffb3" stroke="black" points="137.97,-122 24.03,-122 24.03,-86 137.97,-86 137.97,-122"/>
<text text-anchor="middle" x="81" y="-99.8" font-family="Times,serif" font-size="14.00">TrackComponent</text>
</g>
<!-- TrackComponent&#45;&gt;AppModule -->
<g id="edge15" class="edge">
<title>TrackComponent&#45;&gt;AppModule</title>
<path fill="none" stroke="black" d="M81,-122.32C81,-145.66 81,-183 81,-183 81,-183 1149.14,-183 1149.14,-183"/>
<polygon fill="black" stroke="black" points="1149.14,-186.5 1159.14,-183 1149.14,-179.5 1149.14,-186.5"/>
</g>
<!-- AppComponent  -->
<g id="node18" class="node">
<title>AppComponent </title>
<polygon fill="#80b1d3" stroke="black" points="1255.44,-252 1146.56,-252 1146.56,-216 1255.44,-216 1255.44,-252"/>
<text text-anchor="middle" x="1201" y="-229.8" font-family="Times,serif" font-size="14.00">AppComponent </text>
</g>
<!-- AppModule&#45;&gt;AppComponent  -->
<g id="edge17" class="edge">
<title>AppModule&#45;&gt;AppComponent </title>
<path fill="none" stroke="black" stroke-dasharray="1,5" d="M1201,-187.11C1201,-187.11 1201,-205.99 1201,-205.99"/>
<polygon fill="black" stroke="black" points="1197.5,-205.99 1201,-215.99 1204.5,-205.99 1197.5,-205.99"/>
</g>
<!-- AppRoutingModule -->
<g id="node17" class="node">
<title>AppRoutingModule</title>
<polygon fill="#8dd3c7" stroke="black" points="2450.27,-122 2447.27,-126 2426.27,-126 2423.27,-122 2321.73,-122 2321.73,-86 2450.27,-86 2450.27,-122"/>
<text text-anchor="middle" x="2386" y="-99.8" font-family="Times,serif" font-size="14.00">AppRoutingModule</text>
</g>
<!-- AppRoutingModule&#45;&gt;AppModule -->
<g id="edge16" class="edge">
<title>AppRoutingModule&#45;&gt;AppModule</title>
<path fill="none" stroke="black" d="M2386,-122.32C2386,-145.66 2386,-183 2386,-183 2386,-183 1252.83,-183 1252.83,-183"/>
<polygon fill="black" stroke="black" points="1252.83,-179.5 1242.83,-183 1252.83,-186.5 1252.83,-179.5"/>
</g>
</g>
</svg>
